<svg xmlns="http://www.w3.org/2000/svg" xmlns:xlink="http://www.w3.org/1999/xlink" contentStyleType="text/css" data-diagram-type="CLASS" height="135px" preserveAspectRatio="none" style="width:354px;height:135px;background:#FFFFFF;" version="1.1" viewBox="0 0 354 135" width="354px" zoomAndPan="magnify"><?plantuml 1.2026.6?><defs/><g><!--class Singleton--><g class="entity" data-qualified-name="Singleton" data-source-line="12" id="ent0001"><rect fill="#D5E8D4" height="113.1875" rx="2.5" ry="2.5" style="stroke:#82B366;stroke-width:0.5;" width="194.5947" x="7" y="7"/><ellipse cx="71.7759" cy="23" fill="#ADD1B2" rx="11" ry="11" style="stroke:#181818;stroke-width:1;"/><path d="M74.7446,28.6406 Q74.1665,28.9375 73.5259,29.0781 Q72.8853,29.2344 72.1821,29.2344 Q69.6821,29.2344 68.354,27.5938 Q67.0415,25.9375 67.0415,22.8125 Q67.0415,19.6875 68.354,18.0313 Q69.6821,16.375 72.1821,16.375 Q72.8853,16.375 73.5259,16.5313 Q74.1821,16.6875 74.7446,16.9844 L74.7446,19.7031 Q74.1196,19.125 73.5259,18.8594 Q72.9321,18.5781 72.3071,18.5781 Q70.9634,18.5781 70.2759,19.6563 Q69.5884,20.7188 69.5884,22.8125 Q69.5884,24.9063 70.2759,25.9844 Q70.9634,27.0469 72.3071,27.0469 Q72.9321,27.0469 73.5259,26.7813 Q74.1196,26.5 74.7446,25.9219 L74.7446,28.6406 Z " fill="#000000"/><text fill="#000000" font-family="'Microsoft YaHei'" font-size="12" lengthAdjust="spacing" textLength="56.543" x="92.2759" y="27.1543">Singleton</text><line style="stroke:#82B366;stroke-width:0.5;" x1="8" x2="200.5947" y1="39" y2="39"/><g data-visibility-modifier="PRIVATE_FIELD"><rect fill="none" height="6" style="stroke:#C82930;stroke-width:1;" width="6" x="15" y="49.6484"/></g><text fill="#000000" font-family="sans-serif" font-size="14" lengthAdjust="spacing" text-decoration="underline" textLength="134.4424" x="27" y="55.9951">instance: Singleton</text><line style="stroke:#82B366;stroke-width:0.5;" x1="8" x2="200.5947" y1="63.2969" y2="63.2969"/><g data-visibility-modifier="PRIVATE_METHOD"><rect fill="#F24D5C" height="6" style="stroke:#C82930;stroke-width:1;" width="6" x="15" y="73.9453"/></g><text fill="#000000" font-family="sans-serif" font-size="14" lengthAdjust="spacing" textLength="76.8906" x="27" y="80.292">Singleton()</text><g data-visibility-modifier="PUBLIC_METHOD"><ellipse cx="18" cy="93.2422" fill="#84BE84" rx="3" ry="3" style="stroke:#038048;stroke-width:1;"/></g><text fill="#000000" font-family="sans-serif" font-size="14" lengthAdjust="spacing" text-decoration="underline" textLength="168.5947" x="27" y="96.5889">getInstance(): Singleton</text><g data-visibility-modifier="PUBLIC_METHOD"><ellipse cx="18" cy="109.5391" fill="#84BE84" rx="3" ry="3" style="stroke:#038048;stroke-width:1;"/></g><text fill="#000000" font-family="sans-serif" font-size="14" lengthAdjust="spacing" textLength="105.9023" x="27" y="112.8857">execute(): void</text></g><g class="entity" data-qualified-name="GMN2" data-source-line="20" id="ent0003"><path d="M237.03,28.33 L237.03,59.6 L202.05,63.6 L237.03,67.6 L237.03,98.8613 A0,0 0 0 0 237.03,98.8613 L339.5657,98.8613 A0,0 0 0 0 339.5657,98.8613 L339.5657,38.33 L329.5657,28.33 L237.03,28.33 A0,0 0 0 0 237.03,28.33" fill="#FFF2CC" style="stroke:#D6B656;stroke-width:0.5;"/><path d="M329.5657,28.33 L329.5657,38.33 L339.5657,38.33 L329.5657,28.33" fill="#FFF2CC" style="stroke:#D6B656;stroke-width:0.5;"/><text fill="#000000" font-family="sans-serif" font-size="13" lengthAdjust="spacing" textLength="65.0001" x="243.03" y="45.3969">&#24120;&#35265;&#23454;&#29616;&#65306;</text><text fill="#000000" font-family="sans-serif" font-size="13" lengthAdjust="spacing" textLength="68.5357" x="243.03" y="60.5297">1. &#26522;&#20030;&#21333;&#20363;</text><text fill="#000000" font-family="sans-serif" font-size="13" lengthAdjust="spacing" textLength="81.5357" x="243.03" y="75.6625">2. &#38745;&#24577;&#20869;&#37096;&#31867;</text><text fill="#000000" font-family="sans-serif" font-size="13" lengthAdjust="spacing" textLength="81.5357" x="243.03" y="90.7953">3. &#21452;&#37325;&#26816;&#26597;&#38145;</text></g><?plantuml-src RP2nIWD148RxUuebDWd1G2xcE6Ad85feayfoipjxBhdiojv6n1184BNGQAE50MCXefLe5r3oDBcBL_aAxfr796Yty_tppp-pGPEBVQnm2n4V1m7gM0YjOTBqb6mBkYvzgT0InU0oaYXIKL0PTOWB3MReXXHw1xS0vROvKJAGJADTl0aybubrVWIeR5jTAvZ72QdX_pJ6c4t-f56duLGTCyBwMRJEXUU3bi98LN3foghF1THSkr5nd7JmSYVGM7FIHLoObo1G-tKb-hp85qnPdBTxeBSoHxwmw2d28P2sJlc1v3JP9xr4SMzF8yaMkiFn-FEf7xwCPfUlNnz3Gyeb58s6q_4a7DnC9-U6s2KKtzr6lNvuUX8VFy_UtWsib51uTH6V3QA7NdJ_65_tBH0q_RDl?></g></svg>