<svg xmlns="http://www.w3.org/2000/svg" xmlns:xlink="http://www.w3.org/1999/xlink" contentStyleType="text/css" data-diagram-type="CLASS" height="351px" preserveAspectRatio="none" style="width:208px;height:351px;background:#FFFFFF;" version="1.1" viewBox="0 0 208 351" width="208px" zoomAndPan="magnify"><?plantuml 1.2026.6?><defs/><g><!--class Target--><g class="entity" data-qualified-name="Target" data-source-line="12" id="ent0001"><rect fill="#FFF2CC" height="64.2969" rx="2.5" ry="2.5" style="stroke:#D6B656;stroke-width:0.5;" width="129.2432" x="35.43" y="7"/><ellipse cx="76.4944" cy="23" fill="#B4A7E5" rx="11" ry="11" style="stroke:#181818;stroke-width:1;"/><path d="M72.4163,18.7656 L72.4163,16.6094 L79.8069,16.6094 L79.8069,18.7656 L77.3382,18.7656 L77.3382,26.8438 L79.8069,26.8438 L79.8069,29 L72.4163,29 L72.4163,26.8438 L74.885,26.8438 L74.885,18.7656 L72.4163,18.7656 Z " fill="#000000"/><text fill="#000000" font-family="'Microsoft YaHei'" font-size="12" font-style="italic" lengthAdjust="spacing" textLength="39.3223" x="96.2865" y="27.1543">Target</text><line style="stroke:#D6B656;stroke-width:0.5;" x1="36.43" x2="163.6732" y1="39" y2="39"/><line style="stroke:#D6B656;stroke-width:0.5;" x1="36.43" x2="163.6732" y1="47" y2="47"/><g data-visibility-modifier="PUBLIC_METHOD"><ellipse cx="46.43" cy="60.6484" fill="#84BE84" rx="3" ry="3" style="stroke:#038048;stroke-width:1;"/></g><text fill="#000000" font-family="sans-serif" font-size="14" lengthAdjust="spacing" textLength="103.2432" x="55.43" y="63.9951">request(): void</text></g><!--class Adaptee--><g class="entity" data-qualified-name="Adaptee" data-source-line="15" id="ent0002"><rect fill="#DAE8FC" height="64.2969" rx="2.5" ry="2.5" style="stroke:#6C8EBF;stroke-width:0.5;" width="186.1113" x="7" y="271.89"/><ellipse cx="70.6719" cy="287.89" fill="#ADD1B2" rx="11" ry="11" style="stroke:#181818;stroke-width:1;"/><path d="M73.6406,293.5306 Q73.0625,293.8275 72.4219,293.9681 Q71.7813,294.1244 71.0781,294.1244 Q68.5781,294.1244 67.25,292.4838 Q65.9375,290.8275 65.9375,287.7025 Q65.9375,284.5775 67.25,282.9213 Q68.5781,281.265 71.0781,281.265 Q71.7813,281.265 72.4219,281.4213 Q73.0781,281.5775 73.6406,281.8744 L73.6406,284.5931 Q73.0156,284.015 72.4219,283.7494 Q71.8281,283.4681 71.2031,283.4681 Q69.8594,283.4681 69.1719,284.5463 Q68.4844,285.6088 68.4844,287.7025 Q68.4844,289.7963 69.1719,290.8744 Q69.8594,291.9369 71.2031,291.9369 Q71.8281,291.9369 72.4219,291.6713 Q73.0156,291.39 73.6406,290.8119 L73.6406,293.5306 Z " fill="#000000"/><text fill="#000000" font-family="'Microsoft YaHei'" font-size="12" lengthAdjust="spacing" textLength="50.2676" x="91.1719" y="292.0443">Adaptee</text><line style="stroke:#6C8EBF;stroke-width:0.5;" x1="8" x2="192.1113" y1="303.89" y2="303.89"/><line style="stroke:#6C8EBF;stroke-width:0.5;" x1="8" x2="192.1113" y1="311.89" y2="311.89"/><g data-visibility-modifier="PUBLIC_METHOD"><ellipse cx="18" cy="325.5384" fill="#84BE84" rx="3" ry="3" style="stroke:#038048;stroke-width:1;"/></g><text fill="#000000" font-family="sans-serif" font-size="14" lengthAdjust="spacing" textLength="160.1113" x="27" y="328.8851">specificRequest(): void</text></g><!--class Adapter--><g class="entity" data-qualified-name="Adapter" data-source-line="18" id="ent0003"><rect fill="#D5E8D4" height="80.5938" rx="2.5" ry="2.5" style="stroke:#82B366;stroke-width:0.5;" width="151.46" x="24.33" y="131.3"/><ellipse cx="71.9008" cy="147.3" fill="#ADD1B2" rx="11" ry="11" style="stroke:#181818;stroke-width:1;"/><path d="M74.8696,152.9406 Q74.2914,153.2375 73.6508,153.3781 Q73.0102,153.5344 72.3071,153.5344 Q69.8071,153.5344 68.4789,151.8938 Q67.1664,150.2375 67.1664,147.1125 Q67.1664,143.9875 68.4789,142.3313 Q69.8071,140.675 72.3071,140.675 Q73.0102,140.675 73.6508,140.8313 Q74.3071,140.9875 74.8696,141.2844 L74.8696,144.0031 Q74.2446,143.425 73.6508,143.1594 Q73.0571,142.8781 72.4321,142.8781 Q71.0883,142.8781 70.4008,143.9563 Q69.7133,145.0188 69.7133,147.1125 Q69.7133,149.2063 70.4008,150.2844 Q71.0883,151.3469 72.4321,151.3469 Q73.0571,151.3469 73.6508,151.0813 Q74.2446,150.8 74.8696,150.2219 L74.8696,152.9406 Z " fill="#000000"/><text fill="#000000" font-family="'Microsoft YaHei'" font-size="12" lengthAdjust="spacing" textLength="47.8184" x="92.4008" y="151.4543">Adapter</text><line style="stroke:#82B366;stroke-width:0.5;" x1="25.33" x2="174.79" y1="163.3" y2="163.3"/><g data-visibility-modifier="PRIVATE_FIELD"><rect fill="none" height="6" style="stroke:#C82930;stroke-width:1;" width="6" x="32.33" y="173.9484"/></g><text fill="#000000" font-family="sans-serif" font-size="14" lengthAdjust="spacing" textLength="125.46" x="44.33" y="180.2951">adaptee: Adaptee</text><line style="stroke:#82B366;stroke-width:0.5;" x1="25.33" x2="174.79" y1="187.5969" y2="187.5969"/><g data-visibility-modifier="PUBLIC_METHOD"><ellipse cx="35.33" cy="201.2453" fill="#84BE84" rx="3" ry="3" style="stroke:#038048;stroke-width:1;"/></g><text fill="#000000" font-family="sans-serif" font-size="14" lengthAdjust="spacing" textLength="103.2432" x="44.33" y="204.592">request(): void</text></g><!--reverse link Target to Adapter--><g class="link" data-entity-1="ent0001" data-entity-2="ent0003" data-link-type="extension" data-source-line="22" id="lnk4"><path codeLine="22" d="M100.06,89.73 C100.06,107.52 100.06,111.92 100.06,130.89" fill="none" id="Target-backto-Adapter" style="stroke:#181818;stroke-width:1;stroke-dasharray:7,7;"/><polygon fill="none" points="100.06,71.73,94.06,89.73,106.06,89.73,100.06,71.73" style="stroke:#181818;stroke-width:1;stroke-linejoin:miter;stroke-miterlimit:10;"/></g><!--link Adapter to Adaptee--><g class="link" data-entity-1="ent0003" data-entity-2="ent0002" data-link-type="dependency" data-source-line="23" id="lnk5"><path codeLine="23" d="M100.06,212.09 C100.06,231.13 100.06,248.67 100.06,266.54" fill="none" id="Adapter-to-Adaptee" style="stroke:#181818;stroke-width:1;"/><polygon fill="#181818" points="100.06,271.54,104.06,262.54,100.06,266.54,96.06,262.54,100.06,271.54" style="stroke:#181818;stroke-width:1;stroke-linejoin:miter;stroke-miterlimit:10;"/></g><?plantuml-src VOyzJmCn38Rt_0ghNK3eAd7Gw7IWIe24M6005aPVubHMhydXf0ny_7UkvC92nMhxVHw_SSD-GC4jc1vZX0y5S8rcivQmy_Ocz45WRf4QP_QR89PacchJKEV6wMtmwG6t1BDxDX9YS0bUy8vuDYsV-9tWj5PVAlxgV4XqsEQSgyqVczMTNkeHeTWd4eU6u1bbJQaaBdhsrEQx7_A9qEkEOZewRk4ji1t3kUILnI4HbM8vcElaO1p8i6Fp-2zW_zMI6dkU0KtTdUbihZ0Rsg8w_Ctq_-NdOb6Ggg2hQbN2tm00?></g></svg>