<svg xmlns="http://www.w3.org/2000/svg" xmlns:xlink="http://www.w3.org/1999/xlink" contentStyleType="text/css" data-diagram-type="CLASS" height="334px" preserveAspectRatio="none" style="width:458px;height:334px;background:#FFFFFF;" version="1.1" viewBox="0 0 458 334" width="458px" zoomAndPan="magnify"><?plantuml 1.2026.6?><defs/><g><!--class Abstraction--><g class="entity" data-qualified-name="Abstraction" data-source-line="12" id="ent0001"><rect fill="#DAE8FC" height="80.5938" rx="2.5" ry="2.5" style="stroke:#6C8EBF;stroke-width:0.5;" width="215.1094" x="175.32" y="7"/><ellipse cx="244.2975" cy="23" fill="#A9DCDF" rx="11" ry="11" style="stroke:#181818;stroke-width:1;"/><path d="M244.4069,18.3438 L243.2507,23.4219 L245.5788,23.4219 L244.4069,18.3438 Z M242.9225,16.1094 L245.9069,16.1094 L249.2663,28.5 L246.8132,28.5 L246.0475,25.4375 L242.7663,25.4375 L242.0163,28.5 L239.5788,28.5 L242.9225,16.1094 Z " fill="#000000"/><text fill="#000000" font-family="'Microsoft YaHei'" font-size="12" font-style="italic" lengthAdjust="spacing" textLength="68.6543" x="264.7975" y="27.1543">Abstraction</text><line style="stroke:#6C8EBF;stroke-width:0.5;" x1="176.32" x2="389.4294" y1="39" y2="39"/><g data-visibility-modifier="PRIVATE_FIELD"><rect fill="none" height="6" style="stroke:#C82930;stroke-width:1;" width="6" x="183.32" y="49.6484"/></g><text fill="#000000" font-family="sans-serif" font-size="14" lengthAdjust="spacing" textLength="189.1094" x="195.32" y="55.9951">implementor: Implementor</text><line style="stroke:#6C8EBF;stroke-width:0.5;" x1="176.32" x2="389.4294" y1="63.2969" y2="63.2969"/><g data-visibility-modifier="PUBLIC_METHOD"><ellipse cx="186.32" cy="76.9453" fill="#84BE84" rx="3" ry="3" style="stroke:#038048;stroke-width:1;"/></g><text fill="#000000" font-family="sans-serif" font-size="14" lengthAdjust="spacing" textLength="116.9355" x="195.32" y="80.292">operation(): void</text></g><!--class Implementor--><g class="entity" data-qualified-name="Implementor" data-source-line="16" id="ent0002"><rect fill="#FFF2CC" height="64.2969" rx="2.5" ry="2.5" style="stroke:#D6B656;stroke-width:0.5;" width="131.9023" x="129.93" y="147.59"/><ellipse cx="155.1367" cy="163.59" fill="#B4A7E5" rx="11" ry="11" style="stroke:#181818;stroke-width:1;"/><path d="M151.0586,159.3556 L151.0586,157.1994 L158.4492,157.1994 L158.4492,159.3556 L155.9805,159.3556 L155.9805,167.4337 L158.4492,167.4337 L158.4492,169.59 L151.0586,169.59 L151.0586,167.4337 L153.5274,167.4337 L153.5274,159.3556 L151.0586,159.3556 Z " fill="#000000"/><text fill="#000000" font-family="'Microsoft YaHei'" font-size="12" font-style="italic" lengthAdjust="spacing" textLength="77.2207" x="171.4049" y="167.7443">Implementor</text><line style="stroke:#D6B656;stroke-width:0.5;" x1="130.93" x2="260.8323" y1="179.59" y2="179.59"/><line style="stroke:#D6B656;stroke-width:0.5;" x1="130.93" x2="260.8323" y1="187.59" y2="187.59"/><g data-visibility-modifier="PUBLIC_METHOD"><ellipse cx="140.93" cy="201.2384" fill="#84BE84" rx="3" ry="3" style="stroke:#038048;stroke-width:1;"/></g><text fill="#000000" font-family="sans-serif" font-size="14" lengthAdjust="spacing" textLength="105.9023" x="149.93" y="204.5851">execute(): void</text></g><!--class RefinedAbstraction--><g class="entity" data-qualified-name="RefinedAbstraction" data-source-line="19" id="ent0003"><rect fill="#D5E8D4" height="48" rx="2.5" ry="2.5" style="stroke:#82B366;stroke-width:0.5;" width="146.5391" x="296.61" y="155.74"/><ellipse cx="311.61" cy="171.74" fill="#ADD1B2" rx="11" ry="11" style="stroke:#181818;stroke-width:1;"/><path d="M314.5788,177.3806 Q314.0006,177.6775 313.36,177.8181 Q312.7194,177.9744 312.0163,177.9744 Q309.5163,177.9744 308.1881,176.3337 Q306.8756,174.6775 306.8756,171.5525 Q306.8756,168.4275 308.1881,166.7712 Q309.5163,165.115 312.0163,165.115 Q312.7194,165.115 313.36,165.2712 Q314.0163,165.4275 314.5788,165.7244 L314.5788,168.4431 Q313.9538,167.865 313.36,167.5994 Q312.7663,167.3181 312.1413,167.3181 Q310.7975,167.3181 310.11,168.3962 Q309.4225,169.4587 309.4225,171.5525 Q309.4225,173.6462 310.11,174.7244 Q310.7975,175.7869 312.1413,175.7869 Q312.7663,175.7869 313.36,175.5212 Q313.9538,175.24 314.5788,174.6619 L314.5788,177.3806 Z " fill="#000000"/><text fill="#000000" font-family="'Microsoft YaHei'" font-size="12" lengthAdjust="spacing" textLength="114.5391" x="325.61" y="175.8943">RefinedAbstraction</text><line style="stroke:#82B366;stroke-width:0.5;" x1="297.61" x2="442.1491" y1="187.74" y2="187.74"/><line style="stroke:#82B366;stroke-width:0.5;" x1="297.61" x2="442.1491" y1="195.74" y2="195.74"/></g><!--class ConcreteImplementorA--><g class="entity" data-qualified-name="ConcreteImplementorA" data-source-line="20" id="ent0004"><rect fill="#DAE8FC" height="48" rx="2.5" ry="2.5" style="stroke:#6C8EBF;stroke-width:0.5;" width="171.7578" x="7" y="271.89"/><ellipse cx="22" cy="287.89" fill="#ADD1B2" rx="11" ry="11" style="stroke:#181818;stroke-width:1;"/><path d="M24.9688,293.5306 Q24.3906,293.8275 23.75,293.9681 Q23.1094,294.1244 22.4063,294.1244 Q19.9063,294.1244 18.5781,292.4838 Q17.2656,290.8275 17.2656,287.7025 Q17.2656,284.5775 18.5781,282.9213 Q19.9063,281.265 22.4063,281.265 Q23.1094,281.265 23.75,281.4213 Q24.4063,281.5775 24.9688,281.8744 L24.9688,284.5931 Q24.3438,284.015 23.75,283.7494 Q23.1563,283.4681 22.5313,283.4681 Q21.1875,283.4681 20.5,284.5463 Q19.8125,285.6088 19.8125,287.7025 Q19.8125,289.7963 20.5,290.8744 Q21.1875,291.9369 22.5313,291.9369 Q23.1563,291.9369 23.75,291.6713 Q24.3438,291.39 24.9688,290.8119 L24.9688,293.5306 Z " fill="#000000"/><text fill="#000000" font-family="'Microsoft YaHei'" font-size="12" lengthAdjust="spacing" textLength="139.7578" x="36" y="292.0443">ConcreteImplementorA</text><line style="stroke:#6C8EBF;stroke-width:0.5;" x1="8" x2="177.7578" y1="303.89" y2="303.89"/><line style="stroke:#6C8EBF;stroke-width:0.5;" x1="8" x2="177.7578" y1="311.89" y2="311.89"/></g><!--class ConcreteImplementorB--><g class="entity" data-qualified-name="ConcreteImplementorB" data-source-line="21" id="ent0005"><rect fill="#DAE8FC" height="48" rx="2.5" ry="2.5" style="stroke:#6C8EBF;stroke-width:0.5;" width="171.7813" x="213.99" y="271.89"/><ellipse cx="228.99" cy="287.89" fill="#ADD1B2" rx="11" ry="11" style="stroke:#181818;stroke-width:1;"/><path d="M231.9588,293.5306 Q231.3806,293.8275 230.74,293.9681 Q230.0994,294.1244 229.3963,294.1244 Q226.8963,294.1244 225.5681,292.4838 Q224.2556,290.8275 224.2556,287.7025 Q224.2556,284.5775 225.5681,282.9213 Q226.8963,281.265 229.3963,281.265 Q230.0994,281.265 230.74,281.4213 Q231.3963,281.5775 231.9588,281.8744 L231.9588,284.5931 Q231.3338,284.015 230.74,283.7494 Q230.1463,283.4681 229.5213,283.4681 Q228.1775,283.4681 227.49,284.5463 Q226.8025,285.6088 226.8025,287.7025 Q226.8025,289.7963 227.49,290.8744 Q228.1775,291.9369 229.5213,291.9369 Q230.1463,291.9369 230.74,291.6713 Q231.3338,291.39 231.9588,290.8119 L231.9588,293.5306 Z " fill="#000000"/><text fill="#000000" font-family="'Microsoft YaHei'" font-size="12" lengthAdjust="spacing" textLength="139.7813" x="242.99" y="292.0443">ConcreteImplementorB</text><line style="stroke:#6C8EBF;stroke-width:0.5;" x1="214.99" x2="384.7713" y1="303.89" y2="303.89"/><line style="stroke:#6C8EBF;stroke-width:0.5;" x1="214.99" x2="384.7713" y1="311.89" y2="311.89"/></g><!--reverse link Abstraction to RefinedAbstraction--><g class="link" data-entity-1="ent0001" data-entity-2="ent0003" data-link-type="extension" data-source-line="23" id="lnk6"><path codeLine="23" d="M319.2077,102.7648 C333.9077,124.8048 341.74,136.55 354.25,155.31" fill="none" id="Abstraction-backto-RefinedAbstraction" style="stroke:#181818;stroke-width:1;"/><polygon fill="none" points="309.22,87.79,314.2161,106.0941,324.1993,99.4356,309.22,87.79" style="stroke:#181818;stroke-width:1;stroke-linejoin:miter;stroke-miterlimit:10;"/></g><!--link Abstraction to Implementor--><g class="link" data-entity-1="ent0001" data-entity-2="ent0002" data-link-type="dependency" data-source-line="24" id="lnk7"><path codeLine="24" d="M256.54,87.79 C243.84,106.83 231.5846,125.2105 219.6646,143.0805" fill="none" id="Abstraction-to-Implementor" style="stroke:#181818;stroke-width:1;"/><polygon fill="#181818" points="216.89,147.24,225.2119,141.9725,219.6646,143.0805,218.5566,137.5332,216.89,147.24" style="stroke:#181818;stroke-width:1;stroke-linejoin:miter;stroke-miterlimit:10;"/></g><!--reverse link Implementor to ConcreteImplementorA--><g class="link" data-entity-1="ent0002" data-entity-2="ent0004" data-link-type="extension" data-source-line="25" id="lnk8"><path codeLine="25" d="M155.4013,225.6037 C138.4913,244.3437 129.45,254.36 114.02,271.47" fill="none" id="Implementor-backto-ConcreteImplementorA" style="stroke:#181818;stroke-width:1;stroke-dasharray:7,7;"/><polygon fill="none" points="167.46,212.24,150.9467,221.5841,159.8559,229.6232,167.46,212.24" style="stroke:#181818;stroke-width:1;stroke-linejoin:miter;stroke-miterlimit:10;"/></g><!--reverse link Implementor to ConcreteImplementorB--><g class="link" data-entity-1="ent0002" data-entity-2="ent0005" data-link-type="extension" data-source-line="26" id="lnk9"><path codeLine="26" d="M236.6951,225.5435 C253.7751,244.2835 262.95,254.36 278.54,271.47" fill="none" id="Implementor-backto-ConcreteImplementorB" style="stroke:#181818;stroke-width:1;stroke-dasharray:7,7;"/><polygon fill="none" points="224.57,212.24,232.2606,229.5852,241.1296,221.5018,224.57,212.24" style="stroke:#181818;stroke-width:1;stroke-linejoin:miter;stroke-miterlimit:10;"/></g><?plantuml-src ZOz1IyD048Nl-okMUb5A2bQxX5Y4fY1wq8EUF4vsPsLfiXDcjo9Q_xjfasg24JpEl3VlVHCspjV0K4bTGWZoGqYPWzwyC6szMLD9B4yCO6hrNY4soDrMwHGBssnloCS7g51Exfrc2cIZV8PRT9DEV7BlAC_dubE4xpfF4SVRhBLp_QlDg48jL1CXe0YHGSUEUDMDZloHzAfq7hEMxz2HkAekiK8VYJDvzpCqsfHgPDYVdvvbyfMSQKgSZyWMDFRDHxGslWKwn4_n3VKsOY-WPNj4srZD4761gRbiCz9vSQ5KPrwJrumHUushlwLSY7xiSfSa8tK3Jv9S3txllxRSpMRZ1FznvLy0?></g></svg>