<svg xmlns="http://www.w3.org/2000/svg" xmlns:xlink="http://www.w3.org/1999/xlink" contentStyleType="text/css" data-diagram-type="CLASS" height="243px" preserveAspectRatio="none" style="width:335px;height:243px;background:#FFFFFF;" version="1.1" viewBox="0 0 335 243" width="335px" zoomAndPan="magnify"><?plantuml 1.2026.6?><defs/><g><!--class Component--><g class="entity" data-qualified-name="Component" data-source-line="12" id="ent0001"><rect fill="#FFF2CC" height="64.2969" rx="2.5" ry="2.5" style="stroke:#D6B656;stroke-width:0.5;" width="142.9355" x="138.36" y="7"/><ellipse cx="171.9304" cy="23" fill="#B4A7E5" rx="11" ry="11" style="stroke:#181818;stroke-width:1;"/><path d="M167.8523,18.7656 L167.8523,16.6094 L175.2429,16.6094 L175.2429,18.7656 L172.7742,18.7656 L172.7742,26.8438 L175.2429,26.8438 L175.2429,29 L167.8523,29 L167.8523,26.8438 L170.321,26.8438 L170.321,18.7656 L167.8523,18.7656 Z " fill="#000000"/><text fill="#000000" font-family="'Microsoft YaHei'" font-size="12" font-style="italic" lengthAdjust="spacing" textLength="69.668" x="190.0572" y="27.1543">Component</text><line style="stroke:#D6B656;stroke-width:0.5;" x1="139.36" x2="280.2955" y1="39" y2="39"/><line style="stroke:#D6B656;stroke-width:0.5;" x1="139.36" x2="280.2955" y1="47" y2="47"/><g data-visibility-modifier="PUBLIC_METHOD"><ellipse cx="149.36" cy="60.6484" fill="#84BE84" rx="3" ry="3" style="stroke:#038048;stroke-width:1;"/></g><text fill="#000000" font-family="sans-serif" font-size="14" lengthAdjust="spacing" textLength="116.9355" x="158.36" y="63.9951">operation(): void</text></g><!--class Leaf--><g class="entity" data-qualified-name="Leaf" data-source-line="15" id="ent0002"><rect fill="#D5E8D4" height="48" rx="2.5" ry="2.5" style="stroke:#82B366;stroke-width:0.5;" width="57.6465" x="7" y="155.74"/><ellipse cx="22" cy="171.74" fill="#ADD1B2" rx="11" ry="11" style="stroke:#181818;stroke-width:1;"/><path d="M24.9688,177.3806 Q24.3906,177.6775 23.75,177.8181 Q23.1094,177.9744 22.4063,177.9744 Q19.9063,177.9744 18.5781,176.3338 Q17.2656,174.6775 17.2656,171.5525 Q17.2656,168.4275 18.5781,166.7713 Q19.9063,165.115 22.4063,165.115 Q23.1094,165.115 23.75,165.2713 Q24.4063,165.4275 24.9688,165.7244 L24.9688,168.4431 Q24.3438,167.865 23.75,167.5994 Q23.1563,167.3181 22.5313,167.3181 Q21.1875,167.3181 20.5,168.3963 Q19.8125,169.4588 19.8125,171.5525 Q19.8125,173.6463 20.5,174.7244 Q21.1875,175.7869 22.5313,175.7869 Q23.1563,175.7869 23.75,175.5213 Q24.3438,175.24 24.9688,174.6619 L24.9688,177.3806 Z " fill="#000000"/><text fill="#000000" font-family="'Microsoft YaHei'" font-size="12" lengthAdjust="spacing" textLength="25.6465" x="36" y="175.8943">Leaf</text><line style="stroke:#82B366;stroke-width:0.5;" x1="8" x2="63.6465" y1="187.74" y2="187.74"/><line style="stroke:#82B366;stroke-width:0.5;" x1="8" x2="63.6465" y1="195.74" y2="195.74"/></g><!--class Composite--><g class="entity" data-qualified-name="Composite" data-source-line="16" id="ent0003"><rect fill="#DAE8FC" height="96.8906" rx="2.5" ry="2.5" style="stroke:#6C8EBF;stroke-width:0.5;" width="220.8584" x="99.39" y="131.3"/><ellipse cx="173.5477" cy="147.3" fill="#ADD1B2" rx="11" ry="11" style="stroke:#181818;stroke-width:1;"/><path d="M176.5165,152.9406 Q175.9383,153.2375 175.2977,153.3781 Q174.6571,153.5344 173.954,153.5344 Q171.454,153.5344 170.1258,151.8938 Q168.8133,150.2375 168.8133,147.1125 Q168.8133,143.9875 170.1258,142.3313 Q171.454,140.675 173.954,140.675 Q174.6571,140.675 175.2977,140.8313 Q175.954,140.9875 176.5165,141.2844 L176.5165,144.0031 Q175.8915,143.425 175.2977,143.1594 Q174.704,142.8781 174.079,142.8781 Q172.7352,142.8781 172.0477,143.9563 Q171.3602,145.0188 171.3602,147.1125 Q171.3602,149.2063 172.0477,150.2844 Q172.7352,151.3469 174.079,151.3469 Q174.704,151.3469 175.2977,151.0813 Q175.8915,150.8 176.5165,150.2219 L176.5165,152.9406 Z " fill="#000000"/><text fill="#000000" font-family="'Microsoft YaHei'" font-size="12" lengthAdjust="spacing" textLength="64.043" x="194.0477" y="151.4543">Composite</text><line style="stroke:#6C8EBF;stroke-width:0.5;" x1="100.39" x2="319.2484" y1="163.3" y2="163.3"/><g data-visibility-modifier="PRIVATE_FIELD"><rect fill="none" height="6" style="stroke:#C82930;stroke-width:1;" width="6" x="107.39" y="173.9484"/></g><text fill="#000000" font-family="sans-serif" font-size="14" lengthAdjust="spacing" textLength="194.8584" x="119.39" y="180.2951">children: List&lt;Component&gt;</text><line style="stroke:#6C8EBF;stroke-width:0.5;" x1="100.39" x2="319.2484" y1="187.5969" y2="187.5969"/><g data-visibility-modifier="PUBLIC_METHOD"><ellipse cx="110.39" cy="201.2453" fill="#84BE84" rx="3" ry="3" style="stroke:#038048;stroke-width:1;"/></g><text fill="#000000" font-family="sans-serif" font-size="14" lengthAdjust="spacing" textLength="157.3496" x="119.39" y="204.592">add(Component): void</text><g data-visibility-modifier="PUBLIC_METHOD"><ellipse cx="110.39" cy="217.5422" fill="#84BE84" rx="3" ry="3" style="stroke:#038048;stroke-width:1;"/></g><text fill="#000000" font-family="sans-serif" font-size="14" lengthAdjust="spacing" textLength="116.9355" x="119.39" y="220.8889">operation(): void</text></g><!--reverse link Component to Leaf--><g class="link" data-entity-1="ent0001" data-entity-2="ent0002" data-link-type="extension" data-source-line="21" id="lnk4"><path codeLine="21" d="M146.2741,81.8398 C121.6941,98.5498 106.76,109.88 81.82,131.3 C73.12,138.78 64.2,147.65 56.56,155.69" fill="none" id="Component-backto-Leaf" style="stroke:#181818;stroke-width:1;stroke-dasharray:7,7;"/><polygon fill="none" points="161.16,71.72,142.9008,76.8778,149.6473,86.8017,161.16,71.72" style="stroke:#181818;stroke-width:1;stroke-linejoin:miter;stroke-miterlimit:10;"/></g><!--reverse link Component to Composite--><g class="link" data-entity-1="ent0001" data-entity-2="ent0003" data-link-type="extension" data-source-line="22" id="lnk5"><path codeLine="22" d="M196.5952,89.4858 C194.6152,106.9758 196.19,111.22 197.27,130.82" fill="none" id="Component-backto-Composite" style="stroke:#181818;stroke-width:1;stroke-dasharray:7,7;"/><polygon fill="none" points="198.62,71.6,190.6333,88.8108,202.5571,90.1607,198.62,71.6" style="stroke:#181818;stroke-width:1;stroke-linejoin:miter;stroke-miterlimit:10;"/></g><!--link Composite to Component--><g class="link" data-entity-1="ent0003" data-entity-2="ent0001" data-link-type="aggregation" data-source-line="23" id="lnk6"><path codeLine="23" d="M223.0402,118.8382 C224.1202,99.2382 223.5752,94.0579 221.5852,76.5679" fill="none" id="Composite-Component" style="stroke:#181818;stroke-width:1;"/><polygon fill="none" points="222.38,130.82,226.7041,125.0492,223.0402,118.8382,218.7162,124.609,222.38,130.82" style="stroke:#181818;stroke-width:1;stroke-linejoin:miter;stroke-miterlimit:10;"/><polygon fill="#181818" points="221.02,71.6,218.0631,80.9945,221.5852,76.5679,226.0118,80.0901,221.02,71.6" style="stroke:#181818;stroke-width:1;stroke-linejoin:miter;stroke-miterlimit:10;"/></g><?plantuml-src TP0_JyD03CNtV0ghNOfGAX7eAKgh3bH238M5YT6vyu7Lv1pT7Gpy-UwaIPf85DPd-_VUSpYmQz1Z3Rh24E0p0RX5VNZnykRCJYhnC3T8kTN7YNX3Vb2LpgcqhNedBZvYJJ1xOEqbY8tmZFV4is7un1y4LrdodOJHpacalzsijPa-SpEgL2lL8X9saRn5JR2JkX57BfwErXKxAlhL3duf3NcCB6vnKS2xi6a9VTCzeMsnAyhDJN-NP-MrKiEuOmTkGmxr-vs-TCTEzIjNnfChOCyXRiOqswCn6hCObPFtFu6c7fklvR9BzbiRuoHJC4dJxVI37m00?></g></svg>