<svg xmlns="http://www.w3.org/2000/svg" xmlns:xlink="http://www.w3.org/1999/xlink" contentStyleType="text/css" data-diagram-type="CLASS" height="334px" preserveAspectRatio="none" style="width:462px;height:334px;background:#FFFFFF;" version="1.1" viewBox="0 0 462 334" width="462px" zoomAndPan="magnify"><?plantuml 1.2026.6?><defs/><g><!--class Component--><g class="entity" data-qualified-name="Component" data-source-line="12" id="ent0001"><rect fill="#FFF2CC" height="64.2969" rx="2.5" ry="2.5" style="stroke:#D6B656;stroke-width:0.5;" width="142.9355" x="224.53" y="7"/><ellipse cx="258.1004" cy="23" fill="#B4A7E5" rx="11" ry="11" style="stroke:#181818;stroke-width:1;"/><path d="M254.0223,18.7656 L254.0223,16.6094 L261.4129,16.6094 L261.4129,18.7656 L258.9442,18.7656 L258.9442,26.8438 L261.4129,26.8438 L261.4129,29 L254.0223,29 L254.0223,26.8438 L256.491,26.8438 L256.491,18.7656 L254.0223,18.7656 Z " fill="#000000"/><text fill="#000000" font-family="'Microsoft YaHei'" font-size="12" font-style="italic" lengthAdjust="spacing" textLength="69.668" x="276.2272" y="27.1543">Component</text><line style="stroke:#D6B656;stroke-width:0.5;" x1="225.53" x2="366.4655" y1="39" y2="39"/><line style="stroke:#D6B656;stroke-width:0.5;" x1="225.53" x2="366.4655" y1="47" y2="47"/><g data-visibility-modifier="PUBLIC_METHOD"><ellipse cx="235.53" cy="60.6484" fill="#84BE84" rx="3" ry="3" style="stroke:#038048;stroke-width:1;"/></g><text fill="#000000" font-family="sans-serif" font-size="14" lengthAdjust="spacing" textLength="116.9355" x="244.53" y="63.9951">operation(): void</text></g><!--class ConcreteComponent--><g class="entity" data-qualified-name="ConcreteComponent" data-source-line="15" id="ent0002"><rect fill="#D5E8D4" height="48" rx="2.5" ry="2.5" style="stroke:#82B366;stroke-width:0.5;" width="155.9961" x="7" y="147.59"/><ellipse cx="22" cy="163.59" fill="#ADD1B2" rx="11" ry="11" style="stroke:#181818;stroke-width:1;"/><path d="M24.9688,169.2306 Q24.3906,169.5275 23.75,169.6681 Q23.1094,169.8244 22.4063,169.8244 Q19.9063,169.8244 18.5781,168.1837 Q17.2656,166.5275 17.2656,163.4025 Q17.2656,160.2775 18.5781,158.6212 Q19.9063,156.965 22.4063,156.965 Q23.1094,156.965 23.75,157.1212 Q24.4063,157.2775 24.9688,157.5744 L24.9688,160.2931 Q24.3438,159.715 23.75,159.4494 Q23.1563,159.1681 22.5313,159.1681 Q21.1875,159.1681 20.5,160.2462 Q19.8125,161.3087 19.8125,163.4025 Q19.8125,165.4962 20.5,166.5744 Q21.1875,167.6369 22.5313,167.6369 Q23.1563,167.6369 23.75,167.3712 Q24.3438,167.09 24.9688,166.5119 L24.9688,169.2306 Z " fill="#000000"/><text fill="#000000" font-family="'Microsoft YaHei'" font-size="12" lengthAdjust="spacing" textLength="123.9961" x="36" y="167.7443">ConcreteComponent</text><line style="stroke:#82B366;stroke-width:0.5;" x1="8" x2="161.9961" y1="179.59" y2="179.59"/><line style="stroke:#82B366;stroke-width:0.5;" x1="8" x2="161.9961" y1="187.59" y2="187.59"/></g><!--class Decorator--><g class="entity" data-qualified-name="Decorator" data-source-line="16" id="ent0003"><rect fill="#DAE8FC" height="80.5938" rx="2.5" ry="2.5" style="stroke:#6C8EBF;stroke-width:0.5;" width="195.6475" x="198.17" y="131.3"/><ellipse cx="261.8287" cy="147.3" fill="#A9DCDF" rx="11" ry="11" style="stroke:#181818;stroke-width:1;"/><path d="M261.9381,142.6437 L260.7818,147.7219 L263.1099,147.7219 L261.9381,142.6437 Z M260.4537,140.4094 L263.4381,140.4094 L266.7974,152.8 L264.3443,152.8 L263.5787,149.7375 L260.2974,149.7375 L259.5474,152.8 L257.1099,152.8 L260.4537,140.4094 Z " fill="#000000"/><text fill="#000000" font-family="'Microsoft YaHei'" font-size="12" font-style="italic" lengthAdjust="spacing" textLength="59.8301" x="282.3287" y="151.4543">Decorator</text><line style="stroke:#6C8EBF;stroke-width:0.5;" x1="199.17" x2="392.8175" y1="163.3" y2="163.3"/><g data-visibility-modifier="PRIVATE_FIELD"><rect fill="none" height="6" style="stroke:#C82930;stroke-width:1;" width="6" x="206.17" y="173.9484"/></g><text fill="#000000" font-family="sans-serif" font-size="14" lengthAdjust="spacing" textLength="169.6475" x="218.17" y="180.2951">component: Component</text><line style="stroke:#6C8EBF;stroke-width:0.5;" x1="199.17" x2="392.8175" y1="187.5969" y2="187.5969"/><g data-visibility-modifier="PUBLIC_METHOD"><ellipse cx="209.17" cy="201.2453" fill="#84BE84" rx="3" ry="3" style="stroke:#038048;stroke-width:1;"/></g><text fill="#000000" font-family="sans-serif" font-size="14" lengthAdjust="spacing" textLength="116.9355" x="218.17" y="204.592">operation(): void</text></g><!--class LoggingDecorator--><g class="entity" data-qualified-name="LoggingDecorator" data-source-line="20" id="ent0004"><rect fill="#DAE8FC" height="48" rx="2.5" ry="2.5" style="stroke:#6C8EBF;stroke-width:0.5;" width="139.6484" x="140.17" y="271.89"/><ellipse cx="155.17" cy="287.89" fill="#ADD1B2" rx="11" ry="11" style="stroke:#181818;stroke-width:1;"/><path d="M158.1388,293.5306 Q157.5606,293.8275 156.92,293.9681 Q156.2794,294.1244 155.5763,294.1244 Q153.0763,294.1244 151.7481,292.4838 Q150.4356,290.8275 150.4356,287.7025 Q150.4356,284.5775 151.7481,282.9213 Q153.0763,281.265 155.5763,281.265 Q156.2794,281.265 156.92,281.4213 Q157.5763,281.5775 158.1388,281.8744 L158.1388,284.5931 Q157.5138,284.015 156.92,283.7494 Q156.3263,283.4681 155.7013,283.4681 Q154.3575,283.4681 153.67,284.5463 Q152.9825,285.6088 152.9825,287.7025 Q152.9825,289.7963 153.67,290.8744 Q154.3575,291.9369 155.7013,291.9369 Q156.3263,291.9369 156.92,291.6713 Q157.5138,291.39 158.1388,290.8119 L158.1388,293.5306 Z " fill="#000000"/><text fill="#000000" font-family="'Microsoft YaHei'" font-size="12" lengthAdjust="spacing" textLength="107.6484" x="169.17" y="292.0443">LoggingDecorator</text><line style="stroke:#6C8EBF;stroke-width:0.5;" x1="141.17" x2="278.8184" y1="303.89" y2="303.89"/><line style="stroke:#6C8EBF;stroke-width:0.5;" x1="141.17" x2="278.8184" y1="311.89" y2="311.89"/></g><!--class TimingDecorator--><g class="entity" data-qualified-name="TimingDecorator" data-source-line="21" id="ent0005"><rect fill="#DAE8FC" height="48" rx="2.5" ry="2.5" style="stroke:#6C8EBF;stroke-width:0.5;" width="132.7402" x="314.63" y="271.89"/><ellipse cx="329.63" cy="287.89" fill="#ADD1B2" rx="11" ry="11" style="stroke:#181818;stroke-width:1;"/><path d="M332.5988,293.5306 Q332.0206,293.8275 331.38,293.9681 Q330.7394,294.1244 330.0363,294.1244 Q327.5363,294.1244 326.2081,292.4838 Q324.8956,290.8275 324.8956,287.7025 Q324.8956,284.5775 326.2081,282.9213 Q327.5363,281.265 330.0363,281.265 Q330.7394,281.265 331.38,281.4213 Q332.0363,281.5775 332.5988,281.8744 L332.5988,284.5931 Q331.9738,284.015 331.38,283.7494 Q330.7863,283.4681 330.1613,283.4681 Q328.8175,283.4681 328.13,284.5463 Q327.4425,285.6088 327.4425,287.7025 Q327.4425,289.7963 328.13,290.8744 Q328.8175,291.9369 330.1613,291.9369 Q330.7863,291.9369 331.38,291.6713 Q331.9738,291.39 332.5988,290.8119 L332.5988,293.5306 Z " fill="#000000"/><text fill="#000000" font-family="'Microsoft YaHei'" font-size="12" lengthAdjust="spacing" textLength="100.7402" x="343.63" y="292.0443">TimingDecorator</text><line style="stroke:#6C8EBF;stroke-width:0.5;" x1="315.63" x2="446.3702" y1="303.89" y2="303.89"/><line style="stroke:#6C8EBF;stroke-width:0.5;" x1="315.63" x2="446.3702" y1="311.89" y2="311.89"/></g><!--reverse link Component to ConcreteComponent--><g class="link" data-entity-1="ent0001" data-entity-2="ent0002" data-link-type="extension" data-source-line="23" id="lnk6"><path codeLine="23" d="M229.6094,81.185 C191.9194,104.485 156.79,126.21 122.71,147.28" fill="none" id="Component-backto-ConcreteComponent" style="stroke:#181818;stroke-width:1;stroke-dasharray:7,7;"/><polygon fill="none" points="244.92,71.72,226.4544,76.0815,232.7644,86.2885,244.92,71.72" style="stroke:#181818;stroke-width:1;stroke-linejoin:miter;stroke-miterlimit:10;"/></g><!--reverse link Component to Decorator--><g class="link" data-entity-1="ent0001" data-entity-2="ent0003" data-link-type="extension" data-source-line="24" id="lnk7"><path codeLine="24" d="M282.59,89.6108 C280.62,107.4108 282.35,111.92 283.81,130.89" fill="none" id="Component-backto-Decorator" style="stroke:#181818;stroke-width:1;stroke-dasharray:7,7;"/><polygon fill="none" points="284.57,71.72,276.6264,88.9507,288.5535,90.2708,284.57,71.72" style="stroke:#181818;stroke-width:1;stroke-linejoin:miter;stroke-miterlimit:10;"/></g><!--link Decorator to Component--><g class="link" data-entity-1="ent0003" data-entity-2="ent0001" data-link-type="aggregation" data-source-line="25" id="lnk8"><path codeLine="25" d="M309.1108,118.9254 C310.5708,99.9554 309.95,94.4897 307.98,76.6897" fill="none" id="Decorator-Component" style="stroke:#181818;stroke-width:1;"/><polygon fill="none" points="308.19,130.89,312.6386,125.2146,309.1108,118.9254,304.6622,124.6007,308.19,130.89" style="stroke:#181818;stroke-width:1;stroke-linejoin:miter;stroke-miterlimit:10;"/><polygon fill="#181818" points="307.43,71.72,304.4443,81.1054,307.98,76.6897,312.3957,80.2254,307.43,71.72" style="stroke:#181818;stroke-width:1;stroke-linejoin:miter;stroke-miterlimit:10;"/></g><!--reverse link Decorator to LoggingDecorator--><g class="link" data-entity-1="ent0003" data-entity-2="ent0004" data-link-type="extension" data-source-line="26" id="lnk9"><path codeLine="26" d="M257.7228,227.0217 C243.9828,246.5517 238.26,254.7 226.51,271.41" fill="none" id="Decorator-backto-LoggingDecorator" style="stroke:#181818;stroke-width:1;"/><polygon fill="none" points="268.08,212.3,252.8156,223.5693,262.63,230.4741,268.08,212.3" style="stroke:#181818;stroke-width:1;stroke-linejoin:miter;stroke-miterlimit:10;"/></g><!--reverse link Decorator to TimingDecorator--><g class="link" data-entity-1="ent0003" data-entity-2="ent0005" data-link-type="extension" data-source-line="27" id="lnk10"><path codeLine="27" d="M333.871,227.082 C347.441,246.612 353.06,254.7 364.68,271.41" fill="none" id="Decorator-backto-TimingDecorator" style="stroke:#181818;stroke-width:1;"/><polygon fill="none" points="323.6,212.3,328.9436,230.5057,338.7983,223.6583,323.6,212.3" style="stroke:#181818;stroke-width:1;stroke-linejoin:miter;stroke-miterlimit:10;"/></g><?plantuml-src VP0nJyCm48Lt_mghNK0ebGZKYjAAWI3402omC3hdSsGryKMsOO3otmbDMhS9Odtlxdllpc-CRQMJ3OTQUi-_6EUt4ZQLetUh2gh9yRcIc6duTSWfT8Cg8CDIT-ezsV0i6-Ip9mEEFEd0t-G3cjbWlfXFv9Sf-sR-46SfuDzfMkiK9cbAb68fEWGpDg3J4f0NrBHaqORzqges5lD-T0U_e1QT38RisNdEFyYeZj1VMf05Xm6F86g9cRhk8LbQNWd1PEc3an26zzmXKCUBJ-c7-rVi4XFOy_BOx_ycZrHLnbO7zY2_ckP4PR7fUhjOJ0yO3yJLM9kIvEQeLpJMsoIPDXdveqe_?></g></svg>