<svg xmlns="http://www.w3.org/2000/svg" xmlns:xlink="http://www.w3.org/1999/xlink" contentStyleType="text/css" data-diagram-type="CLASS" height="243px" preserveAspectRatio="none" style="width:411px;height:243px;background:#FFFFFF;" version="1.1" viewBox="0 0 411 243" width="411px" zoomAndPan="magnify"><?plantuml 1.2026.6?><defs/><g><!--class Facade--><g class="entity" data-qualified-name="Facade" data-source-line="12" id="ent0001"><rect fill="#D5E8D4" height="113.1875" rx="2.5" ry="2.5" style="stroke:#82B366;stroke-width:0.5;" width="184.4434" x="108.99" y="7"/><ellipse cx="175.3582" cy="23" fill="#ADD1B2" rx="11" ry="11" style="stroke:#181818;stroke-width:1;"/><path d="M178.3269,28.6406 Q177.7488,28.9375 177.1082,29.0781 Q176.4675,29.2344 175.7644,29.2344 Q173.2644,29.2344 171.9363,27.5938 Q170.6238,25.9375 170.6238,22.8125 Q170.6238,19.6875 171.9363,18.0313 Q173.2644,16.375 175.7644,16.375 Q176.4675,16.375 177.1082,16.5313 Q177.7644,16.6875 178.3269,16.9844 L178.3269,19.7031 Q177.7019,19.125 177.1082,18.8594 Q176.5144,18.5781 175.8894,18.5781 Q174.5457,18.5781 173.8582,19.6563 Q173.1707,20.7188 173.1707,22.8125 Q173.1707,24.9063 173.8582,25.9844 Q174.5457,27.0469 175.8894,27.0469 Q176.5144,27.0469 177.1082,26.7813 Q177.7019,26.5 178.3269,25.9219 L178.3269,28.6406 Z " fill="#000000"/><text fill="#000000" font-family="'Microsoft YaHei'" font-size="12" lengthAdjust="spacing" textLength="43.207" x="195.8582" y="27.1543">Facade</text><line style="stroke:#82B366;stroke-width:0.5;" x1="109.99" x2="292.4334" y1="39" y2="39"/><g data-visibility-modifier="PRIVATE_FIELD"><rect fill="none" height="6" style="stroke:#C82930;stroke-width:1;" width="6" x="116.99" y="49.6484"/></g><text fill="#000000" font-family="sans-serif" font-size="14" lengthAdjust="spacing" textLength="158.0469" x="128.99" y="55.9951">moduleA: SubsystemA</text><g data-visibility-modifier="PRIVATE_FIELD"><rect fill="none" height="6" style="stroke:#C82930;stroke-width:1;" width="6" x="116.99" y="65.9453"/></g><text fill="#000000" font-family="sans-serif" font-size="14" lengthAdjust="spacing" textLength="158.1016" x="128.99" y="72.292">moduleB: SubsystemB</text><g data-visibility-modifier="PRIVATE_FIELD"><rect fill="none" height="6" style="stroke:#C82930;stroke-width:1;" width="6" x="116.99" y="82.2422"/></g><text fill="#000000" font-family="sans-serif" font-size="14" lengthAdjust="spacing" textLength="158.4434" x="128.99" y="88.5889">moduleC: SubsystemC</text><line style="stroke:#82B366;stroke-width:0.5;" x1="109.99" x2="292.4334" y1="95.8906" y2="95.8906"/><g data-visibility-modifier="PUBLIC_METHOD"><ellipse cx="119.99" cy="109.5391" fill="#84BE84" rx="3" ry="3" style="stroke:#038048;stroke-width:1;"/></g><text fill="#000000" font-family="sans-serif" font-size="14" lengthAdjust="spacing" textLength="105.9023" x="128.99" y="112.8857">execute(): void</text></g><!--class SubsystemA--><g class="entity" data-qualified-name="SubsystemA" data-source-line="18" id="ent0002"><rect fill="#DAE8FC" height="48" rx="2.5" ry="2.5" style="stroke:#6C8EBF;stroke-width:0.5;" width="106.4316" x="7" y="180.19"/><ellipse cx="22" cy="196.19" fill="#ADD1B2" rx="11" ry="11" style="stroke:#181818;stroke-width:1;"/><path d="M24.9688,201.8306 Q24.3906,202.1275 23.75,202.2681 Q23.1094,202.4244 22.4063,202.4244 Q19.9063,202.4244 18.5781,200.7838 Q17.2656,199.1275 17.2656,196.0025 Q17.2656,192.8775 18.5781,191.2213 Q19.9063,189.565 22.4063,189.565 Q23.1094,189.565 23.75,189.7213 Q24.4063,189.8775 24.9688,190.1744 L24.9688,192.8931 Q24.3438,192.315 23.75,192.0494 Q23.1563,191.7681 22.5313,191.7681 Q21.1875,191.7681 20.5,192.8463 Q19.8125,193.9088 19.8125,196.0025 Q19.8125,198.0963 20.5,199.1744 Q21.1875,200.2369 22.5313,200.2369 Q23.1563,200.2369 23.75,199.9713 Q24.3438,199.69 24.9688,199.1119 L24.9688,201.8306 Z " fill="#000000"/><text fill="#000000" font-family="'Microsoft YaHei'" font-size="12" lengthAdjust="spacing" textLength="74.4316" x="36" y="200.3443">SubsystemA</text><line style="stroke:#6C8EBF;stroke-width:0.5;" x1="8" x2="112.4316" y1="212.19" y2="212.19"/><line style="stroke:#6C8EBF;stroke-width:0.5;" x1="8" x2="112.4316" y1="220.19" y2="220.19"/></g><!--class SubsystemB--><g class="entity" data-qualified-name="SubsystemB" data-source-line="19" id="ent0003"><rect fill="#DAE8FC" height="48" rx="2.5" ry="2.5" style="stroke:#6C8EBF;stroke-width:0.5;" width="106.4551" x="147.99" y="180.19"/><ellipse cx="162.99" cy="196.19" fill="#ADD1B2" rx="11" ry="11" style="stroke:#181818;stroke-width:1;"/><path d="M165.9588,201.8306 Q165.3806,202.1275 164.74,202.2681 Q164.0994,202.4244 163.3963,202.4244 Q160.8963,202.4244 159.5681,200.7838 Q158.2556,199.1275 158.2556,196.0025 Q158.2556,192.8775 159.5681,191.2213 Q160.8963,189.565 163.3963,189.565 Q164.0994,189.565 164.74,189.7213 Q165.3963,189.8775 165.9588,190.1744 L165.9588,192.8931 Q165.3338,192.315 164.74,192.0494 Q164.1463,191.7681 163.5213,191.7681 Q162.1775,191.7681 161.49,192.8463 Q160.8025,193.9088 160.8025,196.0025 Q160.8025,198.0963 161.49,199.1744 Q162.1775,200.2369 163.5213,200.2369 Q164.1463,200.2369 164.74,199.9713 Q165.3338,199.69 165.9588,199.1119 L165.9588,201.8306 Z " fill="#000000"/><text fill="#000000" font-family="'Microsoft YaHei'" font-size="12" lengthAdjust="spacing" textLength="74.4551" x="176.99" y="200.3443">SubsystemB</text><line style="stroke:#6C8EBF;stroke-width:0.5;" x1="148.99" x2="253.4451" y1="212.19" y2="212.19"/><line style="stroke:#6C8EBF;stroke-width:0.5;" x1="148.99" x2="253.4451" y1="220.19" y2="220.19"/></g><!--class SubsystemC--><g class="entity" data-qualified-name="SubsystemC" data-source-line="20" id="ent0004"><rect fill="#DAE8FC" height="48" rx="2.5" ry="2.5" style="stroke:#6C8EBF;stroke-width:0.5;" width="106.6016" x="289.92" y="180.19"/><ellipse cx="304.92" cy="196.19" fill="#ADD1B2" rx="11" ry="11" style="stroke:#181818;stroke-width:1;"/><path d="M307.8888,201.8306 Q307.3106,202.1275 306.67,202.2681 Q306.0294,202.4244 305.3263,202.4244 Q302.8263,202.4244 301.4981,200.7838 Q300.1856,199.1275 300.1856,196.0025 Q300.1856,192.8775 301.4981,191.2213 Q302.8263,189.565 305.3263,189.565 Q306.0294,189.565 306.67,189.7213 Q307.3263,189.8775 307.8888,190.1744 L307.8888,192.8931 Q307.2638,192.315 306.67,192.0494 Q306.0763,191.7681 305.4513,191.7681 Q304.1075,191.7681 303.42,192.8463 Q302.7325,193.9088 302.7325,196.0025 Q302.7325,198.0963 303.42,199.1744 Q304.1075,200.2369 305.4513,200.2369 Q306.0763,200.2369 306.67,199.9713 Q307.2638,199.69 307.8888,199.1119 L307.8888,201.8306 Z " fill="#000000"/><text fill="#000000" font-family="'Microsoft YaHei'" font-size="12" lengthAdjust="spacing" textLength="74.6016" x="318.92" y="200.3443">SubsystemC</text><line style="stroke:#6C8EBF;stroke-width:0.5;" x1="290.92" x2="395.5216" y1="212.19" y2="212.19"/><line style="stroke:#6C8EBF;stroke-width:0.5;" x1="290.92" x2="395.5216" y1="220.19" y2="220.19"/></g><!--link Facade to SubsystemA--><g class="link" data-entity-1="ent0001" data-entity-2="ent0002" data-link-type="dependency" data-source-line="22" id="lnk5"><path codeLine="22" d="M144.27,120.57 C123.18,141.3 103.9656,160.1848 87.4456,176.4248" fill="none" id="Facade-to-SubsystemA" style="stroke:#181818;stroke-width:1;"/><polygon fill="#181818" points="83.88,179.93,93.1023,176.4732,87.4456,176.4248,87.494,170.7682,83.88,179.93" style="stroke:#181818;stroke-width:1;stroke-linejoin:miter;stroke-miterlimit:10;"/></g><!--link Facade to SubsystemB--><g class="link" data-entity-1="ent0001" data-entity-2="ent0003" data-link-type="dependency" data-source-line="23" id="lnk6"><path codeLine="23" d="M201.22,120.57 C201.22,141.3 201.22,158.69 201.22,174.93" fill="none" id="Facade-to-SubsystemB" style="stroke:#181818;stroke-width:1;"/><polygon fill="#181818" points="201.22,179.93,205.22,170.93,201.22,174.93,197.22,170.93,201.22,179.93" style="stroke:#181818;stroke-width:1;stroke-linejoin:miter;stroke-miterlimit:10;"/></g><!--link Facade to SubsystemC--><g class="link" data-entity-1="ent0001" data-entity-2="ent0004" data-link-type="dependency" data-source-line="24" id="lnk7"><path codeLine="24" d="M258.56,120.57 C279.81,141.3 299.1728,160.1967 315.8028,176.4367" fill="none" id="Facade-to-SubsystemC" style="stroke:#181818;stroke-width:1;"/><polygon fill="#181818" points="319.38,179.93,315.7357,170.7802,315.8028,176.4367,310.1463,176.5038,319.38,179.93" style="stroke:#181818;stroke-width:1;stroke-linejoin:miter;stroke-miterlimit:10;"/></g><?plantuml-src RSvFIyGm40NmUpx5i5uKwS7gXb91s0GMBthPayTfCf6mRKQILFo3tzte5hUilVuUyzwalGyl6740qsDAy2a059hzS-GnMCqzHpYpI8qpFmb7It5IQHhgND4jX_o80y7gmPl8YLs69xmdlvh2dVyWkAh5bqX_Su4pBQyvvshpRytAJgvbgH27HxTeq5BnDJNsvhRtWTgcxgwb_6sj1hPZJviMTcENtbEcONDaDMDrP3rZNVYItiYCcSulMdXbRylwONpMUGBg5BGGqwjLTJS_N5ArgFeR?></g></svg>