<svg xmlns="http://www.w3.org/2000/svg" xmlns:xlink="http://www.w3.org/1999/xlink" contentStyleType="text/css" data-diagram-type="CLASS" height="351px" preserveAspectRatio="none" style="width:269px;height:351px;background:#FFFFFF;" version="1.1" viewBox="0 0 269 351" width="269px" zoomAndPan="magnify"><?plantuml 1.2026.6?><defs/><g><!--class FlyweightFactory--><g class="entity" data-qualified-name="FlyweightFactory" data-source-line="12" id="ent0001"><rect fill="#D5E8D4" height="80.5938" rx="2.5" ry="2.5" style="stroke:#82B366;stroke-width:0.5;" width="247.7441" x="7" y="7"/><ellipse cx="75.2559" cy="23" fill="#ADD1B2" rx="11" ry="11" style="stroke:#181818;stroke-width:1;"/><path d="M78.2246,28.6406 Q77.6465,28.9375 77.0059,29.0781 Q76.3652,29.2344 75.6621,29.2344 Q73.1621,29.2344 71.834,27.5938 Q70.5215,25.9375 70.5215,22.8125 Q70.5215,19.6875 71.834,18.0313 Q73.1621,16.375 75.6621,16.375 Q76.3652,16.375 77.0059,16.5313 Q77.6621,16.6875 78.2246,16.9844 L78.2246,19.7031 Q77.5996,19.125 77.0059,18.8594 Q76.4121,18.5781 75.7871,18.5781 Q74.4434,18.5781 73.7559,19.6563 Q73.0684,20.7188 73.0684,22.8125 Q73.0684,24.9063 73.7559,25.9844 Q74.4434,27.0469 75.7871,27.0469 Q76.4121,27.0469 77.0059,26.7813 Q77.5996,26.5 78.2246,25.9219 L78.2246,28.6406 Z " fill="#000000"/><text fill="#000000" font-family="'Microsoft YaHei'" font-size="12" lengthAdjust="spacing" textLength="102.7324" x="95.7559" y="27.1543">FlyweightFactory</text><line style="stroke:#82B366;stroke-width:0.5;" x1="8" x2="253.7441" y1="39" y2="39"/><g data-visibility-modifier="PRIVATE_FIELD"><rect fill="none" height="6" style="stroke:#C82930;stroke-width:1;" width="6" x="15" y="49.6484"/></g><text fill="#000000" font-family="sans-serif" font-size="14" lengthAdjust="spacing" textLength="221.7441" x="27" y="55.9951">cache: Map&lt;String, Flyweight&gt;</text><line style="stroke:#82B366;stroke-width:0.5;" x1="8" x2="253.7441" y1="63.2969" y2="63.2969"/><g data-visibility-modifier="PUBLIC_METHOD"><ellipse cx="18" cy="76.9453" fill="#84BE84" rx="3" ry="3" style="stroke:#038048;stroke-width:1;"/></g><text fill="#000000" font-family="sans-serif" font-size="14" lengthAdjust="spacing" textLength="135.5156" x="27" y="80.292">get(key): Flyweight</text></g><!--class Flyweight--><g class="entity" data-qualified-name="Flyweight" data-source-line="16" id="ent0002"><rect fill="#FFF2CC" height="64.2969" rx="2.5" ry="2.5" style="stroke:#D6B656;stroke-width:0.5;" width="238.0918" x="11.83" y="147.6"/><ellipse cx="97.7275" cy="163.6" fill="#B4A7E5" rx="11" ry="11" style="stroke:#181818;stroke-width:1;"/><path d="M93.6493,159.3656 L93.6493,157.2094 L101.04,157.2094 L101.04,159.3656 L98.5712,159.3656 L98.5712,167.4438 L101.04,167.4438 L101.04,169.6 L93.6493,169.6 L93.6493,167.4438 L96.1181,167.4438 L96.1181,159.3656 L93.6493,159.3656 Z " fill="#000000"/><text fill="#000000" font-family="'Microsoft YaHei'" font-size="12" font-style="italic" lengthAdjust="spacing" textLength="57.7969" x="118.2275" y="167.7543">Flyweight</text><line style="stroke:#D6B656;stroke-width:0.5;" x1="12.83" x2="248.9218" y1="179.6" y2="179.6"/><line style="stroke:#D6B656;stroke-width:0.5;" x1="12.83" x2="248.9218" y1="187.6" y2="187.6"/><g data-visibility-modifier="PUBLIC_METHOD"><ellipse cx="22.83" cy="201.2484" fill="#84BE84" rx="3" ry="3" style="stroke:#038048;stroke-width:1;"/></g><text fill="#000000" font-family="sans-serif" font-size="14" lengthAdjust="spacing" textLength="212.0918" x="31.83" y="204.5951">operation(externalState): void</text></g><!--class ConcreteFlyweight--><g class="entity" data-qualified-name="ConcreteFlyweight" data-source-line="19" id="ent0003"><rect fill="#DAE8FC" height="64.2969" rx="2.5" ry="2.5" style="stroke:#6C8EBF;stroke-width:0.5;" width="169.6572" x="46.04" y="271.89"/><ellipse cx="72.5295" cy="287.89" fill="#ADD1B2" rx="11" ry="11" style="stroke:#181818;stroke-width:1;"/><path d="M75.4983,293.5306 Q74.9201,293.8275 74.2795,293.9681 Q73.6389,294.1244 72.9358,294.1244 Q70.4358,294.1244 69.1076,292.4838 Q67.7951,290.8275 67.7951,287.7025 Q67.7951,284.5775 69.1076,282.9213 Q70.4358,281.265 72.9358,281.265 Q73.6389,281.265 74.2795,281.4213 Q74.9358,281.5775 75.4983,281.8744 L75.4983,284.5931 Q74.8733,284.015 74.2795,283.7494 Q73.6858,283.4681 73.0608,283.4681 Q71.717,283.4681 71.0295,284.5463 Q70.342,285.6088 70.342,287.7025 Q70.342,289.7963 71.0295,290.8744 Q71.717,291.9369 73.0608,291.9369 Q73.6858,291.9369 74.2795,291.6713 Q74.8733,291.39 75.4983,290.8119 L75.4983,293.5306 Z " fill="#000000"/><text fill="#000000" font-family="'Microsoft YaHei'" font-size="12" lengthAdjust="spacing" textLength="112.125" x="89.0827" y="292.0443">ConcreteFlyweight</text><line style="stroke:#6C8EBF;stroke-width:0.5;" x1="47.04" x2="214.6972" y1="303.89" y2="303.89"/><g data-visibility-modifier="PRIVATE_FIELD"><rect fill="none" height="6" style="stroke:#C82930;stroke-width:1;" width="6" x="54.04" y="314.5384"/></g><text fill="#000000" font-family="sans-serif" font-size="14" lengthAdjust="spacing" textLength="143.6572" x="66.04" y="320.8851">intrinsicState: String</text><line style="stroke:#6C8EBF;stroke-width:0.5;" x1="47.04" x2="214.6972" y1="328.1869" y2="328.1869"/></g><!--link FlyweightFactory to Flyweight--><g class="link" data-entity-1="ent0001" data-entity-2="ent0002" data-link-type="aggregation" data-source-line="22" id="lnk4"><path codeLine="22" d="M130.87,99.79 C130.87,118.84 130.87,124.37 130.87,142.24" fill="none" id="FlyweightFactory-Flyweight" style="stroke:#181818;stroke-width:1;"/><polygon fill="none" points="130.87,87.79,126.87,93.79,130.87,99.79,134.87,93.79,130.87,87.79" style="stroke:#181818;stroke-width:1;stroke-linejoin:miter;stroke-miterlimit:10;"/><polygon fill="#181818" points="130.87,147.24,134.87,138.24,130.87,142.24,126.87,138.24,130.87,147.24" style="stroke:#181818;stroke-width:1;stroke-linejoin:miter;stroke-miterlimit:10;"/></g><!--reverse link Flyweight to ConcreteFlyweight--><g class="link" data-entity-1="ent0002" data-entity-2="ent0003" data-link-type="extension" data-source-line="23" id="lnk5"><path codeLine="23" d="M130.87,230.24 C130.87,248.5 130.87,253.41 130.87,271.65" fill="none" id="Flyweight-backto-ConcreteFlyweight" style="stroke:#181818;stroke-width:1;stroke-dasharray:7,7;"/><polygon fill="none" points="130.87,212.24,124.87,230.24,136.87,230.24,130.87,212.24" style="stroke:#181818;stroke-width:1;stroke-linejoin:miter;stroke-miterlimit:10;"/></g><?plantuml-src RP3BJiCm44Nt-GghR8fAAX6e5OMg2of5RCecAvOJUvnQIJsHRHxXyU-Okf1AONl7S-xnk5QR7YmScEZ0EVQHC7OFecqiFHkvfOuikv20kH8_4x8IxIdb8iTQXRGaun_XW6osqyAI8-NP4poWdfs6bNv7TfqbNudxgpFayVysfLGc9csIrtp50oA9ecKtlA9kzhu4uSaEuSKAStbxrsc3HPxLDvmV-Qa0iSU2xQ1VLzvgqroDovlmOD6WdxSuN1PZ7dgqyMWL21pJNxVO4OsE7GlgqOBNPERu5jOCT9K7Zm7vGbe6MfJUaX4MFPuHusqZCLuqMeVwuEgqE88A5jK3QV9nIjFDcVd8NdykbzFARm00?></g></svg>