<svg xmlns="http://www.w3.org/2000/svg" xmlns:xlink="http://www.w3.org/1999/xlink" contentStyleType="text/css" data-diagram-type="CLASS" height="334px" preserveAspectRatio="none" style="width:234px;height:334px;background:#FFFFFF;" version="1.1" viewBox="0 0 234 334" width="234px" zoomAndPan="magnify"><?plantuml 1.2026.6?><defs/><g><!--class Subject--><g class="entity" data-qualified-name="Subject" data-source-line="12" id="ent0001"><rect fill="#FFF2CC" height="64.2969" rx="2.5" ry="2.5" style="stroke:#D6B656;stroke-width:0.5;" width="129.2432" x="7" y="7"/><ellipse cx="45.5727" cy="23" fill="#B4A7E5" rx="11" ry="11" style="stroke:#181818;stroke-width:1;"/><path d="M41.4946,18.7656 L41.4946,16.6094 L48.8852,16.6094 L48.8852,18.7656 L46.4165,18.7656 L46.4165,26.8438 L48.8852,26.8438 L48.8852,29 L41.4946,29 L41.4946,26.8438 L43.9633,26.8438 L43.9633,18.7656 L41.4946,18.7656 Z " fill="#000000"/><text fill="#000000" font-family="'Microsoft YaHei'" font-size="12" font-style="italic" lengthAdjust="spacing" textLength="44.8594" x="64.8111" y="27.1543">Subject</text><line style="stroke:#D6B656;stroke-width:0.5;" x1="8" x2="135.2432" y1="39" y2="39"/><line style="stroke:#D6B656;stroke-width:0.5;" x1="8" x2="135.2432" y1="47" y2="47"/><g data-visibility-modifier="PUBLIC_METHOD"><ellipse cx="18" cy="60.6484" fill="#84BE84" rx="3" ry="3" style="stroke:#038048;stroke-width:1;"/></g><text fill="#000000" font-family="sans-serif" font-size="14" lengthAdjust="spacing" textLength="103.2432" x="27" y="63.9951">request(): void</text></g><!--class RealSubject--><g class="entity" data-qualified-name="RealSubject" data-source-line="15" id="ent0002"><rect fill="#D5E8D4" height="48" rx="2.5" ry="2.5" style="stroke:#82B366;stroke-width:0.5;" width="103.2676" x="19.99" y="271.89"/><ellipse cx="34.99" cy="287.89" fill="#ADD1B2" rx="11" ry="11" style="stroke:#181818;stroke-width:1;"/><path d="M37.9588,293.5306 Q37.3806,293.8275 36.74,293.9681 Q36.0994,294.1244 35.3963,294.1244 Q32.8963,294.1244 31.5681,292.4838 Q30.2556,290.8275 30.2556,287.7025 Q30.2556,284.5775 31.5681,282.9213 Q32.8963,281.265 35.3963,281.265 Q36.0994,281.265 36.74,281.4213 Q37.3963,281.5775 37.9588,281.8744 L37.9588,284.5931 Q37.3338,284.015 36.74,283.7494 Q36.1463,283.4681 35.5213,283.4681 Q34.1775,283.4681 33.49,284.5463 Q32.8025,285.6088 32.8025,287.7025 Q32.8025,289.7963 33.49,290.8744 Q34.1775,291.9369 35.5213,291.9369 Q36.1463,291.9369 36.74,291.6713 Q37.3338,291.39 37.9588,290.8119 L37.9588,293.5306 Z " fill="#000000"/><text fill="#000000" font-family="'Microsoft YaHei'" font-size="12" lengthAdjust="spacing" textLength="71.2676" x="48.99" y="292.0443">RealSubject</text><line style="stroke:#82B366;stroke-width:0.5;" x1="20.99" x2="122.2576" y1="303.89" y2="303.89"/><line style="stroke:#82B366;stroke-width:0.5;" x1="20.99" x2="122.2576" y1="311.89" y2="311.89"/></g><!--class ProxySubject--><g class="entity" data-qualified-name="ProxySubject" data-source-line="16" id="ent0003"><rect fill="#DAE8FC" height="80.5938" rx="2.5" ry="2.5" style="stroke:#6C8EBF;stroke-width:0.5;" width="161.126" x="58.06" y="131.3"/><ellipse cx="95.8083" cy="147.3" fill="#ADD1B2" rx="11" ry="11" style="stroke:#181818;stroke-width:1;"/><path d="M98.777,152.9406 Q98.1989,153.2375 97.5583,153.3781 Q96.9177,153.5344 96.2145,153.5344 Q93.7145,153.5344 92.3864,151.8937 Q91.0739,150.2375 91.0739,147.1125 Q91.0739,143.9875 92.3864,142.3312 Q93.7145,140.675 96.2145,140.675 Q96.9177,140.675 97.5583,140.8312 Q98.2145,140.9875 98.777,141.2844 L98.777,144.0031 Q98.152,143.425 97.5583,143.1594 Q96.9645,142.8781 96.3395,142.8781 Q94.9958,142.8781 94.3083,143.9562 Q93.6208,145.0187 93.6208,147.1125 Q93.6208,149.2062 94.3083,150.2844 Q94.9958,151.3469 96.3395,151.3469 Q96.9645,151.3469 97.5583,151.0812 Q98.152,150.8 98.777,150.2219 L98.777,152.9406 Z " fill="#000000"/><text fill="#000000" font-family="'Microsoft YaHei'" font-size="12" lengthAdjust="spacing" textLength="78.5742" x="114.8635" y="151.4543">ProxySubject</text><line style="stroke:#6C8EBF;stroke-width:0.5;" x1="59.06" x2="218.186" y1="163.3" y2="163.3"/><g data-visibility-modifier="PRIVATE_FIELD"><rect fill="none" height="6" style="stroke:#C82930;stroke-width:1;" width="6" x="66.06" y="173.9484"/></g><text fill="#000000" font-family="sans-serif" font-size="14" lengthAdjust="spacing" textLength="135.126" x="78.06" y="180.2951">target: RealSubject</text><line style="stroke:#6C8EBF;stroke-width:0.5;" x1="59.06" x2="218.186" y1="187.5969" y2="187.5969"/><g data-visibility-modifier="PUBLIC_METHOD"><ellipse cx="69.06" cy="201.2453" fill="#84BE84" rx="3" ry="3" style="stroke:#038048;stroke-width:1;"/></g><text fill="#000000" font-family="sans-serif" font-size="14" lengthAdjust="spacing" textLength="103.2432" x="78.06" y="204.592">request(): void</text></g><!--reverse link Subject to RealSubject--><g class="link" data-entity-1="ent0001" data-entity-2="ent0002" data-link-type="extension" data-source-line="20" id="lnk4"><path codeLine="20" d="M51.5711,88.3281 C44.8611,105.5981 44,110.85 40.62,131.3 C34.78,166.64 34.25,176.64 40.62,211.89 C44.4,232.78 53.11,255.27 60.34,271.56" fill="none" id="Subject-backto-RealSubject" style="stroke:#181818;stroke-width:1;stroke-dasharray:7,7;"/><polygon fill="none" points="58.09,71.55,45.9784,86.1551,57.1638,90.501,58.09,71.55" style="stroke:#181818;stroke-width:1;stroke-linejoin:miter;stroke-miterlimit:10;"/></g><!--reverse link Subject to ProxySubject--><g class="link" data-entity-1="ent0001" data-entity-2="ent0003" data-link-type="extension" data-source-line="21" id="lnk5"><path codeLine="21" d="M96.0621,87.7324 C105.2021,105.5324 108.48,111.92 118.23,130.89" fill="none" id="Subject-backto-ProxySubject" style="stroke:#181818;stroke-width:1;stroke-dasharray:7,7;"/><polygon fill="none" points="87.84,71.72,90.7246,90.4731,101.3996,84.9917,87.84,71.72" style="stroke:#181818;stroke-width:1;stroke-linejoin:miter;stroke-miterlimit:10;"/></g><!--link ProxySubject to RealSubject--><g class="link" data-entity-1="ent0003" data-entity-2="ent0002" data-link-type="dependency" data-source-line="22" id="lnk6"><path codeLine="22" d="M116.87,212.3 C106.17,231.83 96.0434,250.3155 86.8834,267.0255" fill="none" id="ProxySubject-to-RealSubject" style="stroke:#181818;stroke-width:1;"/><polygon fill="#181818" points="84.48,271.41,92.3138,265.4407,86.8834,267.0255,85.2986,261.5952,84.48,271.41" style="stroke:#181818;stroke-width:1;stroke-linejoin:miter;stroke-miterlimit:10;"/></g><?plantuml-src RP1DJyCm38Rl-HNMk81G9r5OL9M90qY82mYn4qStSQPiNG9EYlZyxvIcsrgngz-FntPOM_U2Z1jGDOO0NmBW6jLwoRvn-iRNdk588nL6_IcUDN4_bQgWohJJM-_Y0su89lTMiG_UH7Z6ExAJNbpOJuApNFo8iCCv7-ampHYJgtyqBIivass5i2uI6rG4YwPQaOhRo6Lj7PN9s5MVChqs5EBnIGbltkesdQvy8gntOJsZGb-aS95NvrBshaVsxnzxM_U4P4kdTumi8YyfbiFEm-Xjq_nxEXsvHy8GAaORPDdLCFOB?></g></svg>