<svg xmlns="http://www.w3.org/2000/svg" xmlns:xlink="http://www.w3.org/1999/xlink" contentStyleType="text/css" data-diagram-type="CLASS" height="227px" preserveAspectRatio="none" style="width:616px;height:227px;background:#FFFFFF;" version="1.1" viewBox="0 0 616 227" width="616px" zoomAndPan="magnify"><?plantuml 1.2026.6?><defs/><g><!--class Request--><g class="entity" data-qualified-name="Request" data-source-line="12" id="ent0001"><rect fill="#FFF2CC" height="48" rx="2.5" ry="2.5" style="stroke:#D6B656;stroke-width:0.5;" width="81.2832" x="7" y="164.89"/><ellipse cx="22" cy="180.89" fill="#ADD1B2" rx="11" ry="11" style="stroke:#181818;stroke-width:1;"/><path d="M24.9688,186.5306 Q24.3906,186.8275 23.75,186.9681 Q23.1094,187.1244 22.4063,187.1244 Q19.9063,187.1244 18.5781,185.4838 Q17.2656,183.8275 17.2656,180.7025 Q17.2656,177.5775 18.5781,175.9213 Q19.9063,174.265 22.4063,174.265 Q23.1094,174.265 23.75,174.4213 Q24.4063,174.5775 24.9688,174.8744 L24.9688,177.5931 Q24.3438,177.015 23.75,176.7494 Q23.1563,176.4681 22.5313,176.4681 Q21.1875,176.4681 20.5,177.5463 Q19.8125,178.6088 19.8125,180.7025 Q19.8125,182.7963 20.5,183.8744 Q21.1875,184.9369 22.5313,184.9369 Q23.1563,184.9369 23.75,184.6713 Q24.3438,184.39 24.9688,183.8119 L24.9688,186.5306 Z " fill="#000000"/><text fill="#000000" font-family="'Microsoft YaHei'" font-size="12" lengthAdjust="spacing" textLength="49.2832" x="36" y="185.0443">Request</text><line style="stroke:#D6B656;stroke-width:0.5;" x1="8" x2="87.2832" y1="196.89" y2="196.89"/><line style="stroke:#D6B656;stroke-width:0.5;" x1="8" x2="87.2832" y1="204.89" y2="204.89"/></g><!--class Handler--><g class="entity" data-qualified-name="Handler" data-source-line="13" id="ent0002"><rect fill="#DAE8FC" height="96.8906" rx="2.5" ry="2.5" style="stroke:#6C8EBF;stroke-width:0.5;" width="210.5977" x="172.34" y="7"/><ellipse cx="249.7638" cy="23" fill="#A9DCDF" rx="11" ry="11" style="stroke:#181818;stroke-width:1;"/><path d="M249.8732,18.3438 L248.717,23.4219 L251.0451,23.4219 L249.8732,18.3438 Z M248.3888,16.1094 L251.3732,16.1094 L254.7326,28.5 L252.2795,28.5 L251.5138,25.4375 L248.2326,25.4375 L247.4826,28.5 L245.0451,28.5 L248.3888,16.1094 Z " fill="#000000"/><text fill="#000000" font-family="'Microsoft YaHei'" font-size="12" font-style="italic" lengthAdjust="spacing" textLength="47.25" x="270.2638" y="27.1543">Handler</text><line style="stroke:#6C8EBF;stroke-width:0.5;" x1="173.34" x2="381.9377" y1="39" y2="39"/><g data-visibility-modifier="PRIVATE_FIELD"><rect fill="none" height="6" style="stroke:#C82930;stroke-width:1;" width="6" x="180.34" y="49.6484"/></g><text fill="#000000" font-family="sans-serif" font-size="14" lengthAdjust="spacing" textLength="95.5527" x="192.34" y="55.9951">next: Handler</text><line style="stroke:#6C8EBF;stroke-width:0.5;" x1="173.34" x2="381.9377" y1="63.2969" y2="63.2969"/><g data-visibility-modifier="PUBLIC_METHOD"><ellipse cx="183.34" cy="76.9453" fill="#84BE84" rx="3" ry="3" style="stroke:#038048;stroke-width:1;"/></g><text fill="#000000" font-family="sans-serif" font-size="14" lengthAdjust="spacing" textLength="184.5977" x="192.34" y="80.292">setNext(Handler): Handler</text><g data-visibility-modifier="PUBLIC_METHOD"><ellipse cx="183.34" cy="93.2422" fill="#84BE84" rx="3" ry="3" style="stroke:#038048;stroke-width:1;"/></g><text fill="#000000" font-family="sans-serif" font-size="14" lengthAdjust="spacing" textLength="154.9297" x="192.34" y="96.5889">handle(Request): void</text></g><!--class ValidationHandler--><g class="entity" data-qualified-name="ValidationHandler" data-source-line="18" id="ent0003"><rect fill="#DAE8FC" height="48" rx="2.5" ry="2.5" style="stroke:#6C8EBF;stroke-width:0.5;" width="139.4375" x="122.92" y="164.89"/><ellipse cx="137.92" cy="180.89" fill="#ADD1B2" rx="11" ry="11" style="stroke:#181818;stroke-width:1;"/><path d="M140.8888,186.5306 Q140.3106,186.8275 139.67,186.9681 Q139.0294,187.1244 138.3263,187.1244 Q135.8263,187.1244 134.4981,185.4838 Q133.1856,183.8275 133.1856,180.7025 Q133.1856,177.5775 134.4981,175.9213 Q135.8263,174.265 138.3263,174.265 Q139.0294,174.265 139.67,174.4213 Q140.3263,174.5775 140.8888,174.8744 L140.8888,177.5931 Q140.2638,177.015 139.67,176.7494 Q139.0763,176.4681 138.4513,176.4681 Q137.1075,176.4681 136.42,177.5463 Q135.7325,178.6088 135.7325,180.7025 Q135.7325,182.7963 136.42,183.8744 Q137.1075,184.9369 138.4513,184.9369 Q139.0763,184.9369 139.67,184.6713 Q140.2638,184.39 140.8888,183.8119 L140.8888,186.5306 Z " fill="#000000"/><text fill="#000000" font-family="'Microsoft YaHei'" font-size="12" lengthAdjust="spacing" textLength="107.4375" x="151.92" y="185.0443">ValidationHandler</text><line style="stroke:#6C8EBF;stroke-width:0.5;" x1="123.92" x2="261.3575" y1="196.89" y2="196.89"/><line style="stroke:#6C8EBF;stroke-width:0.5;" x1="123.92" x2="261.3575" y1="204.89" y2="204.89"/></g><!--class MappingHandler--><g class="entity" data-qualified-name="MappingHandler" data-source-line="19" id="ent0004"><rect fill="#DAE8FC" height="48" rx="2.5" ry="2.5" style="stroke:#6C8EBF;stroke-width:0.5;" width="130.748" x="297.27" y="164.89"/><ellipse cx="312.27" cy="180.89" fill="#ADD1B2" rx="11" ry="11" style="stroke:#181818;stroke-width:1;"/><path d="M315.2388,186.5306 Q314.6606,186.8275 314.02,186.9681 Q313.3794,187.1244 312.6763,187.1244 Q310.1763,187.1244 308.8481,185.4838 Q307.5356,183.8275 307.5356,180.7025 Q307.5356,177.5775 308.8481,175.9213 Q310.1763,174.265 312.6763,174.265 Q313.3794,174.265 314.02,174.4213 Q314.6763,174.5775 315.2388,174.8744 L315.2388,177.5931 Q314.6138,177.015 314.02,176.7494 Q313.4263,176.4681 312.8013,176.4681 Q311.4575,176.4681 310.77,177.5463 Q310.0825,178.6088 310.0825,180.7025 Q310.0825,182.7963 310.77,183.8744 Q311.4575,184.9369 312.8013,184.9369 Q313.4263,184.9369 314.02,184.6713 Q314.6138,184.39 315.2388,183.8119 L315.2388,186.5306 Z " fill="#000000"/><text fill="#000000" font-family="'Microsoft YaHei'" font-size="12" lengthAdjust="spacing" textLength="98.748" x="326.27" y="185.0443">MappingHandler</text><line style="stroke:#6C8EBF;stroke-width:0.5;" x1="298.27" x2="427.018" y1="196.89" y2="196.89"/><line style="stroke:#6C8EBF;stroke-width:0.5;" x1="298.27" x2="427.018" y1="204.89" y2="204.89"/></g><!--class ExecutionHandler--><g class="entity" data-qualified-name="ExecutionHandler" data-source-line="20" id="ent0005"><rect fill="#DAE8FC" height="48" rx="2.5" ry="2.5" style="stroke:#6C8EBF;stroke-width:0.5;" width="138.5059" x="463.39" y="164.89"/><ellipse cx="478.39" cy="180.89" fill="#ADD1B2" rx="11" ry="11" style="stroke:#181818;stroke-width:1;"/><path d="M481.3588,186.5306 Q480.7806,186.8275 480.14,186.9681 Q479.4994,187.1244 478.7963,187.1244 Q476.2963,187.1244 474.9681,185.4838 Q473.6556,183.8275 473.6556,180.7025 Q473.6556,177.5775 474.9681,175.9213 Q476.2963,174.265 478.7963,174.265 Q479.4994,174.265 480.14,174.4213 Q480.7963,174.5775 481.3588,174.8744 L481.3588,177.5931 Q480.7338,177.015 480.14,176.7494 Q479.5463,176.4681 478.9213,176.4681 Q477.5775,176.4681 476.89,177.5463 Q476.2025,178.6088 476.2025,180.7025 Q476.2025,182.7963 476.89,183.8744 Q477.5775,184.9369 478.9213,184.9369 Q479.5463,184.9369 480.14,184.6713 Q480.7338,184.39 481.3588,183.8119 L481.3588,186.5306 Z " fill="#000000"/><text fill="#000000" font-family="'Microsoft YaHei'" font-size="12" lengthAdjust="spacing" textLength="106.5059" x="492.39" y="185.0443">ExecutionHandler</text><line style="stroke:#6C8EBF;stroke-width:0.5;" x1="464.39" x2="600.8959" y1="196.89" y2="196.89"/><line style="stroke:#6C8EBF;stroke-width:0.5;" x1="464.39" x2="600.8959" y1="204.89" y2="204.89"/></g><!--link Handler to Handler--><g class="link" data-entity-1="ent0002" data-entity-2="ent0002" data-link-type="dependency" data-source-line="22" id="lnk6"><path codeLine="22" d="M383.18,41.33 C403.53,42.99 417.94,47.7 417.94,55.44 C417.94,63.19 408.5134,67.4935 388.1634,69.1535" fill="none" id="Handler-to-Handler" style="stroke:#181818;stroke-width:1;"/><polygon fill="#181818" points="383.18,69.56,392.4754,72.815,388.1634,69.1535,391.825,64.8415,383.18,69.56" style="stroke:#181818;stroke-width:1;stroke-linejoin:miter;stroke-miterlimit:10;"/><text fill="#000000" font-family="sans-serif" font-size="13" lengthAdjust="spacing" textLength="29.0278" x="423.94" y="60.0069">next</text></g><!--reverse link Handler to ValidationHandler--><g class="link" data-entity-1="ent0002" data-entity-2="ent0003" data-link-type="extension" data-source-line="23" id="lnk7"><path codeLine="23" d="M236.9351,119.3846 C223.6451,139.9346 218.5,147.91 207.7,164.6" fill="none" id="Handler-backto-ValidationHandler" style="stroke:#181818;stroke-width:1;"/><polygon fill="none" points="246.71,104.27,231.8969,116.1263,241.9733,122.6429,246.71,104.27" style="stroke:#181818;stroke-width:1;stroke-linejoin:miter;stroke-miterlimit:10;"/></g><!--reverse link Handler to MappingHandler--><g class="link" data-entity-1="ent0002" data-entity-2="ent0004" data-link-type="extension" data-source-line="24" id="lnk8"><path codeLine="24" d="M318.3449,119.3846 C331.6349,139.9346 336.79,147.91 347.58,164.6" fill="none" id="Handler-backto-MappingHandler" style="stroke:#181818;stroke-width:1;"/><polygon fill="none" points="308.57,104.27,313.3067,122.6429,323.3831,116.1263,308.57,104.27" style="stroke:#181818;stroke-width:1;stroke-linejoin:miter;stroke-miterlimit:10;"/></g><!--reverse link Handler to ExecutionHandler--><g class="link" data-entity-1="ent0002" data-entity-2="ent0005" data-link-type="extension" data-source-line="25" id="lnk9"><path codeLine="25" d="M386.4194,112.5174 C426.1494,132.9974 454.75,147.74 487.12,164.42" fill="none" id="Handler-backto-ExecutionHandler" style="stroke:#181818;stroke-width:1;"/><polygon fill="none" points="370.42,104.27,383.6703,117.8505,389.1685,107.1842,370.42,104.27" style="stroke:#181818;stroke-width:1;stroke-linejoin:miter;stroke-miterlimit:10;"/></g><!--link Handler to Request--><g class="link" data-entity-1="ent0002" data-entity-2="ent0001" data-link-type="dependency" data-source-line="26" id="lnk10"><path codeLine="26" d="M193.96,104.27 C158.12,124.75 122.2312,145.2593 93.0412,161.9393" fill="none" id="Handler-to-Request" style="stroke:#181818;stroke-width:1;stroke-dasharray:7,7;"/><polygon fill="#181818" points="88.7,164.42,98.4987,163.4277,93.0412,161.9393,94.5296,156.4818,88.7,164.42" style="stroke:#181818;stroke-width:1;stroke-linejoin:miter;stroke-miterlimit:10;"/></g><?plantuml-src RP1DImCn54Nt-HMXRYgIWWM7CaeNYj9Dkr0GNBv9Ncfecen9HeeV_zsqIOQExIxSSoVtPFn6cHOSR2dNu3tz9fJU0z-idUsCUB3QEdeX06UIxubr0brEApx3HiRqoPgmWYtIqL9nPxsLWRx10jKemnVrXVHwIdw9x-UC3NX-JKevvIThecggcofUGPBeCtvqw4EftsfbiCubQ7nmm4D-qmACqDY_8rMJ_S606To5kjHYSEKnh68spj7b0BuVZkCi4DcdLIAAfR5Nq4f0KDQKJrA-XBPLPZqC7tV8k-CkAQwCpNllcku5UtJtmzYPcG7-jpPW9wE5JYRpybl_0000?></g></svg>