<svg xmlns="http://www.w3.org/2000/svg" xmlns:xlink="http://www.w3.org/1999/xlink" contentStyleType="text/css" data-diagram-type="CLASS" height="491px" preserveAspectRatio="none" style="width:198px;height:491px;background:#FFFFFF;" version="1.1" viewBox="0 0 198 491" width="198px" zoomAndPan="magnify"><?plantuml 1.2026.6?><defs/><g><!--class Command--><g class="entity" data-qualified-name="Command" data-source-line="12" id="ent0001"><rect fill="#FFF2CC" height="80.5938" rx="2.5" ry="2.5" style="stroke:#D6B656;stroke-width:0.5;" width="131.9023" x="29.55" y="147.59"/><ellipse cx="61.752" cy="163.59" fill="#B4A7E5" rx="11" ry="11" style="stroke:#181818;stroke-width:1;"/><path d="M57.6738,159.3556 L57.6738,157.1994 L65.0645,157.1994 L65.0645,159.3556 L62.5957,159.3556 L62.5957,167.4337 L65.0645,167.4337 L65.0645,169.59 L57.6738,169.59 L57.6738,167.4337 L60.1426,167.4337 L60.1426,159.3556 L57.6738,159.3556 Z " fill="#000000"/><text fill="#000000" font-family="'Microsoft YaHei'" font-size="12" font-style="italic" lengthAdjust="spacing" textLength="61.6758" x="79.5746" y="167.7443">Command</text><line style="stroke:#D6B656;stroke-width:0.5;" x1="30.55" x2="160.4523" y1="179.59" y2="179.59"/><line style="stroke:#D6B656;stroke-width:0.5;" x1="30.55" x2="160.4523" y1="187.59" y2="187.59"/><g data-visibility-modifier="PUBLIC_METHOD"><ellipse cx="40.55" cy="201.2384" fill="#84BE84" rx="3" ry="3" style="stroke:#038048;stroke-width:1;"/></g><text fill="#000000" font-family="sans-serif" font-size="14" lengthAdjust="spacing" textLength="105.9023" x="49.55" y="204.5851">execute(): void</text><g data-visibility-modifier="PUBLIC_METHOD"><ellipse cx="40.55" cy="217.5353" fill="#84BE84" rx="3" ry="3" style="stroke:#038048;stroke-width:1;"/></g><text fill="#000000" font-family="sans-serif" font-size="14" lengthAdjust="spacing" textLength="84.916" x="49.55" y="220.882">undo(): void</text></g><!--class ConcreteCommand--><g class="entity" data-qualified-name="ConcreteCommand" data-source-line="16" id="ent0002"><rect fill="#D5E8D4" height="64.2969" rx="2.5" ry="2.5" style="stroke:#82B366;stroke-width:0.5;" width="153.5859" x="18.71" y="288.19"/><ellipse cx="36.2219" cy="304.19" fill="#ADD1B2" rx="11" ry="11" style="stroke:#181818;stroke-width:1;"/><path d="M39.1907,309.8306 Q38.6125,310.1275 37.9719,310.2681 Q37.3313,310.4244 36.6282,310.4244 Q34.1282,310.4244 32.8,308.7837 Q31.4875,307.1275 31.4875,304.0025 Q31.4875,300.8775 32.8,299.2212 Q34.1282,297.565 36.6282,297.565 Q37.3313,297.565 37.9719,297.7212 Q38.6282,297.8775 39.1907,298.1744 L39.1907,300.8931 Q38.5657,300.315 37.9719,300.0494 Q37.3782,299.7681 36.7532,299.7681 Q35.4094,299.7681 34.7219,300.8462 Q34.0344,301.9087 34.0344,304.0025 Q34.0344,306.0962 34.7219,307.1744 Q35.4094,308.2369 36.7532,308.2369 Q37.3782,308.2369 37.9719,307.9712 Q38.5657,307.69 39.1907,307.1119 L39.1907,309.8306 Z " fill="#000000"/><text fill="#000000" font-family="'Microsoft YaHei'" font-size="12" lengthAdjust="spacing" textLength="116.0039" x="50.7801" y="308.3443">ConcreteCommand</text><line style="stroke:#82B366;stroke-width:0.5;" x1="19.71" x2="171.2959" y1="320.19" y2="320.19"/><g data-visibility-modifier="PRIVATE_FIELD"><rect fill="none" height="6" style="stroke:#C82930;stroke-width:1;" width="6" x="26.71" y="330.8384"/></g><text fill="#000000" font-family="sans-serif" font-size="14" lengthAdjust="spacing" textLength="127.5859" x="38.71" y="337.1851">receiver: Receiver</text><line style="stroke:#82B366;stroke-width:0.5;" x1="19.71" x2="171.2959" y1="344.4869" y2="344.4869"/></g><!--class Receiver--><g class="entity" data-qualified-name="Receiver" data-source-line="19" id="ent0003"><rect fill="#DAE8FC" height="64.2969" rx="2.5" ry="2.5" style="stroke:#6C8EBF;stroke-width:0.5;" width="118.8115" x="36.09" y="412.48"/><ellipse cx="66.5513" cy="428.48" fill="#ADD1B2" rx="11" ry="11" style="stroke:#181818;stroke-width:1;"/><path d="M69.52,434.1206 Q68.9419,434.4175 68.3013,434.5581 Q67.6607,434.7144 66.9575,434.7144 Q64.4575,434.7144 63.1294,433.0737 Q61.8169,431.4175 61.8169,428.2925 Q61.8169,425.1675 63.1294,423.5112 Q64.4575,421.855 66.9575,421.855 Q67.6607,421.855 68.3013,422.0112 Q68.9575,422.1675 69.52,422.4644 L69.52,425.1831 Q68.895,424.605 68.3013,424.3394 Q67.7075,424.0581 67.0825,424.0581 Q65.7388,424.0581 65.0513,425.1362 Q64.3638,426.1987 64.3638,428.2925 Q64.3638,430.3862 65.0513,431.4644 Q65.7388,432.5269 67.0825,432.5269 Q67.7075,432.5269 68.3013,432.2612 Q68.895,431.98 69.52,431.4019 L69.52,434.1206 Z " fill="#000000"/><text fill="#000000" font-family="'Microsoft YaHei'" font-size="12" lengthAdjust="spacing" textLength="52.4531" x="83.9871" y="432.6343">Receiver</text><line style="stroke:#6C8EBF;stroke-width:0.5;" x1="37.09" x2="153.9015" y1="444.48" y2="444.48"/><line style="stroke:#6C8EBF;stroke-width:0.5;" x1="37.09" x2="153.9015" y1="452.48" y2="452.48"/><g data-visibility-modifier="PUBLIC_METHOD"><ellipse cx="47.09" cy="466.1284" fill="#84BE84" rx="3" ry="3" style="stroke:#038048;stroke-width:1;"/></g><text fill="#000000" font-family="sans-serif" font-size="14" lengthAdjust="spacing" textLength="92.8115" x="56.09" y="469.4751">action(): void</text></g><!--class Invoker--><g class="entity" data-qualified-name="Invoker" data-source-line="22" id="ent0004"><rect fill="#DAE8FC" height="80.5938" rx="2.5" ry="2.5" style="stroke:#6C8EBF;stroke-width:0.5;" width="176.999" x="7" y="7"/><ellipse cx="68.8228" cy="23" fill="#ADD1B2" rx="11" ry="11" style="stroke:#181818;stroke-width:1;"/><path d="M71.7915,28.6406 Q71.2134,28.9375 70.5728,29.0781 Q69.9321,29.2344 69.229,29.2344 Q66.729,29.2344 65.4009,27.5938 Q64.0884,25.9375 64.0884,22.8125 Q64.0884,19.6875 65.4009,18.0313 Q66.729,16.375 69.229,16.375 Q69.9321,16.375 70.5728,16.5313 Q71.229,16.6875 71.7915,16.9844 L71.7915,19.7031 Q71.1665,19.125 70.5728,18.8594 Q69.979,18.5781 69.354,18.5781 Q68.0103,18.5781 67.3228,19.6563 Q66.6353,20.7188 66.6353,22.8125 Q66.6353,24.9063 67.3228,25.9844 Q68.0103,27.0469 69.354,27.0469 Q69.979,27.0469 70.5728,26.7813 Q71.1665,26.5 71.7915,25.9219 L71.7915,28.6406 Z " fill="#000000"/><text fill="#000000" font-family="'Microsoft YaHei'" font-size="12" lengthAdjust="spacing" textLength="44.8535" x="89.3228" y="27.1543">Invoker</text><line style="stroke:#6C8EBF;stroke-width:0.5;" x1="8" x2="182.999" y1="39" y2="39"/><g data-visibility-modifier="PRIVATE_FIELD"><rect fill="none" height="6" style="stroke:#C82930;stroke-width:1;" width="6" x="15" y="49.6484"/></g><text fill="#000000" font-family="sans-serif" font-size="14" lengthAdjust="spacing" textLength="150.999" x="27" y="55.9951">command: Command</text><line style="stroke:#6C8EBF;stroke-width:0.5;" x1="8" x2="182.999" y1="63.2969" y2="63.2969"/><g data-visibility-modifier="PUBLIC_METHOD"><ellipse cx="18" cy="76.9453" fill="#84BE84" rx="3" ry="3" style="stroke:#038048;stroke-width:1;"/></g><text fill="#000000" font-family="sans-serif" font-size="14" lengthAdjust="spacing" textLength="97.7881" x="27" y="80.292">submit(): void</text></g><!--reverse link Command to ConcreteCommand--><g class="link" data-entity-1="ent0001" data-entity-2="ent0002" data-link-type="extension" data-source-line="26" id="lnk5"><path codeLine="26" d="M95.5,246.38 C95.5,265.43 95.5,269.96 95.5,287.83" fill="none" id="Command-backto-ConcreteCommand" style="stroke:#181818;stroke-width:1;stroke-dasharray:7,7;"/><polygon fill="none" points="95.5,228.38,89.5,246.38,101.5,246.38,95.5,228.38" style="stroke:#181818;stroke-width:1;stroke-linejoin:miter;stroke-miterlimit:10;"/></g><!--link ConcreteCommand to Receiver--><g class="link" data-entity-1="ent0002" data-entity-2="ent0003" data-link-type="dependency" data-source-line="27" id="lnk6"><path codeLine="27" d="M95.5,352.83 C95.5,371.09 95.5,389 95.5,407.24" fill="none" id="ConcreteCommand-to-Receiver" style="stroke:#181818;stroke-width:1;"/><polygon fill="#181818" points="95.5,412.24,99.5,403.24,95.5,407.24,91.5,403.24,95.5,412.24" style="stroke:#181818;stroke-width:1;stroke-linejoin:miter;stroke-miterlimit:10;"/></g><!--link Invoker to Command--><g class="link" data-entity-1="ent0004" data-entity-2="ent0001" data-link-type="dependency" data-source-line="28" id="lnk7"><path codeLine="28" d="M95.5,88.01 C95.5,106.57 95.5,123.61 95.5,142.17" fill="none" id="Invoker-to-Command" style="stroke:#181818;stroke-width:1;"/><polygon fill="#181818" points="95.5,147.17,99.5,138.17,95.5,142.17,91.5,138.17,95.5,147.17" style="stroke:#181818;stroke-width:1;stroke-linejoin:miter;stroke-miterlimit:10;"/></g><?plantuml-src VP11IyGm48Nl-HLXlIZI1QjRIXKF5aGFUj2JntGoaT0c8qbQHDt_RckQkkoAj-JDpFVcZM-rVHDE60wTy9v_Civl1BIlZdehQ-h8yICfi5GmLSX9TBDQG8cD6jLRik5H6EIh1msEFAd0NyGTwjLSVDOVoCzojcL-iRCKy6ytfLGE1swoQ8fDCIAOjW6T4e2y9cE4bMdaijCMgzZuWpx5TuG-uF59nGVISf967rh-MnPJrsJ1OS05A3TOoei8BFFcl8Z0p26W7j1L_6b-BOmaf7F5uNYak8s0eCaUcD_RWTf_vZA8MrKfxyJoVMDqs66brQ--rklzF6m_NvPT_mP8_fCuDtm3?></g></svg>