<svg xmlns="http://www.w3.org/2000/svg" xmlns:xlink="http://www.w3.org/1999/xlink" contentStyleType="text/css" data-diagram-type="CLASS" height="351px" preserveAspectRatio="none" style="width:416px;height:351px;background:#FFFFFF;" version="1.1" viewBox="0 0 416 351" width="416px" zoomAndPan="magnify"><?plantuml 1.2026.6?><defs/><g><!--class State--><g class="entity" data-qualified-name="State" data-source-line="12" id="ent0001"><rect fill="#FFF2CC" height="64.2969" rx="2.5" ry="2.5" style="stroke:#D6B656;stroke-width:0.5;" width="178.5234" x="106.22" y="163.89"/><ellipse cx="175.3499" cy="179.89" fill="#B4A7E5" rx="11" ry="11" style="stroke:#181818;stroke-width:1;"/><path d="M171.2718,175.6556 L171.2718,173.4994 L178.6624,173.4994 L178.6624,175.6556 L176.1936,175.6556 L176.1936,183.7338 L178.6624,183.7338 L178.6624,185.89 L171.2718,185.89 L171.2718,183.7338 L173.7405,183.7338 L173.7405,175.6556 L171.2718,175.6556 Z " fill="#000000"/><text fill="#000000" font-family="'Microsoft YaHei'" font-size="12" font-style="italic" lengthAdjust="spacing" textLength="31.7637" x="195.8499" y="184.0443">State</text><line style="stroke:#D6B656;stroke-width:0.5;" x1="107.22" x2="283.7434" y1="195.89" y2="195.89"/><line style="stroke:#D6B656;stroke-width:0.5;" x1="107.22" x2="283.7434" y1="203.89" y2="203.89"/><g data-visibility-modifier="PUBLIC_METHOD"><ellipse cx="117.22" cy="217.5384" fill="#84BE84" rx="3" ry="3" style="stroke:#038048;stroke-width:1;"/></g><text fill="#000000" font-family="sans-serif" font-size="14" lengthAdjust="spacing" textLength="152.5234" x="126.22" y="220.8851">handle(Context): void</text></g><!--class Context--><g class="entity" data-qualified-name="Context" data-source-line="15" id="ent0002"><rect fill="#DAE8FC" height="96.8906" rx="2.5" ry="2.5" style="stroke:#6C8EBF;stroke-width:0.5;" width="171.2295" x="109.87" y="7"/><ellipse cx="167.6244" cy="23" fill="#ADD1B2" rx="11" ry="11" style="stroke:#181818;stroke-width:1;"/><path d="M170.5931,28.6406 Q170.015,28.9375 169.3744,29.0781 Q168.7338,29.2344 168.0306,29.2344 Q165.5306,29.2344 164.2025,27.5938 Q162.89,25.9375 162.89,22.8125 Q162.89,19.6875 164.2025,18.0313 Q165.5306,16.375 168.0306,16.375 Q168.7338,16.375 169.3744,16.5313 Q170.0306,16.6875 170.5931,16.9844 L170.5931,19.7031 Q169.9681,19.125 169.3744,18.8594 Q168.7806,18.5781 168.1556,18.5781 Q166.8119,18.5781 166.1244,19.6563 Q165.4369,20.7188 165.4369,22.8125 Q165.4369,24.9063 166.1244,25.9844 Q166.8119,27.0469 168.1556,27.0469 Q168.7806,27.0469 169.3744,26.7813 Q169.9681,26.5 170.5931,25.9219 L170.5931,28.6406 Z " fill="#000000"/><text fill="#000000" font-family="'Microsoft YaHei'" font-size="12" lengthAdjust="spacing" textLength="47.2207" x="188.1244" y="27.1543">Context</text><line style="stroke:#6C8EBF;stroke-width:0.5;" x1="110.87" x2="280.0995" y1="39" y2="39"/><g data-visibility-modifier="PRIVATE_FIELD"><rect fill="none" height="6" style="stroke:#C82930;stroke-width:1;" width="6" x="117.87" y="49.6484"/></g><text fill="#000000" font-family="sans-serif" font-size="14" lengthAdjust="spacing" textLength="81.6895" x="129.87" y="55.9951">state: State</text><line style="stroke:#6C8EBF;stroke-width:0.5;" x1="110.87" x2="280.0995" y1="63.2969" y2="63.2969"/><g data-visibility-modifier="PUBLIC_METHOD"><ellipse cx="120.87" cy="76.9453" fill="#84BE84" rx="3" ry="3" style="stroke:#038048;stroke-width:1;"/></g><text fill="#000000" font-family="sans-serif" font-size="14" lengthAdjust="spacing" textLength="145.2295" x="129.87" y="80.292">setState(State): void</text><g data-visibility-modifier="PUBLIC_METHOD"><ellipse cx="120.87" cy="93.2422" fill="#84BE84" rx="3" ry="3" style="stroke:#038048;stroke-width:1;"/></g><text fill="#000000" font-family="sans-serif" font-size="14" lengthAdjust="spacing" textLength="103.2432" x="129.87" y="96.5889">request(): void</text></g><!--class InitialState--><g class="entity" data-qualified-name="InitialState" data-source-line="20" id="ent0003"><rect fill="#DAE8FC" height="48" rx="2.5" ry="2.5" style="stroke:#6C8EBF;stroke-width:0.5;" width="96.9688" x="7" y="288.19"/><ellipse cx="22" cy="304.19" fill="#ADD1B2" rx="11" ry="11" style="stroke:#181818;stroke-width:1;"/><path d="M24.9688,309.8306 Q24.3906,310.1275 23.75,310.2681 Q23.1094,310.4244 22.4063,310.4244 Q19.9063,310.4244 18.5781,308.7838 Q17.2656,307.1275 17.2656,304.0025 Q17.2656,300.8775 18.5781,299.2213 Q19.9063,297.565 22.4063,297.565 Q23.1094,297.565 23.75,297.7213 Q24.4063,297.8775 24.9688,298.1744 L24.9688,300.8931 Q24.3438,300.315 23.75,300.0494 Q23.1563,299.7681 22.5313,299.7681 Q21.1875,299.7681 20.5,300.8463 Q19.8125,301.9088 19.8125,304.0025 Q19.8125,306.0963 20.5,307.1744 Q21.1875,308.2369 22.5313,308.2369 Q23.1563,308.2369 23.75,307.9713 Q24.3438,307.69 24.9688,307.1119 L24.9688,309.8306 Z " fill="#000000"/><text fill="#000000" font-family="'Microsoft YaHei'" font-size="12" lengthAdjust="spacing" textLength="64.9688" x="36" y="308.3443">InitialState</text><line style="stroke:#6C8EBF;stroke-width:0.5;" x1="8" x2="102.9688" y1="320.19" y2="320.19"/><line style="stroke:#6C8EBF;stroke-width:0.5;" x1="8" x2="102.9688" y1="328.19" y2="328.19"/></g><!--class RunningState--><g class="entity" data-qualified-name="RunningState" data-source-line="21" id="ent0004"><rect fill="#DAE8FC" height="48" rx="2.5" ry="2.5" style="stroke:#6C8EBF;stroke-width:0.5;" width="113.4746" x="138.75" y="288.19"/><ellipse cx="153.75" cy="304.19" fill="#ADD1B2" rx="11" ry="11" style="stroke:#181818;stroke-width:1;"/><path d="M156.7188,309.8306 Q156.1406,310.1275 155.5,310.2681 Q154.8594,310.4244 154.1563,310.4244 Q151.6563,310.4244 150.3281,308.7838 Q149.0156,307.1275 149.0156,304.0025 Q149.0156,300.8775 150.3281,299.2213 Q151.6563,297.565 154.1563,297.565 Q154.8594,297.565 155.5,297.7213 Q156.1563,297.8775 156.7188,298.1744 L156.7188,300.8931 Q156.0938,300.315 155.5,300.0494 Q154.9063,299.7681 154.2813,299.7681 Q152.9375,299.7681 152.25,300.8463 Q151.5625,301.9088 151.5625,304.0025 Q151.5625,306.0963 152.25,307.1744 Q152.9375,308.2369 154.2813,308.2369 Q154.9063,308.2369 155.5,307.9713 Q156.0938,307.69 156.7188,307.1119 L156.7188,309.8306 Z " fill="#000000"/><text fill="#000000" font-family="'Microsoft YaHei'" font-size="12" lengthAdjust="spacing" textLength="81.4746" x="167.75" y="308.3443">RunningState</text><line style="stroke:#6C8EBF;stroke-width:0.5;" x1="139.75" x2="251.2246" y1="320.19" y2="320.19"/><line style="stroke:#6C8EBF;stroke-width:0.5;" x1="139.75" x2="251.2246" y1="328.19" y2="328.19"/></g><!--class FinishedState--><g class="entity" data-qualified-name="FinishedState" data-source-line="22" id="ent0005"><rect fill="#DAE8FC" height="48" rx="2.5" ry="2.5" style="stroke:#6C8EBF;stroke-width:0.5;" width="113.7969" x="287.59" y="288.19"/><ellipse cx="302.59" cy="304.19" fill="#ADD1B2" rx="11" ry="11" style="stroke:#181818;stroke-width:1;"/><path d="M305.5588,309.8306 Q304.9806,310.1275 304.34,310.2681 Q303.6994,310.4244 302.9963,310.4244 Q300.4963,310.4244 299.1681,308.7838 Q297.8556,307.1275 297.8556,304.0025 Q297.8556,300.8775 299.1681,299.2213 Q300.4963,297.565 302.9963,297.565 Q303.6994,297.565 304.34,297.7213 Q304.9963,297.8775 305.5588,298.1744 L305.5588,300.8931 Q304.9338,300.315 304.34,300.0494 Q303.7463,299.7681 303.1213,299.7681 Q301.7775,299.7681 301.09,300.8463 Q300.4025,301.9088 300.4025,304.0025 Q300.4025,306.0963 301.09,307.1744 Q301.7775,308.2369 303.1213,308.2369 Q303.7463,308.2369 304.34,307.9713 Q304.9338,307.69 305.5588,307.1119 L305.5588,309.8306 Z " fill="#000000"/><text fill="#000000" font-family="'Microsoft YaHei'" font-size="12" lengthAdjust="spacing" textLength="81.7969" x="316.59" y="308.3443">FinishedState</text><line style="stroke:#6C8EBF;stroke-width:0.5;" x1="288.59" x2="400.3869" y1="320.19" y2="320.19"/><line style="stroke:#6C8EBF;stroke-width:0.5;" x1="288.59" x2="400.3869" y1="328.19" y2="328.19"/></g><!--reverse link State to InitialState--><g class="link" data-entity-1="ent0001" data-entity-2="ent0003" data-link-type="extension" data-source-line="23" id="lnk6"><path codeLine="23" d="M142.908,239.9128 C119.918,258.6528 105.2,270.66 84.21,287.77" fill="none" id="State-backto-InitialState" style="stroke:#181818;stroke-width:1;stroke-dasharray:7,7;"/><polygon fill="none" points="156.86,228.54,139.117,235.2621,146.6989,244.5635,156.86,228.54" style="stroke:#181818;stroke-width:1;stroke-linejoin:miter;stroke-miterlimit:10;"/></g><!--reverse link State to RunningState--><g class="link" data-entity-1="ent0001" data-entity-2="ent0004" data-link-type="extension" data-source-line="24" id="lnk7"><path codeLine="24" d="M195.48,246.54 C195.48,265.28 195.48,270.66 195.48,287.77" fill="none" id="State-backto-RunningState" style="stroke:#181818;stroke-width:1;stroke-dasharray:7,7;"/><polygon fill="none" points="195.48,228.54,189.48,246.54,201.48,246.54,195.48,228.54" style="stroke:#181818;stroke-width:1;stroke-linejoin:miter;stroke-miterlimit:10;"/></g><!--reverse link State to FinishedState--><g class="link" data-entity-1="ent0001" data-entity-2="ent0005" data-link-type="extension" data-source-line="25" id="lnk8"><path codeLine="25" d="M250.8806,239.4843 C275.3506,258.2243 291.58,270.66 313.91,287.77" fill="none" id="State-backto-FinishedState" style="stroke:#181818;stroke-width:1;stroke-dasharray:7,7;"/><polygon fill="none" points="236.59,228.54,247.2326,244.2478,254.5287,234.7207,236.59,228.54" style="stroke:#181818;stroke-width:1;stroke-linejoin:miter;stroke-miterlimit:10;"/></g><!--link Context to State--><g class="link" data-entity-1="ent0002" data-entity-2="ent0001" data-link-type="dependency" data-source-line="26" id="lnk9"><path codeLine="26" d="M195.48,104.14 C195.48,123.88 195.48,141.2 195.48,158.79" fill="none" id="Context-to-State" style="stroke:#181818;stroke-width:1;"/><polygon fill="#181818" points="195.48,163.79,199.48,154.79,195.48,158.79,191.48,154.79,195.48,163.79" style="stroke:#181818;stroke-width:1;stroke-linejoin:miter;stroke-miterlimit:10;"/></g><?plantuml-src ROyzJyCm48Rt_8fJMO9GAb69g0g8WKeL333GYV5gdzjJqpFO3a9y_7USE449i5ZMSxxdzUiFBC_ey0YgHk_X8mEuGNNOETk8NjdQEZZHI4kZsebrcbnFIxMahObqRIKyu95WTi_AMMzDW2Uy9Pxrmms_4vmlig_C_yI93VH_cZ5ceVwawN9RNfHHaR44SWOLmIPWbFGBbpKBLUbP9pxRe-YQybNy0Rs5qmfUBUjeI4rxFBHBwwbJjrxurbwba5RdANJtl3i7NHmuUcd8X_ntmfrmOAoJ8A77HeHbDqPh5lPxqecbIbUVy_bqVSGdZX6VYePwHN6TAdm3?></g></svg>