<svg xmlns="http://www.w3.org/2000/svg" xmlns:xlink="http://www.w3.org/1999/xlink" contentStyleType="text/css" data-diagram-type="CLASS" height="334px" preserveAspectRatio="none" style="width:405px;height:334px;background:#FFFFFF;" version="1.1" viewBox="0 0 405 334" width="405px" zoomAndPan="magnify"><?plantuml 1.2026.6?><defs/><g><!--class Product--><g class="entity" data-qualified-name="Product" data-source-line="12" id="ent0001"><rect fill="#FFF2CC" height="64.2969" rx="2.5" ry="2.5" style="stroke:#D6B656;stroke-width:0.5;" width="142.9355" x="127.15" y="147.59"/><ellipse cx="171.3543" cy="163.59" fill="#B4A7E5" rx="11" ry="11" style="stroke:#181818;stroke-width:1;"/><path d="M167.2762,159.3556 L167.2762,157.1994 L174.6668,157.1994 L174.6668,159.3556 L172.198,159.3556 L172.198,167.4337 L174.6668,167.4337 L174.6668,169.59 L167.2762,169.59 L167.2762,167.4337 L169.7449,167.4337 L169.7449,159.3556 L167.2762,159.3556 Z " fill="#000000"/><text fill="#000000" font-family="'Microsoft YaHei'" font-size="12" font-style="italic" lengthAdjust="spacing" textLength="46.0371" x="191.8441" y="167.7443">Product</text><line style="stroke:#D6B656;stroke-width:0.5;" x1="128.15" x2="269.0855" y1="179.59" y2="179.59"/><line style="stroke:#D6B656;stroke-width:0.5;" x1="128.15" x2="269.0855" y1="187.59" y2="187.59"/><g data-visibility-modifier="PUBLIC_METHOD"><ellipse cx="138.15" cy="201.2384" fill="#84BE84" rx="3" ry="3" style="stroke:#038048;stroke-width:1;"/></g><text fill="#000000" font-family="sans-serif" font-size="14" lengthAdjust="spacing" textLength="116.9355" x="147.15" y="204.5851">operation(): void</text></g><!--class ConcreteProductA--><g class="entity" data-qualified-name="ConcreteProductA" data-source-line="15" id="ent0002"><rect fill="#D5E8D4" height="48" rx="2.5" ry="2.5" style="stroke:#82B366;stroke-width:0.5;" width="140.5742" x="40.33" y="271.89"/><ellipse cx="55.33" cy="287.89" fill="#ADD1B2" rx="11" ry="11" style="stroke:#181818;stroke-width:1;"/><path d="M58.2988,293.5306 Q57.7206,293.8275 57.08,293.9681 Q56.4394,294.1244 55.7363,294.1244 Q53.2363,294.1244 51.9081,292.4838 Q50.5956,290.8275 50.5956,287.7025 Q50.5956,284.5775 51.9081,282.9213 Q53.2363,281.265 55.7363,281.265 Q56.4394,281.265 57.08,281.4213 Q57.7363,281.5775 58.2988,281.8744 L58.2988,284.5931 Q57.6738,284.015 57.08,283.7494 Q56.4863,283.4681 55.8613,283.4681 Q54.5175,283.4681 53.83,284.5463 Q53.1425,285.6088 53.1425,287.7025 Q53.1425,289.7963 53.83,290.8744 Q54.5175,291.9369 55.8613,291.9369 Q56.4863,291.9369 57.08,291.6713 Q57.6738,291.39 58.2988,290.8119 L58.2988,293.5306 Z " fill="#000000"/><text fill="#000000" font-family="'Microsoft YaHei'" font-size="12" lengthAdjust="spacing" textLength="108.5742" x="69.33" y="292.0443">ConcreteProductA</text><line style="stroke:#82B366;stroke-width:0.5;" x1="41.33" x2="179.9042" y1="303.89" y2="303.89"/><line style="stroke:#82B366;stroke-width:0.5;" x1="41.33" x2="179.9042" y1="311.89" y2="311.89"/></g><!--class ConcreteProductB--><g class="entity" data-qualified-name="ConcreteProductB" data-source-line="16" id="ent0003"><rect fill="#D5E8D4" height="48" rx="2.5" ry="2.5" style="stroke:#82B366;stroke-width:0.5;" width="140.5977" x="246.32" y="271.89"/><ellipse cx="261.32" cy="287.89" fill="#ADD1B2" rx="11" ry="11" style="stroke:#181818;stroke-width:1;"/><path d="M264.2888,293.5306 Q263.7106,293.8275 263.07,293.9681 Q262.4294,294.1244 261.7263,294.1244 Q259.2263,294.1244 257.8981,292.4838 Q256.5856,290.8275 256.5856,287.7025 Q256.5856,284.5775 257.8981,282.9213 Q259.2263,281.265 261.7263,281.265 Q262.4294,281.265 263.07,281.4213 Q263.7263,281.5775 264.2888,281.8744 L264.2888,284.5931 Q263.6638,284.015 263.07,283.7494 Q262.4763,283.4681 261.8513,283.4681 Q260.5075,283.4681 259.82,284.5463 Q259.1325,285.6088 259.1325,287.7025 Q259.1325,289.7963 259.82,290.8744 Q260.5075,291.9369 261.8513,291.9369 Q262.4763,291.9369 263.07,291.6713 Q263.6638,291.39 264.2888,290.8119 L264.2888,293.5306 Z " fill="#000000"/><text fill="#000000" font-family="'Microsoft YaHei'" font-size="12" lengthAdjust="spacing" textLength="108.5977" x="275.32" y="292.0443">ConcreteProductB</text><line style="stroke:#82B366;stroke-width:0.5;" x1="247.32" x2="385.9177" y1="303.89" y2="303.89"/><line style="stroke:#82B366;stroke-width:0.5;" x1="247.32" x2="385.9177" y1="311.89" y2="311.89"/></g><!--class Creator--><g class="entity" data-qualified-name="Creator" data-source-line="17" id="ent0004"><rect fill="#DAE8FC" height="80.5938" rx="2.5" ry="2.5" style="stroke:#6C8EBF;stroke-width:0.5;" width="198.2588" x="99.49" y="7"/><ellipse cx="171.8547" cy="23" fill="#A9DCDF" rx="11" ry="11" style="stroke:#181818;stroke-width:1;"/><path d="M171.9641,18.3438 L170.8079,23.4219 L173.136,23.4219 L171.9641,18.3438 Z M170.4797,16.1094 L173.4641,16.1094 L176.8235,28.5 L174.3704,28.5 L173.6047,25.4375 L170.3235,25.4375 L169.5735,28.5 L167.136,28.5 L170.4797,16.1094 Z " fill="#000000"/><text fill="#000000" font-family="'Microsoft YaHei'" font-size="12" font-style="italic" lengthAdjust="spacing" textLength="45.0293" x="192.3547" y="27.1543">Creator</text><line style="stroke:#6C8EBF;stroke-width:0.5;" x1="100.49" x2="296.7488" y1="39" y2="39"/><line style="stroke:#6C8EBF;stroke-width:0.5;" x1="100.49" x2="296.7488" y1="47" y2="47"/><g data-visibility-modifier="PUBLIC_METHOD"><ellipse cx="110.49" cy="60.6484" fill="#84BE84" rx="3" ry="3" style="stroke:#038048;stroke-width:1;"/></g><text fill="#000000" font-family="sans-serif" font-size="14" lengthAdjust="spacing" textLength="172.2588" x="119.49" y="63.9951">createProduct(): Product</text><g data-visibility-modifier="PUBLIC_METHOD"><ellipse cx="110.49" cy="76.9453" fill="#84BE84" rx="3" ry="3" style="stroke:#038048;stroke-width:1;"/></g><text fill="#000000" font-family="sans-serif" font-size="14" lengthAdjust="spacing" textLength="73.2197" x="119.49" y="80.292">run(): void</text></g><!--class CreatorA--><g class="entity" data-qualified-name="CreatorA" data-source-line="21" id="ent0005"><rect fill="#DAE8FC" height="48" rx="2.5" ry="2.5" style="stroke:#6C8EBF;stroke-width:0.5;" width="85.2383" x="7" y="155.74"/><ellipse cx="22" cy="171.74" fill="#ADD1B2" rx="11" ry="11" style="stroke:#181818;stroke-width:1;"/><path d="M24.9688,177.3806 Q24.3906,177.6775 23.75,177.8181 Q23.1094,177.9744 22.4063,177.9744 Q19.9063,177.9744 18.5781,176.3337 Q17.2656,174.6775 17.2656,171.5525 Q17.2656,168.4275 18.5781,166.7712 Q19.9063,165.115 22.4063,165.115 Q23.1094,165.115 23.75,165.2712 Q24.4063,165.4275 24.9688,165.7244 L24.9688,168.4431 Q24.3438,167.865 23.75,167.5994 Q23.1563,167.3181 22.5313,167.3181 Q21.1875,167.3181 20.5,168.3962 Q19.8125,169.4587 19.8125,171.5525 Q19.8125,173.6462 20.5,174.7244 Q21.1875,175.7869 22.5313,175.7869 Q23.1563,175.7869 23.75,175.5212 Q24.3438,175.24 24.9688,174.6619 L24.9688,177.3806 Z " fill="#000000"/><text fill="#000000" font-family="'Microsoft YaHei'" font-size="12" lengthAdjust="spacing" textLength="53.2383" x="36" y="175.8943">CreatorA</text><line style="stroke:#6C8EBF;stroke-width:0.5;" x1="8" x2="91.2383" y1="187.74" y2="187.74"/><line style="stroke:#6C8EBF;stroke-width:0.5;" x1="8" x2="91.2383" y1="195.74" y2="195.74"/></g><!--class CreatorB--><g class="entity" data-qualified-name="CreatorB" data-source-line="22" id="ent0006"><rect fill="#DAE8FC" height="48" rx="2.5" ry="2.5" style="stroke:#6C8EBF;stroke-width:0.5;" width="85.2617" x="304.99" y="155.74"/><ellipse cx="319.99" cy="171.74" fill="#ADD1B2" rx="11" ry="11" style="stroke:#181818;stroke-width:1;"/><path d="M322.9588,177.3806 Q322.3806,177.6775 321.74,177.8181 Q321.0994,177.9744 320.3963,177.9744 Q317.8963,177.9744 316.5681,176.3337 Q315.2556,174.6775 315.2556,171.5525 Q315.2556,168.4275 316.5681,166.7712 Q317.8963,165.115 320.3963,165.115 Q321.0994,165.115 321.74,165.2712 Q322.3963,165.4275 322.9588,165.7244 L322.9588,168.4431 Q322.3338,167.865 321.74,167.5994 Q321.1463,167.3181 320.5213,167.3181 Q319.1775,167.3181 318.49,168.3962 Q317.8025,169.4587 317.8025,171.5525 Q317.8025,173.6462 318.49,174.7244 Q319.1775,175.7869 320.5213,175.7869 Q321.1463,175.7869 321.74,175.5212 Q322.3338,175.24 322.9588,174.6619 L322.9588,177.3806 Z " fill="#000000"/><text fill="#000000" font-family="'Microsoft YaHei'" font-size="12" lengthAdjust="spacing" textLength="53.2617" x="333.99" y="175.8943">CreatorB</text><line style="stroke:#6C8EBF;stroke-width:0.5;" x1="305.99" x2="389.2517" y1="187.74" y2="187.74"/><line style="stroke:#6C8EBF;stroke-width:0.5;" x1="305.99" x2="389.2517" y1="195.74" y2="195.74"/></g><!--reverse link Product to ConcreteProductA--><g class="link" data-entity-1="ent0001" data-entity-2="ent0002" data-link-type="extension" data-source-line="24" id="lnk7"><path codeLine="24" d="M163.3487,226.4945 C148.8987,245.2345 141.87,254.36 128.68,271.47" fill="none" id="Product-backto-ConcreteProductA" style="stroke:#181818;stroke-width:1;stroke-dasharray:7,7;"/><polygon fill="none" points="174.34,212.24,158.5972,222.8307,168.1002,230.1583,174.34,212.24" style="stroke:#181818;stroke-width:1;stroke-linejoin:miter;stroke-miterlimit:10;"/></g><!--reverse link Product to ConcreteProductB--><g class="link" data-entity-1="ent0001" data-entity-2="ent0003" data-link-type="extension" data-source-line="25" id="lnk8"><path codeLine="25" d="M244.1166,224.7558 C263.4866,243.4958 274.72,254.36 292.4,271.47" fill="none" id="Product-backto-ConcreteProductB" style="stroke:#181818;stroke-width:1;stroke-dasharray:7,7;"/><polygon fill="none" points="231.18,212.24,239.9446,229.068,248.2885,220.4436,231.18,212.24" style="stroke:#181818;stroke-width:1;stroke-linejoin:miter;stroke-miterlimit:10;"/></g><!--reverse link Creator to CreatorA--><g class="link" data-entity-1="ent0004" data-entity-2="ent0005" data-link-type="extension" data-source-line="26" id="lnk9"><path codeLine="26" d="M139.9656,99.6454 C114.7856,121.6854 97.81,136.55 76.39,155.31" fill="none" id="Creator-backto-CreatorA" style="stroke:#181818;stroke-width:1;"/><polygon fill="none" points="153.51,87.79,136.0138,95.1306,143.9174,104.1602,153.51,87.79" style="stroke:#181818;stroke-width:1;stroke-linejoin:miter;stroke-miterlimit:10;"/></g><!--reverse link Creator to CreatorB--><g class="link" data-entity-1="ent0004" data-entity-2="ent0006" data-link-type="extension" data-source-line="27" id="lnk10"><path codeLine="27" d="M257.2744,99.6454 C282.4544,121.6854 299.43,136.55 320.85,155.31" fill="none" id="Creator-backto-CreatorB" style="stroke:#181818;stroke-width:1;"/><polygon fill="none" points="243.73,87.79,253.3226,104.1602,261.2262,95.1306,243.73,87.79" style="stroke:#181818;stroke-width:1;stroke-linejoin:miter;stroke-miterlimit:10;"/></g><!--link CreatorA to ConcreteProductA--><g class="link" data-entity-1="ent0005" data-entity-2="ent0002" data-link-type="dependency" data-source-line="28" id="lnk11"><path codeLine="28" d="M62.11,204.12 C72.64,223.81 85.2638,247.45 95.7838,267.14" fill="none" id="CreatorA-to-ConcreteProductA" style="stroke:#181818;stroke-width:1;stroke-dasharray:7,7;"/><polygon fill="#181818" points="98.14,271.55,97.4269,261.727,95.7838,267.14,90.3708,265.4969,98.14,271.55" style="stroke:#181818;stroke-width:1;stroke-linejoin:miter;stroke-miterlimit:10;"/></g><!--link CreatorB to ConcreteProductB--><g class="link" data-entity-1="ent0006" data-entity-2="ent0003" data-link-type="dependency" data-source-line="29" id="lnk12"><path codeLine="29" d="M341.27,204.12 C335.92,223.81 329.621,247.0349 324.271,266.7249" fill="none" id="CreatorB-to-ConcreteProductB" style="stroke:#181818;stroke-width:1;stroke-dasharray:7,7;"/><polygon fill="#181818" points="322.96,271.55,329.1799,263.9137,324.271,266.7249,321.4598,261.8161,322.96,271.55" style="stroke:#181818;stroke-width:1;stroke-linejoin:miter;stroke-miterlimit:10;"/></g><?plantuml-src VP11IyGm48Nl-HLXlIYo1QjRohe8xO9uKGHF7gV9HC9sCyiawq7N_svhseeqU0lplddlJVpEkWCmxALgmNlvAQIiGUtUc8vERwabbcSQi3IgLuWryZ0jL8cDwQRtvC8Jx54k7grYycI2V8K7j8j1VB4VAAzoyINy5ESeO3hD69EhMPekcc9LT1R2ke1iGA5yPj975SQLszOwN4Vmn_gI3iWGBBdpYxLy9wkx_NZdbfnY33XOL5t02ajz4ptAlBakYZHQ9r5eV63ekWmxZ11-lowYySDYCzK3esNVRdZs6XyJVQDXbNByYzH9H8n_jJbbsUpwVzLQZDTiJilbr2GvdTXAPjdTF6Vgc53hRm00?></g></svg>