<svg xmlns="http://www.w3.org/2000/svg" xmlns:xlink="http://www.w3.org/1999/xlink" contentStyleType="text/css" data-diagram-type="CLASS" height="318px" preserveAspectRatio="none" style="width:628px;height:318px;background:#FFFFFF;" version="1.1" viewBox="0 0 628 318" width="628px" zoomAndPan="magnify"><?plantuml 1.2026.6?><defs/><g><!--class AbstractFactory--><g class="entity" data-qualified-name="AbstractFactory" data-source-line="12" id="ent0001"><rect fill="#FFF2CC" height="80.5938" rx="2.5" ry="2.5" style="stroke:#D6B656;stroke-width:0.5;" width="272.6064" x="173.64" y="7"/><ellipse cx="258.0389" cy="23" fill="#B4A7E5" rx="11" ry="11" style="stroke:#181818;stroke-width:1;"/><path d="M253.9608,18.7656 L253.9608,16.6094 L261.3514,16.6094 L261.3514,18.7656 L258.8827,18.7656 L258.8827,26.8438 L261.3514,26.8438 L261.3514,29 L253.9608,29 L253.9608,26.8438 L256.4296,26.8438 L256.4296,18.7656 L253.9608,18.7656 Z " fill="#000000"/><text fill="#000000" font-family="'Microsoft YaHei'" font-size="12" font-style="italic" lengthAdjust="spacing" textLength="95.3086" x="278.5389" y="27.1543">AbstractFactory</text><line style="stroke:#D6B656;stroke-width:0.5;" x1="174.64" x2="445.2464" y1="39" y2="39"/><line style="stroke:#D6B656;stroke-width:0.5;" x1="174.64" x2="445.2464" y1="47" y2="47"/><g data-visibility-modifier="PUBLIC_METHOD"><ellipse cx="184.64" cy="60.6484" fill="#84BE84" rx="3" ry="3" style="stroke:#038048;stroke-width:1;"/></g><text fill="#000000" font-family="sans-serif" font-size="14" lengthAdjust="spacing" textLength="246.5518" x="193.64" y="63.9951">createComponentA(): ComponentA</text><g data-visibility-modifier="PUBLIC_METHOD"><ellipse cx="184.64" cy="76.9453" fill="#84BE84" rx="3" ry="3" style="stroke:#038048;stroke-width:1;"/></g><text fill="#000000" font-family="sans-serif" font-size="14" lengthAdjust="spacing" textLength="246.6064" x="193.64" y="80.292">createComponentB(): ComponentB</text></g><!--class ComponentA--><g class="entity" data-qualified-name="ComponentA" data-source-line="16" id="ent0002"><rect fill="#FFF2CC" height="48" rx="2.5" ry="2.5" style="stroke:#D6B656;stroke-width:0.5;" width="109.877" x="7" y="147.59"/><ellipse cx="22" cy="163.59" fill="#B4A7E5" rx="11" ry="11" style="stroke:#181818;stroke-width:1;"/><path d="M17.9219,159.3556 L17.9219,157.1994 L25.3125,157.1994 L25.3125,159.3556 L22.8438,159.3556 L22.8438,167.4337 L25.3125,167.4337 L25.3125,169.59 L17.9219,169.59 L17.9219,167.4337 L20.3906,167.4337 L20.3906,159.3556 L17.9219,159.3556 Z " fill="#000000"/><text fill="#000000" font-family="'Microsoft YaHei'" font-size="12" font-style="italic" lengthAdjust="spacing" textLength="77.877" x="36" y="167.7443">ComponentA</text><line style="stroke:#D6B656;stroke-width:0.5;" x1="8" x2="115.877" y1="179.59" y2="179.59"/><line style="stroke:#D6B656;stroke-width:0.5;" x1="8" x2="115.877" y1="187.59" y2="187.59"/></g><!--class ComponentB--><g class="entity" data-qualified-name="ComponentB" data-source-line="17" id="ent0003"><rect fill="#FFF2CC" height="48" rx="2.5" ry="2.5" style="stroke:#D6B656;stroke-width:0.5;" width="109.9004" x="503.99" y="147.59"/><ellipse cx="518.99" cy="163.59" fill="#B4A7E5" rx="11" ry="11" style="stroke:#181818;stroke-width:1;"/><path d="M514.9119,159.3556 L514.9119,157.1994 L522.3025,157.1994 L522.3025,159.3556 L519.8338,159.3556 L519.8338,167.4337 L522.3025,167.4337 L522.3025,169.59 L514.9119,169.59 L514.9119,167.4337 L517.3806,167.4337 L517.3806,159.3556 L514.9119,159.3556 Z " fill="#000000"/><text fill="#000000" font-family="'Microsoft YaHei'" font-size="12" font-style="italic" lengthAdjust="spacing" textLength="77.9004" x="532.99" y="167.7443">ComponentB</text><line style="stroke:#D6B656;stroke-width:0.5;" x1="504.99" x2="612.8904" y1="179.59" y2="179.59"/><line style="stroke:#D6B656;stroke-width:0.5;" x1="504.99" x2="612.8904" y1="187.59" y2="187.59"/></g><!--class FamilyOneFactory--><g class="entity" data-qualified-name="FamilyOneFactory" data-source-line="18" id="ent0004"><rect fill="#D5E8D4" height="48" rx="2.5" ry="2.5" style="stroke:#82B366;stroke-width:0.5;" width="141.084" x="151.4" y="147.59"/><ellipse cx="166.4" cy="163.59" fill="#ADD1B2" rx="11" ry="11" style="stroke:#181818;stroke-width:1;"/><path d="M169.3688,169.2306 Q168.7906,169.5275 168.15,169.6681 Q167.5094,169.8244 166.8063,169.8244 Q164.3063,169.8244 162.9781,168.1837 Q161.6656,166.5275 161.6656,163.4025 Q161.6656,160.2775 162.9781,158.6212 Q164.3063,156.965 166.8063,156.965 Q167.5094,156.965 168.15,157.1212 Q168.8063,157.2775 169.3688,157.5744 L169.3688,160.2931 Q168.7438,159.715 168.15,159.4494 Q167.5563,159.1681 166.9313,159.1681 Q165.5875,159.1681 164.9,160.2462 Q164.2125,161.3087 164.2125,163.4025 Q164.2125,165.4962 164.9,166.5744 Q165.5875,167.6369 166.9313,167.6369 Q167.5563,167.6369 168.15,167.3712 Q168.7438,167.09 169.3688,166.5119 L169.3688,169.2306 Z " fill="#000000"/><text fill="#000000" font-family="'Microsoft YaHei'" font-size="12" lengthAdjust="spacing" textLength="109.084" x="180.4" y="167.7443">FamilyOneFactory</text><line style="stroke:#82B366;stroke-width:0.5;" x1="152.4" x2="291.484" y1="179.59" y2="179.59"/><line style="stroke:#82B366;stroke-width:0.5;" x1="152.4" x2="291.484" y1="187.59" y2="187.59"/></g><!--class FamilyTwoFactory--><g class="entity" data-qualified-name="FamilyTwoFactory" data-source-line="19" id="ent0005"><rect fill="#D5E8D4" height="48" rx="2.5" ry="2.5" style="stroke:#82B366;stroke-width:0.5;" width="141.1367" x="327.37" y="147.59"/><ellipse cx="342.37" cy="163.59" fill="#ADD1B2" rx="11" ry="11" style="stroke:#181818;stroke-width:1;"/><path d="M345.3388,169.2306 Q344.7606,169.5275 344.12,169.6681 Q343.4794,169.8244 342.7763,169.8244 Q340.2763,169.8244 338.9481,168.1837 Q337.6356,166.5275 337.6356,163.4025 Q337.6356,160.2775 338.9481,158.6212 Q340.2763,156.965 342.7763,156.965 Q343.4794,156.965 344.12,157.1212 Q344.7763,157.2775 345.3388,157.5744 L345.3388,160.2931 Q344.7138,159.715 344.12,159.4494 Q343.5263,159.1681 342.9013,159.1681 Q341.5575,159.1681 340.87,160.2462 Q340.1825,161.3087 340.1825,163.4025 Q340.1825,165.4962 340.87,166.5744 Q341.5575,167.6369 342.9013,167.6369 Q343.5263,167.6369 344.12,167.3712 Q344.7138,167.09 345.3388,166.5119 L345.3388,169.2306 Z " fill="#000000"/><text fill="#000000" font-family="'Microsoft YaHei'" font-size="12" lengthAdjust="spacing" textLength="109.1367" x="356.37" y="167.7443">FamilyTwoFactory</text><line style="stroke:#82B366;stroke-width:0.5;" x1="328.37" x2="467.5067" y1="179.59" y2="179.59"/><line style="stroke:#82B366;stroke-width:0.5;" x1="328.37" x2="467.5067" y1="187.59" y2="187.59"/></g><!--class FamilyOneA--><g class="entity" data-qualified-name="FamilyOneA" data-source-line="20" id="ent0006"><rect fill="#DAE8FC" height="48" rx="2.5" ry="2.5" style="stroke:#6C8EBF;stroke-width:0.5;" width="104.3574" x="49.76" y="255.59"/><ellipse cx="64.76" cy="271.59" fill="#ADD1B2" rx="11" ry="11" style="stroke:#181818;stroke-width:1;"/><path d="M67.7287,277.2306 Q67.1506,277.5275 66.51,277.6681 Q65.8694,277.8244 65.1662,277.8244 Q62.6662,277.8244 61.3381,276.1838 Q60.0256,274.5275 60.0256,271.4025 Q60.0256,268.2775 61.3381,266.6213 Q62.6662,264.965 65.1662,264.965 Q65.8694,264.965 66.51,265.1213 Q67.1662,265.2775 67.7287,265.5744 L67.7287,268.2931 Q67.1037,267.715 66.51,267.4494 Q65.9162,267.1681 65.2912,267.1681 Q63.9475,267.1681 63.26,268.2463 Q62.5725,269.3088 62.5725,271.4025 Q62.5725,273.4963 63.26,274.5744 Q63.9475,275.6369 65.2912,275.6369 Q65.9162,275.6369 66.51,275.3713 Q67.1037,275.09 67.7287,274.5119 L67.7287,277.2306 Z " fill="#000000"/><text fill="#000000" font-family="'Microsoft YaHei'" font-size="12" lengthAdjust="spacing" textLength="72.3574" x="78.76" y="275.7443">FamilyOneA</text><line style="stroke:#6C8EBF;stroke-width:0.5;" x1="50.76" x2="153.1174" y1="287.59" y2="287.59"/><line style="stroke:#6C8EBF;stroke-width:0.5;" x1="50.76" x2="153.1174" y1="295.59" y2="295.59"/></g><!--class FamilyOneB--><g class="entity" data-qualified-name="FamilyOneB" data-source-line="21" id="ent0007"><rect fill="#DAE8FC" height="48" rx="2.5" ry="2.5" style="stroke:#6C8EBF;stroke-width:0.5;" width="104.3809" x="357.75" y="255.59"/><ellipse cx="372.75" cy="271.59" fill="#ADD1B2" rx="11" ry="11" style="stroke:#181818;stroke-width:1;"/><path d="M375.7188,277.2306 Q375.1406,277.5275 374.5,277.6681 Q373.8594,277.8244 373.1563,277.8244 Q370.6563,277.8244 369.3281,276.1838 Q368.0156,274.5275 368.0156,271.4025 Q368.0156,268.2775 369.3281,266.6213 Q370.6563,264.965 373.1563,264.965 Q373.8594,264.965 374.5,265.1213 Q375.1563,265.2775 375.7188,265.5744 L375.7188,268.2931 Q375.0938,267.715 374.5,267.4494 Q373.9063,267.1681 373.2813,267.1681 Q371.9375,267.1681 371.25,268.2463 Q370.5625,269.3088 370.5625,271.4025 Q370.5625,273.4963 371.25,274.5744 Q371.9375,275.6369 373.2813,275.6369 Q373.9063,275.6369 374.5,275.3713 Q375.0938,275.09 375.7188,274.5119 L375.7188,277.2306 Z " fill="#000000"/><text fill="#000000" font-family="'Microsoft YaHei'" font-size="12" lengthAdjust="spacing" textLength="72.3809" x="386.75" y="275.7443">FamilyOneB</text><line style="stroke:#6C8EBF;stroke-width:0.5;" x1="358.75" x2="461.1309" y1="287.59" y2="287.59"/><line style="stroke:#6C8EBF;stroke-width:0.5;" x1="358.75" x2="461.1309" y1="295.59" y2="295.59"/></g><!--class FamilyTwoA--><g class="entity" data-qualified-name="FamilyTwoA" data-source-line="22" id="ent0008"><rect fill="#DAE8FC" height="48" rx="2.5" ry="2.5" style="stroke:#6C8EBF;stroke-width:0.5;" width="104.4102" x="208.73" y="255.59"/><ellipse cx="223.73" cy="271.59" fill="#ADD1B2" rx="11" ry="11" style="stroke:#181818;stroke-width:1;"/><path d="M226.6988,277.2306 Q226.1206,277.5275 225.48,277.6681 Q224.8394,277.8244 224.1363,277.8244 Q221.6363,277.8244 220.3081,276.1838 Q218.9956,274.5275 218.9956,271.4025 Q218.9956,268.2775 220.3081,266.6213 Q221.6363,264.965 224.1363,264.965 Q224.8394,264.965 225.48,265.1213 Q226.1363,265.2775 226.6988,265.5744 L226.6988,268.2931 Q226.0738,267.715 225.48,267.4494 Q224.8863,267.1681 224.2613,267.1681 Q222.9175,267.1681 222.23,268.2463 Q221.5425,269.3088 221.5425,271.4025 Q221.5425,273.4963 222.23,274.5744 Q222.9175,275.6369 224.2613,275.6369 Q224.8863,275.6369 225.48,275.3713 Q226.0738,275.09 226.6988,274.5119 L226.6988,277.2306 Z " fill="#000000"/><text fill="#000000" font-family="'Microsoft YaHei'" font-size="12" lengthAdjust="spacing" textLength="72.4102" x="237.73" y="275.7443">FamilyTwoA</text><line style="stroke:#6C8EBF;stroke-width:0.5;" x1="209.73" x2="312.1402" y1="287.59" y2="287.59"/><line style="stroke:#6C8EBF;stroke-width:0.5;" x1="209.73" x2="312.1402" y1="295.59" y2="295.59"/></g><!--class FamilyTwoB--><g class="entity" data-qualified-name="FamilyTwoB" data-source-line="23" id="ent0009"><rect fill="#DAE8FC" height="48" rx="2.5" ry="2.5" style="stroke:#6C8EBF;stroke-width:0.5;" width="104.4336" x="501.72" y="255.59"/><ellipse cx="516.72" cy="271.59" fill="#ADD1B2" rx="11" ry="11" style="stroke:#181818;stroke-width:1;"/><path d="M519.6888,277.2306 Q519.1106,277.5275 518.47,277.6681 Q517.8294,277.8244 517.1263,277.8244 Q514.6263,277.8244 513.2981,276.1838 Q511.9856,274.5275 511.9856,271.4025 Q511.9856,268.2775 513.2981,266.6213 Q514.6263,264.965 517.1263,264.965 Q517.8294,264.965 518.47,265.1213 Q519.1263,265.2775 519.6888,265.5744 L519.6888,268.2931 Q519.0638,267.715 518.47,267.4494 Q517.8763,267.1681 517.2513,267.1681 Q515.9075,267.1681 515.22,268.2463 Q514.5325,269.3088 514.5325,271.4025 Q514.5325,273.4963 515.22,274.5744 Q515.9075,275.6369 517.2513,275.6369 Q517.8763,275.6369 518.47,275.3713 Q519.0638,275.09 519.6888,274.5119 L519.6888,277.2306 Z " fill="#000000"/><text fill="#000000" font-family="'Microsoft YaHei'" font-size="12" lengthAdjust="spacing" textLength="72.4336" x="530.72" y="275.7443">FamilyTwoB</text><line style="stroke:#6C8EBF;stroke-width:0.5;" x1="502.72" x2="605.1536" y1="287.59" y2="287.59"/><line style="stroke:#6C8EBF;stroke-width:0.5;" x1="502.72" x2="605.1536" y1="295.59" y2="295.59"/></g><!--reverse link AbstractFactory to FamilyOneFactory--><g class="link" data-entity-1="ent0001" data-entity-2="ent0004" data-link-type="extension" data-source-line="25" id="lnk10"><path codeLine="25" d="M270.8582,102.6117 C256.8082,122.1417 250.86,130.4 238.83,147.11" fill="none" id="AbstractFactory-backto-FamilyOneFactory" style="stroke:#181818;stroke-width:1;stroke-dasharray:7,7;"/><polygon fill="none" points="281.37,88,265.9877,99.1078,275.7288,106.1157,281.37,88" style="stroke:#181818;stroke-width:1;stroke-linejoin:miter;stroke-miterlimit:10;"/></g><!--reverse link AbstractFactory to FamilyTwoFactory--><g class="link" data-entity-1="ent0001" data-entity-2="ent0005" data-link-type="extension" data-source-line="26" id="lnk11"><path codeLine="26" d="M349.0218,102.6117 C363.0718,122.1417 369.02,130.4 381.05,147.11" fill="none" id="AbstractFactory-backto-FamilyTwoFactory" style="stroke:#181818;stroke-width:1;stroke-dasharray:7,7;"/><polygon fill="none" points="338.51,88,344.1512,106.1157,353.8923,99.1078,338.51,88" style="stroke:#181818;stroke-width:1;stroke-linejoin:miter;stroke-miterlimit:10;"/></g><!--reverse link ComponentA to FamilyOneA--><g class="link" data-entity-1="ent0002" data-entity-2="ent0006" data-link-type="extension" data-source-line="27" id="lnk12"><path codeLine="27" d="M77.0736,212.6914 C83.7436,230.3714 86.52,237.72 93.18,255.38" fill="none" id="ComponentA-backto-FamilyOneA" style="stroke:#181818;stroke-width:1;stroke-dasharray:7,7;"/><polygon fill="none" points="70.72,195.85,71.4598,214.8092,82.6874,210.5735,70.72,195.85" style="stroke:#181818;stroke-width:1;stroke-linejoin:miter;stroke-miterlimit:10;"/></g><!--reverse link ComponentA to FamilyTwoA--><g class="link" data-entity-1="ent0002" data-entity-2="ent0008" data-link-type="extension" data-source-line="28" id="lnk13"><path codeLine="28" d="M121.4967,204.3124 C154.5567,221.9224 183.9,237.56 217.03,255.2" fill="none" id="ComponentA-backto-FamilyTwoA" style="stroke:#181818;stroke-width:1;stroke-dasharray:7,7;"/><polygon fill="none" points="105.61,195.85,118.676,209.6079,124.3175,199.0168,105.61,195.85" style="stroke:#181818;stroke-width:1;stroke-linejoin:miter;stroke-miterlimit:10;"/></g><!--reverse link ComponentB to FamilyOneB--><g class="link" data-entity-1="ent0003" data-entity-2="ent0007" data-link-type="extension" data-source-line="29" id="lnk14"><path codeLine="29" d="M511.5716,206.2826 C486.8116,223.8926 467.62,237.56 442.82,255.2" fill="none" id="ComponentB-backto-FamilyOneB" style="stroke:#181818;stroke-width:1;stroke-dasharray:7,7;"/><polygon fill="none" points="526.24,195.85,508.0941,201.3931,515.0491,211.172,526.24,195.85" style="stroke:#181818;stroke-width:1;stroke-linejoin:miter;stroke-miterlimit:10;"/></g><!--reverse link ComponentB to FamilyTwoB--><g class="link" data-entity-1="ent0003" data-entity-2="ent0009" data-link-type="extension" data-source-line="30" id="lnk15"><path codeLine="30" d="M556.9959,213.8302 C556.1659,231.5102 555.87,237.72 555.03,255.38" fill="none" id="ComponentB-backto-FamilyTwoB" style="stroke:#181818;stroke-width:1;stroke-dasharray:7,7;"/><polygon fill="none" points="557.84,195.85,551.0025,213.5488,562.9893,214.1116,557.84,195.85" style="stroke:#181818;stroke-width:1;stroke-linejoin:miter;stroke-miterlimit:10;"/></g><!--link FamilyOneFactory to FamilyOneA--><g class="link" data-entity-1="ent0004" data-entity-2="ent0006" data-link-type="dependency" data-source-line="31" id="lnk16"><path codeLine="31" d="M195.6,195.85 C175.6,213.53 151.9472,234.4096 131.9572,252.0696" fill="none" id="FamilyOneFactory-to-FamilyOneA" style="stroke:#181818;stroke-width:1;stroke-dasharray:7,7;"/><polygon fill="#181818" points="128.21,255.38,137.6032,252.419,131.9572,252.0696,132.3066,246.4235,128.21,255.38" style="stroke:#181818;stroke-width:1;stroke-linejoin:miter;stroke-miterlimit:10;"/></g><!--link FamilyOneFactory to FamilyOneB--><g class="link" data-entity-1="ent0004" data-entity-2="ent0007" data-link-type="dependency" data-source-line="32" id="lnk17"><path codeLine="32" d="M263.2,195.85 C294.43,213.46 332.8045,235.1045 364.0945,252.7445" fill="none" id="FamilyOneFactory-to-FamilyOneB" style="stroke:#181818;stroke-width:1;stroke-dasharray:7,7;"/><polygon fill="#181818" points="368.45,255.2,362.5744,247.2957,364.0945,252.7445,358.6457,254.2646,368.45,255.2" style="stroke:#181818;stroke-width:1;stroke-linejoin:miter;stroke-miterlimit:10;"/></g><!--link FamilyTwoFactory to FamilyTwoA--><g class="link" data-entity-1="ent0005" data-entity-2="ent0008" data-link-type="dependency" data-source-line="33" id="lnk18"><path codeLine="33" d="M367.87,195.85 C345.03,213.53 317.7149,234.6607 294.8849,252.3207" fill="none" id="FamilyTwoFactory-to-FamilyTwoA" style="stroke:#181818;stroke-width:1;stroke-dasharray:7,7;"/><polygon fill="#181818" points="290.93,255.38,300.4962,253.0372,294.8849,252.3207,295.6013,246.7094,290.93,255.38" style="stroke:#181818;stroke-width:1;stroke-linejoin:miter;stroke-miterlimit:10;"/></g><!--link FamilyTwoFactory to FamilyTwoB--><g class="link" data-entity-1="ent0005" data-entity-2="ent0009" data-link-type="dependency" data-source-line="34" id="lnk19"><path codeLine="34" d="M432.17,195.85 C458.09,213.46 489.4144,234.7498 515.3744,252.3898" fill="none" id="FamilyTwoFactory-to-FamilyTwoB" style="stroke:#181818;stroke-width:1;stroke-dasharray:7,7;"/><polygon fill="#181818" points="519.51,255.2,514.3141,246.8333,515.3744,252.3898,509.8178,253.4502,519.51,255.2" style="stroke:#181818;stroke-width:1;stroke-linejoin:miter;stroke-miterlimit:10;"/></g><?plantuml-src ZL1DIyCm6BxdLuHvKOI2rPKonw0P52_gGIyUq-IDXBLvHnAH-V7VhUssVgxiq4FVvpEFssYpvPONLEJSEVfDA6LSRDujVXYvnXmjlP0SOYN-4RGIxFuQYHWoLLvJDFw95q1dZrfOTAWyVUCFe6Txy4L_0Rq9oIznnpY37iRJb5AX6AJ9A8lcKMb1jF5W5HT0aynvouLFom_jxY2zpxM1HIse8gw51UvXZSKM3HYVN5ujQFCtmc0T1YjZczH6E1OuHcIZn7hmb1SwtpqRE3v2pY6MTpKr3hFRg4jz_SHpgQLhqZ-mlbdIFp12-iCkVu9Wq7IArPGahRcwDia9gEhKsgwhOYUWglXWp21OjGEdyOE-jN23LwscSVO7?></g></svg>