<svg xmlns="http://www.w3.org/2000/svg" xmlns:xlink="http://www.w3.org/1999/xlink" contentStyleType="text/css" data-diagram-type="CLASS" height="334px" preserveAspectRatio="none" style="width:366px;height:334px;background:#FFFFFF;" version="1.1" viewBox="0 0 366 334" width="366px" zoomAndPan="magnify"><?plantuml 1.2026.6?><defs/><g><!--class Iterator--><g class="entity" data-qualified-name="Iterator" data-source-line="12" id="ent0001"><rect fill="#FFF2CC" height="80.5938" rx="2.5" ry="2.5" style="stroke:#D6B656;stroke-width:0.5;" width="159.6699" x="7" y="131.3"/><ellipse cx="60.1377" cy="147.3" fill="#B4A7E5" rx="11" ry="11" style="stroke:#181818;stroke-width:1;"/><path d="M56.0596,143.0656 L56.0596,140.9094 L63.4502,140.9094 L63.4502,143.0656 L60.9814,143.0656 L60.9814,151.1437 L63.4502,151.1437 L63.4502,153.3 L56.0596,153.3 L56.0596,151.1437 L58.5283,151.1437 L58.5283,143.0656 L56.0596,143.0656 Z " fill="#000000"/><text fill="#000000" font-family="'Microsoft YaHei'" font-size="12" font-style="italic" lengthAdjust="spacing" textLength="44.8945" x="80.6377" y="151.4543">Iterator</text><line style="stroke:#D6B656;stroke-width:0.5;" x1="8" x2="165.6699" y1="163.3" y2="163.3"/><line style="stroke:#D6B656;stroke-width:0.5;" x1="8" x2="165.6699" y1="171.3" y2="171.3"/><g data-visibility-modifier="PUBLIC_METHOD"><ellipse cx="18" cy="184.9484" fill="#84BE84" rx="3" ry="3" style="stroke:#038048;stroke-width:1;"/></g><text fill="#000000" font-family="sans-serif" font-size="14" lengthAdjust="spacing" textLength="133.6699" x="27" y="188.2951">hasNext(): boolean</text><g data-visibility-modifier="PUBLIC_METHOD"><ellipse cx="18" cy="201.2453" fill="#84BE84" rx="3" ry="3" style="stroke:#038048;stroke-width:1;"/></g><text fill="#000000" font-family="sans-serif" font-size="14" lengthAdjust="spacing" textLength="96.9473" x="27" y="204.592">next(): Object</text></g><!--class Aggregate--><g class="entity" data-qualified-name="Aggregate" data-source-line="16" id="ent0002"><rect fill="#FFF2CC" height="64.2969" rx="2.5" ry="2.5" style="stroke:#D6B656;stroke-width:0.5;" width="150.6055" x="200.53" y="7"/><ellipse cx="240.6342" cy="23" fill="#B4A7E5" rx="11" ry="11" style="stroke:#181818;stroke-width:1;"/><path d="M236.5561,18.7656 L236.5561,16.6094 L243.9467,16.6094 L243.9467,18.7656 L241.4779,18.7656 L241.4779,26.8438 L243.9467,26.8438 L243.9467,29 L236.5561,29 L236.5561,26.8438 L239.0248,26.8438 L239.0248,18.7656 L236.5561,18.7656 Z " fill="#000000"/><text fill="#000000" font-family="'Microsoft YaHei'" font-size="12" font-style="italic" lengthAdjust="spacing" textLength="62.8184" x="260.2129" y="27.1543">Aggregate</text><line style="stroke:#D6B656;stroke-width:0.5;" x1="201.53" x2="350.1355" y1="39" y2="39"/><line style="stroke:#D6B656;stroke-width:0.5;" x1="201.53" x2="350.1355" y1="47" y2="47"/><g data-visibility-modifier="PUBLIC_METHOD"><ellipse cx="211.53" cy="60.6484" fill="#84BE84" rx="3" ry="3" style="stroke:#038048;stroke-width:1;"/></g><text fill="#000000" font-family="sans-serif" font-size="14" lengthAdjust="spacing" textLength="124.6055" x="220.53" y="63.9951">iterator(): Iterator</text></g><!--class ConcreteAggregate--><g class="entity" data-qualified-name="ConcreteAggregate" data-source-line="19" id="ent0003"><rect fill="#D5E8D4" height="48" rx="2.5" ry="2.5" style="stroke:#82B366;stroke-width:0.5;" width="149.1465" x="201.26" y="147.59"/><ellipse cx="216.26" cy="163.59" fill="#ADD1B2" rx="11" ry="11" style="stroke:#181818;stroke-width:1;"/><path d="M219.2288,169.2306 Q218.6506,169.5275 218.01,169.6681 Q217.3694,169.8244 216.6663,169.8244 Q214.1663,169.8244 212.8381,168.1837 Q211.5256,166.5275 211.5256,163.4025 Q211.5256,160.2775 212.8381,158.6212 Q214.1663,156.965 216.6663,156.965 Q217.3694,156.965 218.01,157.1212 Q218.6663,157.2775 219.2288,157.5744 L219.2288,160.2931 Q218.6038,159.715 218.01,159.4494 Q217.4163,159.1681 216.7913,159.1681 Q215.4475,159.1681 214.76,160.2462 Q214.0725,161.3087 214.0725,163.4025 Q214.0725,165.4962 214.76,166.5744 Q215.4475,167.6369 216.7913,167.6369 Q217.4163,167.6369 218.01,167.3712 Q218.6038,167.09 219.2288,166.5119 L219.2288,169.2306 Z " fill="#000000"/><text fill="#000000" font-family="'Microsoft YaHei'" font-size="12" lengthAdjust="spacing" textLength="117.1465" x="230.26" y="167.7443">ConcreteAggregate</text><line style="stroke:#82B366;stroke-width:0.5;" x1="202.26" x2="349.4065" y1="179.59" y2="179.59"/><line style="stroke:#82B366;stroke-width:0.5;" x1="202.26" x2="349.4065" y1="187.59" y2="187.59"/></g><!--class ConcreteIterator--><g class="entity" data-qualified-name="ConcreteIterator" data-source-line="20" id="ent0004"><rect fill="#DAE8FC" height="48" rx="2.5" ry="2.5" style="stroke:#6C8EBF;stroke-width:0.5;" width="131.2227" x="115.22" y="271.89"/><ellipse cx="130.22" cy="287.89" fill="#ADD1B2" rx="11" ry="11" style="stroke:#181818;stroke-width:1;"/><path d="M133.1888,293.5306 Q132.6106,293.8275 131.97,293.9681 Q131.3294,294.1244 130.6263,294.1244 Q128.1263,294.1244 126.7981,292.4838 Q125.4856,290.8275 125.4856,287.7025 Q125.4856,284.5775 126.7981,282.9213 Q128.1263,281.265 130.6263,281.265 Q131.3294,281.265 131.97,281.4213 Q132.6263,281.5775 133.1888,281.8744 L133.1888,284.5931 Q132.5638,284.015 131.97,283.7494 Q131.3763,283.4681 130.7513,283.4681 Q129.4075,283.4681 128.72,284.5463 Q128.0325,285.6088 128.0325,287.7025 Q128.0325,289.7963 128.72,290.8744 Q129.4075,291.9369 130.7513,291.9369 Q131.3763,291.9369 131.97,291.6713 Q132.5638,291.39 133.1888,290.8119 L133.1888,293.5306 Z " fill="#000000"/><text fill="#000000" font-family="'Microsoft YaHei'" font-size="12" lengthAdjust="spacing" textLength="99.2227" x="144.22" y="292.0443">ConcreteIterator</text><line style="stroke:#6C8EBF;stroke-width:0.5;" x1="116.22" x2="245.4427" y1="303.89" y2="303.89"/><line style="stroke:#6C8EBF;stroke-width:0.5;" x1="116.22" x2="245.4427" y1="311.89" y2="311.89"/></g><!--reverse link Aggregate to ConcreteAggregate--><g class="link" data-entity-1="ent0002" data-entity-2="ent0003" data-link-type="extension" data-source-line="21" id="lnk5"><path codeLine="21" d="M275.83,89.72 C275.83,113.1 275.83,126.41 275.83,147.48" fill="none" id="Aggregate-backto-ConcreteAggregate" style="stroke:#181818;stroke-width:1;stroke-dasharray:7,7;"/><polygon fill="none" points="275.83,71.72,269.83,89.72,281.83,89.72,275.83,71.72" style="stroke:#181818;stroke-width:1;stroke-linejoin:miter;stroke-miterlimit:10;"/></g><!--reverse link Iterator to ConcreteIterator--><g class="link" data-entity-1="ent0001" data-entity-2="ent0004" data-link-type="extension" data-source-line="22" id="lnk6"><path codeLine="22" d="M128.3188,226.5718 C143.3288,246.1018 149.94,254.7 162.79,271.41" fill="none" id="Iterator-backto-ConcreteIterator" style="stroke:#181818;stroke-width:1;stroke-dasharray:7,7;"/><polygon fill="none" points="117.35,212.3,123.5615,230.2281,133.0761,222.9156,117.35,212.3" style="stroke:#181818;stroke-width:1;stroke-linejoin:miter;stroke-miterlimit:10;"/></g><!--link ConcreteAggregate to ConcreteIterator--><g class="link" data-entity-1="ent0003" data-entity-2="ent0004" data-link-type="dependency" data-source-line="23" id="lnk7"><path codeLine="23" d="M257.74,195.88 C240.84,217.65 218.8064,246.0007 201.9264,267.7407" fill="none" id="ConcreteAggregate-to-ConcreteIterator" style="stroke:#181818;stroke-width:1;"/><polygon fill="#181818" points="198.86,271.69,207.539,267.0344,201.9264,267.7407,201.2201,262.1281,198.86,271.69" style="stroke:#181818;stroke-width:1;stroke-linejoin:miter;stroke-miterlimit:10;"/></g><?plantuml-src TP1FImCn4CNl-HIXNXHfmTM6fHL12w87wy6JnqaoMMEt6KaYY7--kraJTzMrj_3cpU-zJDXOzmGUjbor409_OvnVWDeqdfwTNb5BdkzfmDgeRa9Ueo-gK3LAazHBSd4DM-IJ6wiy1JAHtyCLsaaPtjbNv4SL-s2XZtCKyVyqOqobHcbQI34N2S6iY-WDAEJNwG5ns5csrk4YEx_OXmyGrlWIzmyMN1Ar2AvJNP5kvIEgc9W3yhnfF3QGkkrasfBQ4RuR94Q-tugSyXZn1qVFiTOdcLDNybY8FzxX6_dGsLhEEu1EtsUpCP_rsx_cVR5neUdqR6Jx1000?></g></svg>