<svg xmlns="http://www.w3.org/2000/svg" xmlns:xlink="http://www.w3.org/1999/xlink" contentStyleType="text/css" data-diagram-type="CLASS" height="318px" preserveAspectRatio="none" style="width:393px;height:318px;background:#FFFFFF;" version="1.1" viewBox="0 0 393 318" width="393px" zoomAndPan="magnify"><?plantuml 1.2026.6?><defs/><g><!--class Mediator--><g class="entity" data-qualified-name="Mediator" data-source-line="12" id="ent0001"><rect fill="#FFF2CC" height="64.2969" rx="2.5" ry="2.5" style="stroke:#D6B656;stroke-width:0.5;" width="212.5596" x="165.94" y="7"/><ellipse cx="241.459" cy="23" fill="#B4A7E5" rx="11" ry="11" style="stroke:#181818;stroke-width:1;"/><path d="M237.3809,18.7656 L237.3809,16.6094 L244.7715,16.6094 L244.7715,18.7656 L242.3028,18.7656 L242.3028,26.8438 L244.7715,26.8438 L244.7715,29 L237.3809,29 L237.3809,26.8438 L239.8497,26.8438 L239.8497,18.7656 L237.3809,18.7656 Z " fill="#000000"/><text fill="#000000" font-family="'Microsoft YaHei'" font-size="12" font-style="italic" lengthAdjust="spacing" textLength="53.0215" x="261.959" y="27.1543">Mediator</text><line style="stroke:#D6B656;stroke-width:0.5;" x1="166.94" x2="377.4996" y1="39" y2="39"/><line style="stroke:#D6B656;stroke-width:0.5;" x1="166.94" x2="377.4996" y1="47" y2="47"/><g data-visibility-modifier="PUBLIC_METHOD"><ellipse cx="176.94" cy="60.6484" fill="#84BE84" rx="3" ry="3" style="stroke:#038048;stroke-width:1;"/></g><text fill="#000000" font-family="sans-serif" font-size="14" lengthAdjust="spacing" textLength="186.5596" x="185.94" y="63.9951">notify(sender, event): void</text></g><!--class Colleague--><g class="entity" data-qualified-name="Colleague" data-source-line="15" id="ent0002"><rect fill="#DAE8FC" height="64.2969" rx="2.5" ry="2.5" style="stroke:#6C8EBF;stroke-width:0.5;" width="160.4424" x="7" y="131.29"/><ellipse cx="53.106" cy="147.29" fill="#A9DCDF" rx="11" ry="11" style="stroke:#181818;stroke-width:1;"/><path d="M53.2153,142.6337 L52.0591,147.7119 L54.3872,147.7119 L53.2153,142.6337 Z M51.731,140.3994 L54.7153,140.3994 L58.0747,152.79 L55.6216,152.79 L54.856,149.7275 L51.5747,149.7275 L50.8247,152.79 L48.3872,152.79 L51.731,140.3994 Z " fill="#000000"/><text fill="#000000" font-family="'Microsoft YaHei'" font-size="12" font-style="italic" lengthAdjust="spacing" textLength="59.7305" x="73.606" y="151.4443">Colleague</text><line style="stroke:#6C8EBF;stroke-width:0.5;" x1="8" x2="166.4424" y1="163.29" y2="163.29"/><g data-visibility-modifier="PRIVATE_FIELD"><rect fill="none" height="6" style="stroke:#C82930;stroke-width:1;" width="6" x="15" y="173.9384"/></g><text fill="#000000" font-family="sans-serif" font-size="14" lengthAdjust="spacing" textLength="134.4424" x="27" y="180.2851">mediator: Mediator</text><line style="stroke:#6C8EBF;stroke-width:0.5;" x1="8" x2="166.4424" y1="187.5869" y2="187.5869"/></g><!--class ComponentA--><g class="entity" data-qualified-name="ComponentA" data-source-line="18" id="ent0003"><rect fill="#DAE8FC" height="48" rx="2.5" ry="2.5" style="stroke:#6C8EBF;stroke-width:0.5;" width="109.877" x="52.28" y="255.59"/><ellipse cx="67.28" cy="271.59" fill="#ADD1B2" rx="11" ry="11" style="stroke:#181818;stroke-width:1;"/><path d="M70.2488,277.2306 Q69.6706,277.5275 69.03,277.6681 Q68.3894,277.8244 67.6863,277.8244 Q65.1863,277.8244 63.8581,276.1838 Q62.5456,274.5275 62.5456,271.4025 Q62.5456,268.2775 63.8581,266.6213 Q65.1863,264.965 67.6863,264.965 Q68.3894,264.965 69.03,265.1213 Q69.6863,265.2775 70.2488,265.5744 L70.2488,268.2931 Q69.6238,267.715 69.03,267.4494 Q68.4363,267.1681 67.8113,267.1681 Q66.4675,267.1681 65.78,268.2463 Q65.0925,269.3088 65.0925,271.4025 Q65.0925,273.4963 65.78,274.5744 Q66.4675,275.6369 67.8113,275.6369 Q68.4363,275.6369 69.03,275.3713 Q69.6238,275.09 70.2488,274.5119 L70.2488,277.2306 Z " fill="#000000"/><text fill="#000000" font-family="'Microsoft YaHei'" font-size="12" lengthAdjust="spacing" textLength="77.877" x="81.28" y="275.7443">ComponentA</text><line style="stroke:#6C8EBF;stroke-width:0.5;" x1="53.28" x2="161.157" y1="287.59" y2="287.59"/><line style="stroke:#6C8EBF;stroke-width:0.5;" x1="53.28" x2="161.157" y1="295.59" y2="295.59"/></g><!--class ComponentB--><g class="entity" data-qualified-name="ComponentB" data-source-line="19" id="ent0004"><rect fill="#DAE8FC" height="48" rx="2.5" ry="2.5" style="stroke:#6C8EBF;stroke-width:0.5;" width="109.9004" x="207.27" y="255.59"/><ellipse cx="222.27" cy="271.59" fill="#ADD1B2" rx="11" ry="11" style="stroke:#181818;stroke-width:1;"/><path d="M225.2388,277.2306 Q224.6606,277.5275 224.02,277.6681 Q223.3794,277.8244 222.6763,277.8244 Q220.1763,277.8244 218.8481,276.1838 Q217.5356,274.5275 217.5356,271.4025 Q217.5356,268.2775 218.8481,266.6213 Q220.1763,264.965 222.6763,264.965 Q223.3794,264.965 224.02,265.1213 Q224.6763,265.2775 225.2388,265.5744 L225.2388,268.2931 Q224.6138,267.715 224.02,267.4494 Q223.4263,267.1681 222.8013,267.1681 Q221.4575,267.1681 220.77,268.2463 Q220.0825,269.3088 220.0825,271.4025 Q220.0825,273.4963 220.77,274.5744 Q221.4575,275.6369 222.8013,275.6369 Q223.4263,275.6369 224.02,275.3713 Q224.6138,275.09 225.2388,274.5119 L225.2388,277.2306 Z " fill="#000000"/><text fill="#000000" font-family="'Microsoft YaHei'" font-size="12" lengthAdjust="spacing" textLength="77.9004" x="236.27" y="275.7443">ComponentB</text><line style="stroke:#6C8EBF;stroke-width:0.5;" x1="208.27" x2="316.1704" y1="287.59" y2="287.59"/><line style="stroke:#6C8EBF;stroke-width:0.5;" x1="208.27" x2="316.1704" y1="295.59" y2="295.59"/></g><!--class ConcreteMediator--><g class="entity" data-qualified-name="ConcreteMediator" data-source-line="20" id="ent0005"><rect fill="#D5E8D4" height="48" rx="2.5" ry="2.5" style="stroke:#82B366;stroke-width:0.5;" width="139.3496" x="202.55" y="139.44"/><ellipse cx="217.55" cy="155.44" fill="#ADD1B2" rx="11" ry="11" style="stroke:#181818;stroke-width:1;"/><path d="M220.5188,161.0806 Q219.9406,161.3775 219.3,161.5181 Q218.6594,161.6744 217.9563,161.6744 Q215.4563,161.6744 214.1281,160.0337 Q212.8156,158.3775 212.8156,155.2525 Q212.8156,152.1275 214.1281,150.4712 Q215.4563,148.815 217.9563,148.815 Q218.6594,148.815 219.3,148.9712 Q219.9563,149.1275 220.5188,149.4244 L220.5188,152.1431 Q219.8938,151.565 219.3,151.2994 Q218.7063,151.0181 218.0813,151.0181 Q216.7375,151.0181 216.05,152.0962 Q215.3625,153.1587 215.3625,155.2525 Q215.3625,157.3462 216.05,158.4244 Q216.7375,159.4869 218.0813,159.4869 Q218.7063,159.4869 219.3,159.2212 Q219.8938,158.94 220.5188,158.3619 L220.5188,161.0806 Z " fill="#000000"/><text fill="#000000" font-family="'Microsoft YaHei'" font-size="12" lengthAdjust="spacing" textLength="107.3496" x="231.55" y="159.5943">ConcreteMediator</text><line style="stroke:#82B366;stroke-width:0.5;" x1="203.55" x2="340.8996" y1="171.44" y2="171.44"/><line style="stroke:#82B366;stroke-width:0.5;" x1="203.55" x2="340.8996" y1="179.44" y2="179.44"/></g><!--reverse link Mediator to ConcreteMediator--><g class="link" data-entity-1="ent0001" data-entity-2="ent0005" data-link-type="extension" data-source-line="21" id="lnk6"><path codeLine="21" d="M272.22,89.64 C272.22,110.73 272.22,120.03 272.22,139.17" fill="none" id="Mediator-backto-ConcreteMediator" style="stroke:#181818;stroke-width:1;stroke-dasharray:7,7;"/><polygon fill="none" points="272.22,71.64,266.22,89.64,278.22,89.64,272.22,71.64" style="stroke:#181818;stroke-width:1;stroke-linejoin:miter;stroke-miterlimit:10;"/></g><!--reverse link Colleague to ComponentA--><g class="link" data-entity-1="ent0002" data-entity-2="ent0003" data-link-type="extension" data-source-line="22" id="lnk7"><path codeLine="22" d="M95.8433,213.6705 C99.1233,232.4105 100.12,238.06 103.12,255.17" fill="none" id="Colleague-backto-ComponentA" style="stroke:#181818;stroke-width:1;"/><polygon fill="none" points="92.74,195.94,89.9331,214.7049,101.7535,212.636,92.74,195.94" style="stroke:#181818;stroke-width:1;stroke-linejoin:miter;stroke-miterlimit:10;"/></g><!--reverse link Colleague to ComponentB--><g class="link" data-entity-1="ent0002" data-entity-2="ent0004" data-link-type="extension" data-source-line="23" id="lnk8"><path codeLine="23" d="M150.5778,205.7715 C179.3178,224.5115 200.08,238.06 226.31,255.17" fill="none" id="Colleague-backto-ComponentB" style="stroke:#181818;stroke-width:1;"/><polygon fill="none" points="135.5,195.94,147.3006,210.7975,153.855,200.7456,135.5,195.94" style="stroke:#181818;stroke-width:1;stroke-linejoin:miter;stroke-miterlimit:10;"/></g><!--link ConcreteMediator to ComponentA--><g class="link" data-entity-1="ent0005" data-entity-2="ent0003" data-link-type="dependency" data-source-line="24" id="lnk9"><path codeLine="24" d="M238.43,187.82 C209.96,207.51 173.5423,232.7159 145.0723,252.4059" fill="none" id="ConcreteMediator-to-ComponentA" style="stroke:#181818;stroke-width:1;"/><polygon fill="#181818" points="140.96,255.25,150.6374,253.4205,145.0723,252.4059,146.0869,246.8408,140.96,255.25" style="stroke:#181818;stroke-width:1;stroke-linejoin:miter;stroke-miterlimit:10;"/></g><!--link ConcreteMediator to ComponentB--><g class="link" data-entity-1="ent0005" data-entity-2="ent0004" data-link-type="dependency" data-source-line="25" id="lnk10"><path codeLine="25" d="M270.17,187.82 C268.45,207.51 266.4251,230.579 264.7051,250.269" fill="none" id="ConcreteMediator-to-ComponentB" style="stroke:#181818;stroke-width:1;"/><polygon fill="#181818" points="264.27,255.25,269.038,246.6322,264.7051,250.269,261.0684,245.9361,264.27,255.25" style="stroke:#181818;stroke-width:1;stroke-linejoin:miter;stroke-miterlimit:10;"/></g><?plantuml-src VO_1JiCm44Jl_efLkO30bGZKYaA5H90GbtBXn75ZhokhYLtPRYMW_3kcIHDAWEkCvprlM1cxHeyDo1f3W7S6KA9SBRtRM7NlQkVXH27bMdurpYloNIfaJfLEwOEpyGaRWid2IE-2qn5Uy97Cf2kVpHl1PSO-MEXrraNwtQQrpkJ8faGbPY8XcB6Hl4P9i21bC0wRczfOAjgNU_PviXZzUXh89j85q9PiF2jWwunAAAn2z2XZTtiorOJB3HqkRddjdNiURpfZqRiJvh1kriuc_jtFeEm3Apr56hwjPfIhwrQJPzML4AmlvxlfT3HXmn_dEyw_I_zgIZRoSdvxlFolBpy1?></g></svg>