<svg xmlns="http://www.w3.org/2000/svg" xmlns:xlink="http://www.w3.org/1999/xlink" contentStyleType="text/css" data-diagram-type="CLASS" height="243px" preserveAspectRatio="none" style="width:460px;height:243px;background:#FFFFFF;" version="1.1" viewBox="0 0 460 243" width="460px" zoomAndPan="magnify"><?plantuml 1.2026.6?><defs/><g><!--class Originator--><g class="entity" data-qualified-name="Originator" data-source-line="12" id="ent0001"><rect fill="#DAE8FC" height="96.8906" rx="2.5" ry="2.5" style="stroke:#6C8EBF;stroke-width:0.5;" width="191.6758" x="7" y="7"/><ellipse cx="68.2861" cy="23" fill="#ADD1B2" rx="11" ry="11" style="stroke:#181818;stroke-width:1;"/><path d="M71.2549,28.6406 Q70.6768,28.9375 70.0361,29.0781 Q69.3955,29.2344 68.6924,29.2344 Q66.1924,29.2344 64.8643,27.5938 Q63.5518,25.9375 63.5518,22.8125 Q63.5518,19.6875 64.8643,18.0313 Q66.1924,16.375 68.6924,16.375 Q69.3955,16.375 70.0361,16.5313 Q70.6924,16.6875 71.2549,16.9844 L71.2549,19.7031 Q70.6299,19.125 70.0361,18.8594 Q69.4424,18.5781 68.8174,18.5781 Q67.4736,18.5781 66.7861,19.6563 Q66.0986,20.7188 66.0986,22.8125 Q66.0986,24.9063 66.7861,25.9844 Q67.4736,27.0469 68.8174,27.0469 Q69.4424,27.0469 70.0361,26.7813 Q70.6299,26.5 71.2549,25.9219 L71.2549,28.6406 Z " fill="#000000"/><text fill="#000000" font-family="'Microsoft YaHei'" font-size="12" lengthAdjust="spacing" textLength="60.6035" x="88.7861" y="27.1543">Originator</text><line style="stroke:#6C8EBF;stroke-width:0.5;" x1="8" x2="197.6758" y1="39" y2="39"/><g data-visibility-modifier="PRIVATE_FIELD"><rect fill="none" height="6" style="stroke:#C82930;stroke-width:1;" width="6" x="15" y="49.6484"/></g><text fill="#000000" font-family="sans-serif" font-size="14" lengthAdjust="spacing" textLength="86.4131" x="27" y="55.9951">state: String</text><line style="stroke:#6C8EBF;stroke-width:0.5;" x1="8" x2="197.6758" y1="63.2969" y2="63.2969"/><g data-visibility-modifier="PUBLIC_METHOD"><ellipse cx="18" cy="76.9453" fill="#84BE84" rx="3" ry="3" style="stroke:#038048;stroke-width:1;"/></g><text fill="#000000" font-family="sans-serif" font-size="14" lengthAdjust="spacing" textLength="118.7334" x="27" y="80.292">save(): Memento</text><g data-visibility-modifier="PUBLIC_METHOD"><ellipse cx="18" cy="93.2422" fill="#84BE84" rx="3" ry="3" style="stroke:#038048;stroke-width:1;"/></g><text fill="#000000" font-family="sans-serif" font-size="14" lengthAdjust="spacing" textLength="165.6758" x="27" y="96.5889">restore(Memento): void</text></g><!--class Memento--><g class="entity" data-qualified-name="Memento" data-source-line="17" id="ent0002"><rect fill="#FFF2CC" height="64.2969" rx="2.5" ry="2.5" style="stroke:#D6B656;stroke-width:0.5;" width="112.4131" x="164.63" y="163.89"/><ellipse cx="190.4085" cy="179.89" fill="#ADD1B2" rx="11" ry="11" style="stroke:#181818;stroke-width:1;"/><path d="M193.3772,185.5306 Q192.7991,185.8275 192.1585,185.9681 Q191.5178,186.1244 190.8147,186.1244 Q188.3147,186.1244 186.9866,184.4838 Q185.6741,182.8275 185.6741,179.7025 Q185.6741,176.5775 186.9866,174.9213 Q188.3147,173.265 190.8147,173.265 Q191.5178,173.265 192.1585,173.4213 Q192.8147,173.5775 193.3772,173.8744 L193.3772,176.5931 Q192.7522,176.015 192.1585,175.7494 Q191.5647,175.4681 190.9397,175.4681 Q189.596,175.4681 188.9085,176.5463 Q188.221,177.6088 188.221,179.7025 Q188.221,181.7963 188.9085,182.8744 Q189.596,183.9369 190.9397,183.9369 Q191.5647,183.9369 192.1585,183.6713 Q192.7522,183.39 193.3772,182.8119 L193.3772,185.5306 Z " fill="#000000"/><text fill="#000000" font-family="'Microsoft YaHei'" font-size="12" lengthAdjust="spacing" textLength="56.4609" x="206.8037" y="184.0443">Memento</text><line style="stroke:#D6B656;stroke-width:0.5;" x1="165.63" x2="276.0431" y1="195.89" y2="195.89"/><g data-visibility-modifier="PRIVATE_FIELD"><rect fill="none" height="6" style="stroke:#C82930;stroke-width:1;" width="6" x="172.63" y="206.5384"/></g><text fill="#000000" font-family="sans-serif" font-size="14" lengthAdjust="spacing" textLength="86.4131" x="184.63" y="212.8851">state: String</text><line style="stroke:#D6B656;stroke-width:0.5;" x1="165.63" x2="276.0431" y1="220.1869" y2="220.1869"/></g><!--class Caretaker--><g class="entity" data-qualified-name="Caretaker" data-source-line="20" id="ent0003"><rect fill="#D5E8D4" height="64.2969" rx="2.5" ry="2.5" style="stroke:#82B366;stroke-width:0.5;" width="211.4111" x="234.13" y="23.3"/><ellipse cx="305.899" cy="39.3" fill="#ADD1B2" rx="11" ry="11" style="stroke:#181818;stroke-width:1;"/><path d="M308.8678,44.9406 Q308.2897,45.2375 307.649,45.3781 Q307.0084,45.5344 306.3053,45.5344 Q303.8053,45.5344 302.4772,43.8938 Q301.1647,42.2375 301.1647,39.1125 Q301.1647,35.9875 302.4772,34.3313 Q303.8053,32.675 306.3053,32.675 Q307.0084,32.675 307.649,32.8313 Q308.3053,32.9875 308.8678,33.2844 L308.8678,36.0031 Q308.2428,35.425 307.649,35.1594 Q307.0553,34.8781 306.4303,34.8781 Q305.0865,34.8781 304.399,35.9563 Q303.7115,37.0188 303.7115,39.1125 Q303.7115,41.2063 304.399,42.2844 Q305.0865,43.3469 306.4303,43.3469 Q307.0553,43.3469 307.649,43.0813 Q308.2428,42.8 308.8678,42.2219 L308.8678,44.9406 Z " fill="#000000"/><text fill="#000000" font-family="'Microsoft YaHei'" font-size="12" lengthAdjust="spacing" textLength="59.373" x="326.399" y="43.4543">Caretaker</text><line style="stroke:#82B366;stroke-width:0.5;" x1="235.13" x2="444.5411" y1="55.3" y2="55.3"/><g data-visibility-modifier="PRIVATE_FIELD"><rect fill="none" height="6" style="stroke:#C82930;stroke-width:1;" width="6" x="242.13" y="65.9484"/></g><text fill="#000000" font-family="sans-serif" font-size="14" lengthAdjust="spacing" textLength="185.4111" x="254.13" y="72.2951">history: Stack&lt;Memento&gt;</text><line style="stroke:#82B366;stroke-width:0.5;" x1="235.13" x2="444.5411" y1="79.5969" y2="79.5969"/></g><!--link Originator to Memento--><g class="link" data-entity-1="ent0001" data-entity-2="ent0002" data-link-type="dependency" data-source-line="23" id="lnk4"><path codeLine="23" d="M143.45,104.14 C160.25,123.88 176.0194,142.3923 190.9894,159.9823" fill="none" id="Originator-to-Memento" style="stroke:#181818;stroke-width:1;"/><polygon fill="#181818" points="194.23,163.79,191.4432,154.3437,190.9894,159.9823,185.3508,159.5286,194.23,163.79" style="stroke:#181818;stroke-width:1;stroke-linejoin:miter;stroke-miterlimit:10;"/></g><!--link Caretaker to Memento--><g class="link" data-entity-1="ent0003" data-entity-2="ent0002" data-link-type="aggregation" data-source-line="24" id="lnk5"><path codeLine="24" d="M305.0136,97.0051 C285.5436,119.6851 270.4366,137.266 250.9866,159.926" fill="none" id="Caretaker-Memento" style="stroke:#181818;stroke-width:1;"/><polygon fill="none" points="312.83,87.9,305.8867,89.8471,305.0136,97.0051,311.9568,95.058,312.83,87.9" style="stroke:#181818;stroke-width:1;stroke-linejoin:miter;stroke-miterlimit:10;"/><polygon fill="#181818" points="247.73,163.72,256.6271,159.496,250.9866,159.926,250.5566,154.2855,247.73,163.72" style="stroke:#181818;stroke-width:1;stroke-linejoin:miter;stroke-miterlimit:10;"/></g><?plantuml-src RP0zJyCm54Nt_0ghB4Ke0u56KK0Tg5In58PEZ2_sStXAubVPfX8W_ZisTZyakfwdUy-rtK1c1nOc8KTmJdmNGZo177hB7qQjU6GhhXHWesMyi5LeCwrbWvqETCt6ly24OhOXQTcnzk8Ddf5c-RYbBnItLV5JkAFEiCVBDgrr9V_PLDtLYpfK56degwMU3FZJleUH3BPfrLzpwJnuRCNMMp9z03SEzZY_RiK69pIU8xBeGWVECmh7FPCAdgJ9-B0gETAMIuv3R0KMFGmOnosmKVSfs5JTNPs3xnJ5dp4QVk0nYvQXuknfPRayZZrryXd-1G00?></g></svg>