<svg xmlns="http://www.w3.org/2000/svg" xmlns:xlink="http://www.w3.org/1999/xlink" contentStyleType="text/css" data-diagram-type="CLASS" height="243px" preserveAspectRatio="none" style="width:338px;height:243px;background:#FFFFFF;" version="1.1" viewBox="0 0 338 243" width="338px" zoomAndPan="magnify"><?plantuml 1.2026.6?><defs/><g><!--class AbstractProcess--><g class="entity" data-qualified-name="AbstractProcess" data-source-line="12" id="ent0001"><rect fill="#DAE8FC" height="113.1875" rx="2.5" ry="2.5" style="stroke:#6C8EBF;stroke-width:0.5;" width="134.5684" x="97.98" y="7"/><ellipse cx="115.7696" cy="23" fill="#A9DCDF" rx="11" ry="11" style="stroke:#181818;stroke-width:1;"/><path d="M115.879,18.3438 L114.7228,23.4219 L117.0509,23.4219 L115.879,18.3438 Z M114.3946,16.1094 L117.379,16.1094 L120.7384,28.5 L118.2853,28.5 L117.5196,25.4375 L114.2384,25.4375 L113.4884,28.5 L111.0509,28.5 L114.3946,16.1094 Z " fill="#000000"/><text fill="#000000" font-family="'Microsoft YaHei'" font-size="12" font-style="italic" lengthAdjust="spacing" textLength="96.3691" x="130.3896" y="27.1543">AbstractProcess</text><line style="stroke:#6C8EBF;stroke-width:0.5;" x1="98.98" x2="231.5484" y1="39" y2="39"/><line style="stroke:#6C8EBF;stroke-width:0.5;" x1="98.98" x2="231.5484" y1="47" y2="47"/><g data-visibility-modifier="PUBLIC_METHOD"><ellipse cx="108.98" cy="60.6484" fill="#84BE84" rx="3" ry="3" style="stroke:#038048;stroke-width:1;"/></g><text fill="#000000" font-family="sans-serif" font-size="14" lengthAdjust="spacing" textLength="105.9023" x="117.98" y="63.9951">execute(): void</text><g data-visibility-modifier="PROTECTED_METHOD"><polygon fill="#FFFF44" points="108.98,71.9453,112.98,75.9453,108.98,79.9453,104.98,75.9453" style="stroke:#B38D22;stroke-width:1;stroke-linejoin:miter;stroke-miterlimit:10;"/></g><text fill="#000000" font-family="sans-serif" font-size="14" lengthAdjust="spacing" textLength="108.5068" x="117.98" y="80.292">stepOne(): void</text><g data-visibility-modifier="PROTECTED_METHOD"><polygon fill="#FFFF44" points="108.98,88.2422,112.98,92.2422,108.98,96.2422,104.98,92.2422" style="stroke:#B38D22;stroke-width:1;stroke-linejoin:miter;stroke-miterlimit:10;"/></g><text fill="#000000" font-family="sans-serif" font-size="14" lengthAdjust="spacing" textLength="108.5684" x="117.98" y="96.5889">stepTwo(): void</text><g data-visibility-modifier="PROTECTED_METHOD"><polygon fill="#FFFF44" points="108.98,104.5391,112.98,108.5391,108.98,112.5391,104.98,108.5391" style="stroke:#B38D22;stroke-width:1;stroke-linejoin:miter;stroke-miterlimit:10;"/></g><text fill="#000000" font-family="sans-serif" font-size="14" lengthAdjust="spacing" textLength="83.8291" x="117.98" y="112.8857">hook(): void</text></g><!--class ConcreteProcessA--><g class="entity" data-qualified-name="ConcreteProcessA" data-source-line="18" id="ent0002"><rect fill="#D5E8D4" height="48" rx="2.5" ry="2.5" style="stroke:#82B366;stroke-width:0.5;" width="140.5332" x="7" y="180.19"/><ellipse cx="22" cy="196.19" fill="#ADD1B2" rx="11" ry="11" style="stroke:#181818;stroke-width:1;"/><path d="M24.9688,201.8306 Q24.3906,202.1275 23.75,202.2681 Q23.1094,202.4244 22.4063,202.4244 Q19.9063,202.4244 18.5781,200.7838 Q17.2656,199.1275 17.2656,196.0025 Q17.2656,192.8775 18.5781,191.2213 Q19.9063,189.565 22.4063,189.565 Q23.1094,189.565 23.75,189.7213 Q24.4063,189.8775 24.9688,190.1744 L24.9688,192.8931 Q24.3438,192.315 23.75,192.0494 Q23.1563,191.7681 22.5313,191.7681 Q21.1875,191.7681 20.5,192.8463 Q19.8125,193.9088 19.8125,196.0025 Q19.8125,198.0963 20.5,199.1744 Q21.1875,200.2369 22.5313,200.2369 Q23.1563,200.2369 23.75,199.9713 Q24.3438,199.69 24.9688,199.1119 L24.9688,201.8306 Z " fill="#000000"/><text fill="#000000" font-family="'Microsoft YaHei'" font-size="12" lengthAdjust="spacing" textLength="108.5332" x="36" y="200.3443">ConcreteProcessA</text><line style="stroke:#82B366;stroke-width:0.5;" x1="8" x2="146.5332" y1="212.19" y2="212.19"/><line style="stroke:#82B366;stroke-width:0.5;" x1="8" x2="146.5332" y1="220.19" y2="220.19"/></g><!--class ConcreteProcessB--><g class="entity" data-qualified-name="ConcreteProcessB" data-source-line="19" id="ent0003"><rect fill="#D5E8D4" height="48" rx="2.5" ry="2.5" style="stroke:#82B366;stroke-width:0.5;" width="140.5566" x="182.99" y="180.19"/><ellipse cx="197.99" cy="196.19" fill="#ADD1B2" rx="11" ry="11" style="stroke:#181818;stroke-width:1;"/><path d="M200.9588,201.8306 Q200.3806,202.1275 199.74,202.2681 Q199.0994,202.4244 198.3963,202.4244 Q195.8963,202.4244 194.5681,200.7838 Q193.2556,199.1275 193.2556,196.0025 Q193.2556,192.8775 194.5681,191.2213 Q195.8963,189.565 198.3963,189.565 Q199.0994,189.565 199.74,189.7213 Q200.3963,189.8775 200.9588,190.1744 L200.9588,192.8931 Q200.3338,192.315 199.74,192.0494 Q199.1463,191.7681 198.5213,191.7681 Q197.1775,191.7681 196.49,192.8463 Q195.8025,193.9088 195.8025,196.0025 Q195.8025,198.0963 196.49,199.1744 Q197.1775,200.2369 198.5213,200.2369 Q199.1463,200.2369 199.74,199.9713 Q200.3338,199.69 200.9588,199.1119 L200.9588,201.8306 Z " fill="#000000"/><text fill="#000000" font-family="'Microsoft YaHei'" font-size="12" lengthAdjust="spacing" textLength="108.5566" x="211.99" y="200.3443">ConcreteProcessB</text><line style="stroke:#82B366;stroke-width:0.5;" x1="183.99" x2="322.5466" y1="212.19" y2="212.19"/><line style="stroke:#82B366;stroke-width:0.5;" x1="183.99" x2="322.5466" y1="220.19" y2="220.19"/></g><!--reverse link AbstractProcess to ConcreteProcessA--><g class="link" data-entity-1="ent0001" data-entity-2="ent0002" data-link-type="extension" data-source-line="20" id="lnk4"><path codeLine="20" d="M120.0776,135.7631 C106.9076,156.4931 102.35,163.69 92.04,179.93" fill="none" id="AbstractProcess-backto-ConcreteProcessA" style="stroke:#181818;stroke-width:1;"/><polygon fill="none" points="129.73,120.57,115.0132,132.5457,125.142,138.9806,129.73,120.57" style="stroke:#181818;stroke-width:1;stroke-linejoin:miter;stroke-miterlimit:10;"/></g><!--reverse link AbstractProcess to ConcreteProcessB--><g class="link" data-entity-1="ent0001" data-entity-2="ent0003" data-link-type="extension" data-source-line="21" id="lnk5"><path codeLine="21" d="M210.4572,135.7665 C223.6172,156.4965 228.19,163.69 238.5,179.93" fill="none" id="AbstractProcess-backto-ConcreteProcessB" style="stroke:#181818;stroke-width:1;"/><polygon fill="none" points="200.81,120.57,205.3917,138.9822,215.5226,132.5507,200.81,120.57" style="stroke:#181818;stroke-width:1;stroke-linejoin:miter;stroke-miterlimit:10;"/></g><?plantuml-src ZOyzJyCm54Lt_mghNK2eGmEreiBILAfO-91WONnvVWOhgLzbku20_dSCiQggoT3nddVbSnqQwpRWOIsnXH3ajv2o0cnUFM-TNdBBNeurK6dmxy9UayzKOKcrINJ5Bjx3ckJepgBdm2RA5xWbEyh79_j5Sbg8dGXxdUD8mpPZJ84zcrQrcgdqX80wH0yOy-95Ze-UaLBEQwzRwsZURVptND0duJRIsVbSlhFL2Or3fCs3ww7d3pv4RypDFkz4frsoGq-HidQHl3CgzLNdBOlwKgdXQZLOFVx6pSzaqfESrAf-0G00?></g></svg>