<svg xmlns="http://www.w3.org/2000/svg" xmlns:xlink="http://www.w3.org/1999/xlink" contentStyleType="text/css" data-diagram-type="ACTIVITY" height="364px" preserveAspectRatio="none" style="width:2207px;height:364px;background:#FFFFFF;" version="1.1" viewBox="0 0 2207 364" width="2207px" zoomAndPan="magnify"><?plantuml 1.2026.6?><defs/><g><ellipse cx="1115.1538" cy="25" fill="#222222" rx="10" ry="10" style="stroke:#222222;stroke-width:1;"/><rect fill="#DAE8FC" height="33.9688" rx="12.5" ry="12.5" style="stroke:#6C8EBF;stroke-width:0.5;" width="92.0005" x="1069.1535" y="55"/><text fill="#000000" font-family="'Microsoft YaHei'" font-size="12" lengthAdjust="spacing" textLength="72.0005" x="1079.1535" y="76.1387">&#20808;&#25551;&#36848;&#21464;&#21270;&#28857;</text><polygon fill="#DAE8FC" points="291.6756,108.9688,374.5135,108.9688,386.5135,120.9688,374.5135,132.9688,291.6756,132.9688,279.6756,120.9688,291.6756,108.9688" style="stroke:#6C8EBF;stroke-width:0.5;stroke-linejoin:miter;stroke-miterlimit:10;"/><text fill="#000000" font-family="sans-serif" font-size="11" lengthAdjust="spacing" textLength="10.9999" x="337.0945" y="143.1792">&#26159;</text><text fill="#000000" font-family="'Microsoft YaHei'" font-size="11" lengthAdjust="spacing" textLength="82.8378" x="291.6756" y="124.7769">&#38382;&#39064;&#22312;&#23545;&#35937;&#21019;&#24314;?</text><polygon fill="#DAE8FC" points="37,168.0815,119.8378,168.0815,131.8378,180.0815,119.8378,192.0815,37,192.0815,25,180.0815,37,168.0815" style="stroke:#6C8EBF;stroke-width:0.5;stroke-linejoin:miter;stroke-miterlimit:10;"/><text fill="#000000" font-family="sans-serif" font-size="11" lengthAdjust="spacing" textLength="10.9999" x="82.4189" y="202.292">&#26159;</text><text fill="#000000" font-family="'Microsoft YaHei'" font-size="11" lengthAdjust="spacing" textLength="82.8378" x="37" y="183.8896">&#21482;&#38656;&#35201;&#19968;&#20010;&#23454;&#20363;?</text><rect fill="#DAE8FC" height="33.9688" rx="12.5" ry="12.5" style="stroke:#6C8EBF;stroke-width:0.5;" width="76.543" x="40.1474" y="224.8862"/><text fill="#000000" font-family="'Microsoft YaHei'" font-size="12" lengthAdjust="spacing" textLength="56.543" x="50.1474" y="246.0249">Singleton</text><polygon fill="#DAE8FC" points="163.8378,168.0815,257.6756,168.0815,269.6756,180.0815,257.6756,192.0815,163.8378,192.0815,151.8378,180.0815,163.8378,168.0815" style="stroke:#6C8EBF;stroke-width:0.5;stroke-linejoin:miter;stroke-miterlimit:10;"/><text fill="#000000" font-family="sans-serif" font-size="11" lengthAdjust="spacing" textLength="10.9999" x="214.7567" y="202.292">&#26159;</text><text fill="#000000" font-family="'Microsoft YaHei'" font-size="11" lengthAdjust="spacing" textLength="93.8378" x="163.8378" y="183.8896">&#23545;&#35937;&#26500;&#36896;&#27493;&#39588;&#22797;&#26434;?</text><rect fill="#DAE8FC" height="33.9688" rx="12.5" ry="12.5" style="stroke:#6C8EBF;stroke-width:0.5;" width="62.4395" x="179.537" y="224.8862"/><text fill="#000000" font-family="'Microsoft YaHei'" font-size="12" lengthAdjust="spacing" textLength="42.4395" x="189.537" y="246.0249">Builder</text><polygon fill="#DAE8FC" points="305.9119,168.0815,388.7498,168.0815,400.7498,180.0815,388.7498,192.0815,305.9119,192.0815,293.9119,180.0815,305.9119,168.0815" style="stroke:#6C8EBF;stroke-width:0.5;stroke-linejoin:miter;stroke-miterlimit:10;"/><text fill="#000000" font-family="sans-serif" font-size="11" lengthAdjust="spacing" textLength="10.9999" x="351.3308" y="202.292">&#26159;</text><text fill="#000000" font-family="'Microsoft YaHei'" font-size="11" lengthAdjust="spacing" textLength="82.8378" x="305.9119" y="183.8896">&#38656;&#35201;&#21019;&#24314;&#23545;&#35937;&#26063;?</text><rect fill="#DAE8FC" height="33.9688" rx="12.5" ry="12.5" style="stroke:#6C8EBF;stroke-width:0.5;" width="119.123" x="287.7693" y="224.8862"/><text fill="#000000" font-family="'Microsoft YaHei'" font-size="12" lengthAdjust="spacing" textLength="99.123" x="297.7693" y="246.0249">Abstract Factory</text><polygon fill="#DAE8FC" points="438.8924,168.0815,532.7301,168.0815,544.7301,180.0815,532.7301,192.0815,438.8924,192.0815,426.8924,180.0815,438.8924,168.0815" style="stroke:#6C8EBF;stroke-width:0.5;stroke-linejoin:miter;stroke-miterlimit:10;"/><text fill="#000000" font-family="sans-serif" font-size="11" lengthAdjust="spacing" textLength="10.9999" x="489.8112" y="202.292">&#26159;</text><text fill="#000000" font-family="'Microsoft YaHei'" font-size="11" lengthAdjust="spacing" textLength="93.8378" x="438.8924" y="183.8896">&#23376;&#31867;&#20915;&#23450;&#21019;&#24314;&#23545;&#35937;?</text><rect fill="#DAE8FC" height="33.9688" rx="12.5" ry="12.5" style="stroke:#6C8EBF;stroke-width:0.5;" width="113.7559" x="428.9333" y="224.8862"/><text fill="#000000" font-family="'Microsoft YaHei'" font-size="12" lengthAdjust="spacing" textLength="93.7559" x="438.9333" y="246.0249">Factory Method</text><rect fill="#DAE8FC" height="33.9688" rx="12.5" ry="12.5" style="stroke:#6C8EBF;stroke-width:0.5;" width="78.3652" x="554.7301" y="221.4839"/><text fill="#000000" font-family="'Microsoft YaHei'" font-size="12" lengthAdjust="spacing" textLength="58.3652" x="564.7301" y="242.6226">Prototype</text><polygon fill="#DAE8FC" points="944.5643,108.9688,1027.4021,108.9688,1039.4021,120.9688,1027.4021,132.9688,944.5643,132.9688,932.5643,120.9688,944.5643,108.9688" style="stroke:#6C8EBF;stroke-width:0.5;stroke-linejoin:miter;stroke-miterlimit:10;"/><text fill="#000000" font-family="sans-serif" font-size="11" lengthAdjust="spacing" textLength="10.9999" x="989.9832" y="143.1792">&#26159;</text><text fill="#000000" font-family="'Microsoft YaHei'" font-size="11" lengthAdjust="spacing" textLength="82.8378" x="944.5643" y="124.7769">&#38382;&#39064;&#22312;&#32467;&#26500;&#32452;&#21512;?</text><polygon fill="#DAE8FC" points="655.0954,168.0815,715.9334,168.0815,727.9334,180.0815,715.9334,192.0815,655.0954,192.0815,643.0954,180.0815,655.0954,168.0815" style="stroke:#6C8EBF;stroke-width:0.5;stroke-linejoin:miter;stroke-miterlimit:10;"/><text fill="#000000" font-family="sans-serif" font-size="11" lengthAdjust="spacing" textLength="10.9999" x="689.5144" y="202.292">&#26159;</text><text fill="#000000" font-family="'Microsoft YaHei'" font-size="11" lengthAdjust="spacing" textLength="60.838" x="655.0954" y="183.8896">&#25509;&#21475;&#19981;&#20860;&#23481;?</text><rect fill="#DAE8FC" height="33.9688" rx="12.5" ry="12.5" style="stroke:#6C8EBF;stroke-width:0.5;" width="67.8184" x="651.6052" y="224.8862"/><text fill="#000000" font-family="'Microsoft YaHei'" font-size="12" lengthAdjust="spacing" textLength="47.8184" x="661.6052" y="246.0249">Adapter</text><polygon fill="#DAE8FC" points="759.9334,168.0815,831.7713,168.0815,843.7713,180.0815,831.7713,192.0815,759.9334,192.0815,747.9334,180.0815,759.9334,168.0815" style="stroke:#6C8EBF;stroke-width:0.5;stroke-linejoin:miter;stroke-miterlimit:10;"/><text fill="#000000" font-family="sans-serif" font-size="11" lengthAdjust="spacing" textLength="10.9999" x="799.8523" y="202.292">&#26159;</text><text fill="#000000" font-family="'Microsoft YaHei'" font-size="11" lengthAdjust="spacing" textLength="71.8379" x="759.9334" y="183.8896">&#38656;&#35201;&#21160;&#24577;&#22686;&#24378;?</text><rect fill="#DAE8FC" height="33.9688" rx="12.5" ry="12.5" style="stroke:#6C8EBF;stroke-width:0.5;" width="79.8301" x="755.9373" y="224.8862"/><text fill="#000000" font-family="'Microsoft YaHei'" font-size="12" lengthAdjust="spacing" textLength="59.8301" x="765.9373" y="246.0249">Decorator</text><polygon fill="#DAE8FC" points="875.7713,168.0815,947.6092,168.0815,959.6092,180.0815,947.6092,192.0815,875.7713,192.0815,863.7713,180.0815,875.7713,168.0815" style="stroke:#6C8EBF;stroke-width:0.5;stroke-linejoin:miter;stroke-miterlimit:10;"/><text fill="#000000" font-family="sans-serif" font-size="11" lengthAdjust="spacing" textLength="10.9999" x="915.6902" y="202.292">&#26159;</text><text fill="#000000" font-family="'Microsoft YaHei'" font-size="11" lengthAdjust="spacing" textLength="71.8379" x="875.7713" y="183.8896">&#38656;&#35201;&#32479;&#19968;&#20837;&#21475;?</text><rect fill="#DAE8FC" height="33.9688" rx="12.5" ry="12.5" style="stroke:#6C8EBF;stroke-width:0.5;" width="63.207" x="880.0867" y="224.8862"/><text fill="#000000" font-family="'Microsoft YaHei'" font-size="12" lengthAdjust="spacing" textLength="43.207" x="890.0867" y="246.0249">Facade</text><polygon fill="#DAE8FC" points="991.6092,168.0815,1052.4472,168.0815,1064.4472,180.0815,1052.4472,192.0815,991.6092,192.0815,979.6092,180.0815,991.6092,168.0815" style="stroke:#6C8EBF;stroke-width:0.5;stroke-linejoin:miter;stroke-miterlimit:10;"/><text fill="#000000" font-family="sans-serif" font-size="11" lengthAdjust="spacing" textLength="10.9999" x="1026.0282" y="202.292">&#26159;</text><text fill="#000000" font-family="'Microsoft YaHei'" font-size="11" lengthAdjust="spacing" textLength="60.838" x="991.6092" y="183.8896">&#38656;&#35201;&#26641;&#32467;&#26500;?</text><rect fill="#DAE8FC" height="33.9688" rx="12.5" ry="12.5" style="stroke:#6C8EBF;stroke-width:0.5;" width="84.043" x="980.0067" y="224.8862"/><text fill="#000000" font-family="'Microsoft YaHei'" font-size="12" lengthAdjust="spacing" textLength="64.043" x="990.0067" y="246.0249">Composite</text><polygon fill="#DAE8FC" points="1096.4472,168.0815,1168.2851,168.0815,1180.2851,180.0815,1168.2851,192.0815,1096.4472,192.0815,1084.4472,180.0815,1096.4472,168.0815" style="stroke:#6C8EBF;stroke-width:0.5;stroke-linejoin:miter;stroke-miterlimit:10;"/><text fill="#000000" font-family="sans-serif" font-size="11" lengthAdjust="spacing" textLength="10.9999" x="1136.3662" y="202.292">&#26159;</text><text fill="#000000" font-family="'Microsoft YaHei'" font-size="11" lengthAdjust="spacing" textLength="71.8379" x="1096.4472" y="183.8896">&#35775;&#38382;&#38656;&#35201;&#25511;&#21046;?</text><rect fill="#DAE8FC" height="33.9688" rx="12.5" ry="12.5" style="stroke:#6C8EBF;stroke-width:0.5;" width="53.7148" x="1105.5087" y="224.8862"/><text fill="#000000" font-family="'Microsoft YaHei'" font-size="12" lengthAdjust="spacing" textLength="33.7148" x="1115.5087" y="246.0249">Proxy</text><rect fill="#DAE8FC" height="33.9688" rx="12.5" ry="12.5" style="stroke:#6C8EBF;stroke-width:0.5;" width="128.5859" x="1190.2851" y="221.4839"/><text fill="#000000" font-family="'Microsoft YaHei'" font-size="12" lengthAdjust="spacing" textLength="108.5859" x="1200.2851" y="242.6226">Bridge / Flyweight</text><polygon fill="#DAE8FC" points="1340.8711,164.6792,1401.7091,164.6792,1413.7091,176.6792,1401.7091,188.6792,1340.8711,188.6792,1328.8711,176.6792,1340.8711,164.6792" style="stroke:#6C8EBF;stroke-width:0.5;stroke-linejoin:miter;stroke-miterlimit:10;"/><text fill="#000000" font-family="sans-serif" font-size="11" lengthAdjust="spacing" textLength="10.9999" x="1375.2901" y="198.8896">&#26159;</text><text fill="#000000" font-family="'Microsoft YaHei'" font-size="11" lengthAdjust="spacing" textLength="60.838" x="1340.8711" y="180.4873">&#31639;&#27861;&#21487;&#26367;&#25442;?</text><rect fill="#DAE8FC" height="33.9688" rx="12.5" ry="12.5" style="stroke:#6C8EBF;stroke-width:0.5;" width="71.416" x="1335.5821" y="221.4839"/><text fill="#000000" font-family="'Microsoft YaHei'" font-size="12" lengthAdjust="spacing" textLength="51.416" x="1345.5821" y="242.6226">Strategy</text><polygon fill="#DAE8FC" points="1445.7091,164.6792,1517.547,164.6792,1529.547,176.6792,1517.547,188.6792,1445.7091,188.6792,1433.7091,176.6792,1445.7091,164.6792" style="stroke:#6C8EBF;stroke-width:0.5;stroke-linejoin:miter;stroke-miterlimit:10;"/><text fill="#000000" font-family="sans-serif" font-size="11" lengthAdjust="spacing" textLength="10.9999" x="1485.628" y="198.8896">&#26159;</text><text fill="#000000" font-family="'Microsoft YaHei'" font-size="11" lengthAdjust="spacing" textLength="71.8379" x="1445.7091" y="180.4873">&#29366;&#24577;&#39537;&#21160;&#34892;&#20026;?</text><rect fill="#DAE8FC" height="33.9688" rx="12.5" ry="12.5" style="stroke:#6C8EBF;stroke-width:0.5;" width="51.7637" x="1455.7462" y="221.4839"/><text fill="#000000" font-family="'Microsoft YaHei'" font-size="12" lengthAdjust="spacing" textLength="31.7637" x="1465.7462" y="242.6226">State</text><polygon fill="#DAE8FC" points="1561.547,164.6792,1648.0909,164.6792,1660.0909,176.6792,1648.0909,188.6792,1561.547,188.6792,1549.547,176.6792,1561.547,164.6792" style="stroke:#6C8EBF;stroke-width:0.5;stroke-linejoin:miter;stroke-miterlimit:10;"/><text fill="#000000" font-family="sans-serif" font-size="11" lengthAdjust="spacing" textLength="10.9999" x="1608.8189" y="198.8896">&#26159;</text><text fill="#000000" font-family="'Microsoft YaHei'" font-size="11" lengthAdjust="spacing" textLength="86.5439" x="1561.547" y="180.4873">&#35831;&#27714;&#35201;&#25490;&#38431;/&#25764;&#38144;?</text><rect fill="#DAE8FC" height="33.9688" rx="12.5" ry="12.5" style="stroke:#6C8EBF;stroke-width:0.5;" width="81.6758" x="1563.981" y="221.4839"/><text fill="#000000" font-family="'Microsoft YaHei'" font-size="12" lengthAdjust="spacing" textLength="61.6758" x="1573.981" y="242.6226">Command</text><polygon fill="#DAE8FC" points="1692.0909,164.6792,1785.9286,164.6792,1797.9286,176.6792,1785.9286,188.6792,1692.0909,188.6792,1680.0909,176.6792,1692.0909,164.6792" style="stroke:#6C8EBF;stroke-width:0.5;stroke-linejoin:miter;stroke-miterlimit:10;"/><text fill="#000000" font-family="sans-serif" font-size="11" lengthAdjust="spacing" textLength="10.9999" x="1743.0098" y="198.8896">&#26159;</text><text fill="#000000" font-family="'Microsoft YaHei'" font-size="11" lengthAdjust="spacing" textLength="93.8378" x="1692.0909" y="180.4873">&#22810;&#20010;&#23545;&#35937;&#38656;&#35201;&#36890;&#30693;?</text><rect fill="#DAE8FC" height="33.9688" rx="12.5" ry="12.5" style="stroke:#6C8EBF;stroke-width:0.5;" width="75.0488" x="1701.4854" y="221.4839"/><text fill="#000000" font-family="'Microsoft YaHei'" font-size="12" lengthAdjust="spacing" textLength="55.0488" x="1711.4854" y="242.6226">Observer</text><polygon fill="#DAE8FC" points="1834.8173,164.6792,1906.6552,164.6792,1918.6552,176.6792,1906.6552,188.6792,1834.8173,188.6792,1822.8173,176.6792,1834.8173,164.6792" style="stroke:#6C8EBF;stroke-width:0.5;stroke-linejoin:miter;stroke-miterlimit:10;"/><text fill="#000000" font-family="sans-serif" font-size="11" lengthAdjust="spacing" textLength="10.9999" x="1874.7363" y="198.8896">&#26159;</text><text fill="#000000" font-family="'Microsoft YaHei'" font-size="11" lengthAdjust="spacing" textLength="71.8379" x="1834.8173" y="180.4873">&#27969;&#31243;&#39592;&#26550;&#22266;&#23450;?</text><rect fill="#DAE8FC" height="33.9688" rx="12.5" ry="12.5" style="stroke:#6C8EBF;stroke-width:0.5;" width="125.6152" x="1807.9286" y="221.4839"/><text fill="#000000" font-family="'Microsoft YaHei'" font-size="12" lengthAdjust="spacing" textLength="105.6152" x="1817.9286" y="242.6226">Template Method</text><rect fill="#DAE8FC" height="33.9688" rx="12.5" ry="12.5" style="stroke:#6C8EBF;stroke-width:0.5;" width="243.6699" x="1943.5439" y="218.0815"/><text fill="#000000" font-family="'Microsoft YaHei'" font-size="12" lengthAdjust="spacing" textLength="223.6699" x="1953.5439" y="239.2202">Chain / Mediator / Iterator / Memento</text><ellipse cx="1115.1538" cy="333.2573" fill="none" rx="11" ry="11" style="stroke:#222222;stroke-width:1;"/><ellipse cx="1115.1538" cy="333.2573" fill="#222222" rx="6" ry="6" style="stroke:#222222;stroke-width:1;"/><line style="stroke:#181818;stroke-width:1;" x1="1115.1538" x2="1115.1538" y1="35" y2="55"/><polygon fill="#181818" points="1111.1538,45,1115.1538,55,1119.1538,45,1115.1538,49" style="stroke:#181818;stroke-width:1;stroke-linejoin:miter;stroke-miterlimit:10;"/><line style="stroke:#181818;stroke-width:1;" x1="78.4189" x2="78.4189" y1="192.0815" y2="224.8862"/><polygon fill="#181818" points="74.4189,214.8862,78.4189,224.8862,82.4189,214.8862,78.4189,218.8862" style="stroke:#181818;stroke-width:1;stroke-linejoin:miter;stroke-miterlimit:10;"/><line style="stroke:#181818;stroke-width:1;" x1="78.4189" x2="78.4189" y1="258.855" y2="282.2573"/><polygon fill="#181818" points="74.4189,272.2573,78.4189,282.2573,82.4189,272.2573,78.4189,276.2573" style="stroke:#181818;stroke-width:1;stroke-linejoin:miter;stroke-miterlimit:10;"/><line style="stroke:#181818;stroke-width:1;" x1="210.7567" x2="210.7567" y1="192.0815" y2="224.8862"/><polygon fill="#181818" points="206.7567,214.8862,210.7567,224.8862,214.7567,214.8862,210.7567,218.8862" style="stroke:#181818;stroke-width:1;stroke-linejoin:miter;stroke-miterlimit:10;"/><line style="stroke:#181818;stroke-width:1;" x1="210.7567" x2="210.7567" y1="258.855" y2="282.2573"/><polygon fill="#181818" points="206.7567,272.2573,210.7567,282.2573,214.7567,272.2573,210.7567,276.2573" style="stroke:#181818;stroke-width:1;stroke-linejoin:miter;stroke-miterlimit:10;"/><line style="stroke:#181818;stroke-width:1;" x1="347.3308" x2="347.3308" y1="192.0815" y2="224.8862"/><polygon fill="#181818" points="343.3308,214.8862,347.3308,224.8862,351.3308,214.8862,347.3308,218.8862" style="stroke:#181818;stroke-width:1;stroke-linejoin:miter;stroke-miterlimit:10;"/><line style="stroke:#181818;stroke-width:1;" x1="347.3308" x2="347.3308" y1="258.855" y2="282.2573"/><polygon fill="#181818" points="343.3308,272.2573,347.3308,282.2573,351.3308,272.2573,347.3308,276.2573" style="stroke:#181818;stroke-width:1;stroke-linejoin:miter;stroke-miterlimit:10;"/><line style="stroke:#181818;stroke-width:1;" x1="485.8112" x2="485.8112" y1="192.0815" y2="224.8862"/><polygon fill="#181818" points="481.8112,214.8862,485.8112,224.8862,489.8112,214.8862,485.8112,218.8862" style="stroke:#181818;stroke-width:1;stroke-linejoin:miter;stroke-miterlimit:10;"/><line style="stroke:#181818;stroke-width:1;" x1="485.8112" x2="485.8112" y1="258.855" y2="282.2573"/><polygon fill="#181818" points="481.8112,272.2573,485.8112,282.2573,489.8112,272.2573,485.8112,276.2573" style="stroke:#181818;stroke-width:1;stroke-linejoin:miter;stroke-miterlimit:10;"/><line style="stroke:#181818;stroke-width:1;" x1="131.8378" x2="151.8378" y1="180.0815" y2="180.0815"/><polygon fill="#181818" points="141.8378,176.0815,151.8378,180.0815,141.8378,184.0815,145.8378,180.0815" style="stroke:#181818;stroke-width:1;stroke-linejoin:miter;stroke-miterlimit:10;"/><line style="stroke:#181818;stroke-width:1;" x1="269.6756" x2="293.9119" y1="180.0815" y2="180.0815"/><polygon fill="#181818" points="283.9119,176.0815,293.9119,180.0815,283.9119,184.0815,287.9119,180.0815" style="stroke:#181818;stroke-width:1;stroke-linejoin:miter;stroke-miterlimit:10;"/><line style="stroke:#181818;stroke-width:1;" x1="400.7498" x2="426.8924" y1="180.0815" y2="180.0815"/><polygon fill="#181818" points="416.8924,176.0815,426.8924,180.0815,416.8924,184.0815,420.8924,180.0815" style="stroke:#181818;stroke-width:1;stroke-linejoin:miter;stroke-miterlimit:10;"/><line style="stroke:#181818;stroke-width:1;" x1="333.0945" x2="333.0945" y1="132.9688" y2="149.6792"/><line style="stroke:#181818;stroke-width:1;" x1="333.0945" x2="78.4189" y1="149.6792" y2="149.6792"/><line style="stroke:#181818;stroke-width:1;" x1="78.4189" x2="78.4189" y1="149.6792" y2="168.0815"/><polygon fill="#181818" points="74.4189,158.0815,78.4189,168.0815,82.4189,158.0815,78.4189,162.0815" style="stroke:#181818;stroke-width:1;stroke-linejoin:miter;stroke-miterlimit:10;"/><line style="stroke:#181818;stroke-width:1;" x1="544.7301" x2="593.9128" y1="180.0815" y2="180.0815"/><line style="stroke:#181818;stroke-width:1;" x1="593.9128" x2="593.9128" y1="180.0815" y2="221.4839"/><polygon fill="#181818" points="589.9128,211.4839,593.9128,221.4839,597.9128,211.4839,593.9128,215.4839" style="stroke:#181818;stroke-width:1;stroke-linejoin:miter;stroke-miterlimit:10;"/><line style="stroke:#181818;stroke-width:1;" x1="593.9128" x2="593.9128" y1="255.4526" y2="282.2573"/><polygon fill="#181818" points="589.9128,272.2573,593.9128,282.2573,597.9128,272.2573,593.9128,276.2573" style="stroke:#181818;stroke-width:1;stroke-linejoin:miter;stroke-miterlimit:10;"/><line style="stroke:#181818;stroke-width:1;" x1="78.4189" x2="593.9128" y1="282.2573" y2="282.2573"/><line style="stroke:#181818;stroke-width:1;" x1="685.5144" x2="685.5144" y1="192.0815" y2="224.8862"/><polygon fill="#181818" points="681.5144,214.8862,685.5144,224.8862,689.5144,214.8862,685.5144,218.8862" style="stroke:#181818;stroke-width:1;stroke-linejoin:miter;stroke-miterlimit:10;"/><line style="stroke:#181818;stroke-width:1;" x1="685.5144" x2="685.5144" y1="258.855" y2="282.2573"/><polygon fill="#181818" points="681.5144,272.2573,685.5144,282.2573,689.5144,272.2573,685.5144,276.2573" style="stroke:#181818;stroke-width:1;stroke-linejoin:miter;stroke-miterlimit:10;"/><line style="stroke:#181818;stroke-width:1;" x1="795.8523" x2="795.8523" y1="192.0815" y2="224.8862"/><polygon fill="#181818" points="791.8523,214.8862,795.8523,224.8862,799.8523,214.8862,795.8523,218.8862" style="stroke:#181818;stroke-width:1;stroke-linejoin:miter;stroke-miterlimit:10;"/><line style="stroke:#181818;stroke-width:1;" x1="795.8523" x2="795.8523" y1="258.855" y2="282.2573"/><polygon fill="#181818" points="791.8523,272.2573,795.8523,282.2573,799.8523,272.2573,795.8523,276.2573" style="stroke:#181818;stroke-width:1;stroke-linejoin:miter;stroke-miterlimit:10;"/><line style="stroke:#181818;stroke-width:1;" x1="911.6902" x2="911.6902" y1="192.0815" y2="224.8862"/><polygon fill="#181818" points="907.6902,214.8862,911.6902,224.8862,915.6902,214.8862,911.6902,218.8862" style="stroke:#181818;stroke-width:1;stroke-linejoin:miter;stroke-miterlimit:10;"/><line style="stroke:#181818;stroke-width:1;" x1="911.6902" x2="911.6902" y1="258.855" y2="282.2573"/><polygon fill="#181818" points="907.6902,272.2573,911.6902,282.2573,915.6902,272.2573,911.6902,276.2573" style="stroke:#181818;stroke-width:1;stroke-linejoin:miter;stroke-miterlimit:10;"/><line style="stroke:#181818;stroke-width:1;" x1="1022.0282" x2="1022.0282" y1="192.0815" y2="224.8862"/><polygon fill="#181818" points="1018.0282,214.8862,1022.0282,224.8862,1026.0282,214.8862,1022.0282,218.8862" style="stroke:#181818;stroke-width:1;stroke-linejoin:miter;stroke-miterlimit:10;"/><line style="stroke:#181818;stroke-width:1;" x1="1022.0282" x2="1022.0282" y1="258.855" y2="282.2573"/><polygon fill="#181818" points="1018.0282,272.2573,1022.0282,282.2573,1026.0282,272.2573,1022.0282,276.2573" style="stroke:#181818;stroke-width:1;stroke-linejoin:miter;stroke-miterlimit:10;"/><line style="stroke:#181818;stroke-width:1;" x1="1132.3662" x2="1132.3662" y1="192.0815" y2="224.8862"/><polygon fill="#181818" points="1128.3662,214.8862,1132.3662,224.8862,1136.3662,214.8862,1132.3662,218.8862" style="stroke:#181818;stroke-width:1;stroke-linejoin:miter;stroke-miterlimit:10;"/><line style="stroke:#181818;stroke-width:1;" x1="1132.3662" x2="1132.3662" y1="258.855" y2="282.2573"/><polygon fill="#181818" points="1128.3662,272.2573,1132.3662,282.2573,1136.3662,272.2573,1132.3662,276.2573" style="stroke:#181818;stroke-width:1;stroke-linejoin:miter;stroke-miterlimit:10;"/><line style="stroke:#181818;stroke-width:1;" x1="727.9334" x2="747.9334" y1="180.0815" y2="180.0815"/><polygon fill="#181818" points="737.9334,176.0815,747.9334,180.0815,737.9334,184.0815,741.9334,180.0815" style="stroke:#181818;stroke-width:1;stroke-linejoin:miter;stroke-miterlimit:10;"/><line style="stroke:#181818;stroke-width:1;" x1="843.7713" x2="863.7713" y1="180.0815" y2="180.0815"/><polygon fill="#181818" points="853.7713,176.0815,863.7713,180.0815,853.7713,184.0815,857.7713,180.0815" style="stroke:#181818;stroke-width:1;stroke-linejoin:miter;stroke-miterlimit:10;"/><line style="stroke:#181818;stroke-width:1;" x1="959.6092" x2="979.6092" y1="180.0815" y2="180.0815"/><polygon fill="#181818" points="969.6092,176.0815,979.6092,180.0815,969.6092,184.0815,973.6092,180.0815" style="stroke:#181818;stroke-width:1;stroke-linejoin:miter;stroke-miterlimit:10;"/><line style="stroke:#181818;stroke-width:1;" x1="1064.4472" x2="1084.4472" y1="180.0815" y2="180.0815"/><polygon fill="#181818" points="1074.4472,176.0815,1084.4472,180.0815,1074.4472,184.0815,1078.4472,180.0815" style="stroke:#181818;stroke-width:1;stroke-linejoin:miter;stroke-miterlimit:10;"/><line style="stroke:#181818;stroke-width:1;" x1="985.9832" x2="985.9832" y1="132.9688" y2="149.6792"/><line style="stroke:#181818;stroke-width:1;" x1="985.9832" x2="685.5144" y1="149.6792" y2="149.6792"/><line style="stroke:#181818;stroke-width:1;" x1="685.5144" x2="685.5144" y1="149.6792" y2="168.0815"/><polygon fill="#181818" points="681.5144,158.0815,685.5144,168.0815,689.5144,158.0815,685.5144,162.0815" style="stroke:#181818;stroke-width:1;stroke-linejoin:miter;stroke-miterlimit:10;"/><line style="stroke:#181818;stroke-width:1;" x1="1180.2851" x2="1254.5781" y1="180.0815" y2="180.0815"/><line style="stroke:#181818;stroke-width:1;" x1="1254.5781" x2="1254.5781" y1="180.0815" y2="221.4839"/><polygon fill="#181818" points="1250.5781,211.4839,1254.5781,221.4839,1258.5781,211.4839,1254.5781,215.4839" style="stroke:#181818;stroke-width:1;stroke-linejoin:miter;stroke-miterlimit:10;"/><line style="stroke:#181818;stroke-width:1;" x1="1254.5781" x2="1254.5781" y1="255.4526" y2="282.2573"/><polygon fill="#181818" points="1250.5781,272.2573,1254.5781,282.2573,1258.5781,272.2573,1254.5781,276.2573" style="stroke:#181818;stroke-width:1;stroke-linejoin:miter;stroke-miterlimit:10;"/><line style="stroke:#181818;stroke-width:1;" x1="685.5144" x2="1254.5781" y1="282.2573" y2="282.2573"/><line style="stroke:#181818;stroke-width:1;" x1="1371.2901" x2="1371.2901" y1="188.6792" y2="221.4839"/><polygon fill="#181818" points="1367.2901,211.4839,1371.2901,221.4839,1375.2901,211.4839,1371.2901,215.4839" style="stroke:#181818;stroke-width:1;stroke-linejoin:miter;stroke-miterlimit:10;"/><line style="stroke:#181818;stroke-width:1;" x1="1371.2901" x2="1371.2901" y1="255.4526" y2="278.855"/><polygon fill="#181818" points="1367.2901,268.855,1371.2901,278.855,1375.2901,268.855,1371.2901,272.855" style="stroke:#181818;stroke-width:1;stroke-linejoin:miter;stroke-miterlimit:10;"/><line style="stroke:#181818;stroke-width:1;" x1="1481.628" x2="1481.628" y1="188.6792" y2="221.4839"/><polygon fill="#181818" points="1477.628,211.4839,1481.628,221.4839,1485.628,211.4839,1481.628,215.4839" style="stroke:#181818;stroke-width:1;stroke-linejoin:miter;stroke-miterlimit:10;"/><line style="stroke:#181818;stroke-width:1;" x1="1481.628" x2="1481.628" y1="255.4526" y2="278.855"/><polygon fill="#181818" points="1477.628,268.855,1481.628,278.855,1485.628,268.855,1481.628,272.855" style="stroke:#181818;stroke-width:1;stroke-linejoin:miter;stroke-miterlimit:10;"/><line style="stroke:#181818;stroke-width:1;" x1="1604.8189" x2="1604.8189" y1="188.6792" y2="221.4839"/><polygon fill="#181818" points="1600.8189,211.4839,1604.8189,221.4839,1608.8189,211.4839,1604.8189,215.4839" style="stroke:#181818;stroke-width:1;stroke-linejoin:miter;stroke-miterlimit:10;"/><line style="stroke:#181818;stroke-width:1;" x1="1604.8189" x2="1604.8189" y1="255.4526" y2="278.855"/><polygon fill="#181818" points="1600.8189,268.855,1604.8189,278.855,1608.8189,268.855,1604.8189,272.855" style="stroke:#181818;stroke-width:1;stroke-linejoin:miter;stroke-miterlimit:10;"/><line style="stroke:#181818;stroke-width:1;" x1="1739.0098" x2="1739.0098" y1="188.6792" y2="221.4839"/><polygon fill="#181818" points="1735.0098,211.4839,1739.0098,221.4839,1743.0098,211.4839,1739.0098,215.4839" style="stroke:#181818;stroke-width:1;stroke-linejoin:miter;stroke-miterlimit:10;"/><line style="stroke:#181818;stroke-width:1;" x1="1739.0098" x2="1739.0098" y1="255.4526" y2="278.855"/><polygon fill="#181818" points="1735.0098,268.855,1739.0098,278.855,1743.0098,268.855,1739.0098,272.855" style="stroke:#181818;stroke-width:1;stroke-linejoin:miter;stroke-miterlimit:10;"/><line style="stroke:#181818;stroke-width:1;" x1="1870.7363" x2="1870.7363" y1="188.6792" y2="221.4839"/><polygon fill="#181818" points="1866.7363,211.4839,1870.7363,221.4839,1874.7363,211.4839,1870.7363,215.4839" style="stroke:#181818;stroke-width:1;stroke-linejoin:miter;stroke-miterlimit:10;"/><line style="stroke:#181818;stroke-width:1;" x1="1870.7363" x2="1870.7363" y1="255.4526" y2="278.855"/><polygon fill="#181818" points="1866.7363,268.855,1870.7363,278.855,1874.7363,268.855,1870.7363,272.855" style="stroke:#181818;stroke-width:1;stroke-linejoin:miter;stroke-miterlimit:10;"/><line style="stroke:#181818;stroke-width:1;" x1="1413.7091" x2="1433.7091" y1="176.6792" y2="176.6792"/><polygon fill="#181818" points="1423.7091,172.6792,1433.7091,176.6792,1423.7091,180.6792,1427.7091,176.6792" style="stroke:#181818;stroke-width:1;stroke-linejoin:miter;stroke-miterlimit:10;"/><line style="stroke:#181818;stroke-width:1;" x1="1529.547" x2="1549.547" y1="176.6792" y2="176.6792"/><polygon fill="#181818" points="1539.547,172.6792,1549.547,176.6792,1539.547,180.6792,1543.547,176.6792" style="stroke:#181818;stroke-width:1;stroke-linejoin:miter;stroke-miterlimit:10;"/><line style="stroke:#181818;stroke-width:1;" x1="1660.0909" x2="1680.0909" y1="176.6792" y2="176.6792"/><polygon fill="#181818" points="1670.0909,172.6792,1680.0909,176.6792,1670.0909,180.6792,1674.0909,176.6792" style="stroke:#181818;stroke-width:1;stroke-linejoin:miter;stroke-miterlimit:10;"/><line style="stroke:#181818;stroke-width:1;" x1="1797.9286" x2="1822.8173" y1="176.6792" y2="176.6792"/><polygon fill="#181818" points="1812.8173,172.6792,1822.8173,176.6792,1812.8173,180.6792,1816.8173,176.6792" style="stroke:#181818;stroke-width:1;stroke-linejoin:miter;stroke-miterlimit:10;"/><line style="stroke:#181818;stroke-width:1;" x1="1039.4021" x2="1371.2901" y1="120.9688" y2="120.9688"/><line style="stroke:#181818;stroke-width:1;" x1="1371.2901" x2="1371.2901" y1="120.9688" y2="164.6792"/><polygon fill="#181818" points="1367.2901,154.6792,1371.2901,164.6792,1375.2901,154.6792,1371.2901,158.6792" style="stroke:#181818;stroke-width:1;stroke-linejoin:miter;stroke-miterlimit:10;"/><line style="stroke:#181818;stroke-width:1;" x1="1918.6552" x2="2065.3788" y1="176.6792" y2="176.6792"/><line style="stroke:#181818;stroke-width:1;" x1="2065.3788" x2="2065.3788" y1="176.6792" y2="218.0815"/><polygon fill="#181818" points="2061.3788,208.0815,2065.3788,218.0815,2069.3788,208.0815,2065.3788,212.0815" style="stroke:#181818;stroke-width:1;stroke-linejoin:miter;stroke-miterlimit:10;"/><line style="stroke:#181818;stroke-width:1;" x1="2065.3788" x2="2065.3788" y1="252.0503" y2="278.855"/><polygon fill="#181818" points="2061.3788,268.855,2065.3788,278.855,2069.3788,268.855,2065.3788,272.855" style="stroke:#181818;stroke-width:1;stroke-linejoin:miter;stroke-miterlimit:10;"/><line style="stroke:#181818;stroke-width:1;" x1="1371.2901" x2="2065.3788" y1="278.855" y2="278.855"/><line style="stroke:#181818;stroke-width:1;" x1="333.0945" x2="333.0945" y1="282.2573" y2="302.2573"/><polygon fill="#181818" points="329.0945,292.2573,333.0945,302.2573,337.0945,292.2573,333.0945,296.2573" style="stroke:#181818;stroke-width:1;stroke-linejoin:miter;stroke-miterlimit:10;"/><line style="stroke:#181818;stroke-width:1;" x1="985.9832" x2="985.9832" y1="282.2573" y2="302.2573"/><polygon fill="#181818" points="981.9832,292.2573,985.9832,302.2573,989.9832,292.2573,985.9832,296.2573" style="stroke:#181818;stroke-width:1;stroke-linejoin:miter;stroke-miterlimit:10;"/><line style="stroke:#181818;stroke-width:1;" x1="386.5135" x2="932.5643" y1="120.9688" y2="120.9688"/><polygon fill="#181818" points="922.5643,116.9688,932.5643,120.9688,922.5643,124.9688,926.5643,120.9688" style="stroke:#181818;stroke-width:1;stroke-linejoin:miter;stroke-miterlimit:10;"/><line style="stroke:#181818;stroke-width:1;" x1="1115.1538" x2="1115.1538" y1="88.9688" y2="93.9688"/><line style="stroke:#181818;stroke-width:1;" x1="1115.1538" x2="333.0945" y1="93.9688" y2="93.9688"/><line style="stroke:#181818;stroke-width:1;" x1="333.0945" x2="333.0945" y1="93.9688" y2="108.9688"/><polygon fill="#181818" points="329.0945,98.9688,333.0945,108.9688,337.0945,98.9688,333.0945,102.9688" style="stroke:#181818;stroke-width:1;stroke-linejoin:miter;stroke-miterlimit:10;"/><line style="stroke:#181818;stroke-width:1;" x1="1768.0424" x2="1768.0424" y1="278.855" y2="302.2573"/><polygon fill="#181818" points="1764.0424,292.2573,1768.0424,302.2573,1772.0424,292.2573,1768.0424,296.2573" style="stroke:#181818;stroke-width:1;stroke-linejoin:miter;stroke-miterlimit:10;"/><line style="stroke:#181818;stroke-width:1;" x1="333.0945" x2="1768.0424" y1="302.2573" y2="302.2573"/><line style="stroke:#181818;stroke-width:1;" x1="1115.1538" x2="1115.1538" y1="302.2573" y2="322.2573"/><polygon fill="#181818" points="1111.1538,312.2573,1115.1538,322.2573,1119.1538,312.2573,1115.1538,316.2573" style="stroke:#181818;stroke-width:1;stroke-linejoin:miter;stroke-miterlimit:10;"/><?plantuml-src RPHDJnf16CVl-oaczg8daoObHWzDfJ7jWRP9U-bns9s5YUmEcHrjITC4Z3P4nRNs1G8MbK9BIOGIKujWofTXPjblqU55u-fSDhCpytjU_iz_rrd5TX9IQ06eCxoEMGgyqm1OXlfgZ98rsmYJ1A7WdW7HWgcFJWWr49tkXlG553NbxWgnsJDe8J0JmJeb3Z4PU0sV83oZlTUSwnm6XXQn3NKAqpJlwtTI6A5ew458Hj4S1YdJ5lbMLhZkiF-RkmM--zNRk5ZIi0bc_NpJhnJuOPstBeRj4vujyLxtuHnWSMI3ML5epSdGeulSRVY7wU6FpA2J7dGQl5aU_DkvVH60nPVOZYKG8_QIV4S91utXSN1HtlJJn-AqvZUgl9eJtpOK_F8QJiW-RjAJl9FIff7ohW9z57KObGC1A_91Q2fGmUc-r-xn3sUyMRmPIH5cIeC8Od5YN0MPdBsWX16MIgBnjcrWKxkkyaf9h_T9TkhrDlb-LgMasAjnz_kWa-DRbxnveMh4W4ccr62xBj8PNYdpoww2UunqGg4i_YxfzOxauFZMABMwPsYWkvWu_ZXfHy64YPKa3cO1RDZiZuIOm7i_UVPSGKeLtwQ2mYvJRCGGc0ShYTGRX6Dn5bHugftNp8kpBznjYL9Vv2eg_qaBC1GB3D_RFfUo-R_QKh_XoUwWqrM2y5OhhR-YlJ7kuy0l7CsBWwh_EQqMmeAs4R1RjJZwICOMcuZXfulUKKr1FuywYAu7fot-PBpwZj-eY_8vBtMbPnNWAsGb4x9cfL73SOXjAMS4oR-7T8HSFfMMcYuZo48s8pSa7ZyTHfB_0G00?></g></svg>