<svg xmlns="http://www.w3.org/2000/svg" xmlns:xlink="http://www.w3.org/1999/xlink" contentStyleType="text/css" data-diagram-type="CLASS" height="394px" preserveAspectRatio="none" style="width:130px;height:394px;background:#FFFFFF;" version="1.1" viewBox="0 0 130 394" width="130px" zoomAndPan="magnify"><?plantuml 1.2026.6?><defs/><g><!--class A--><g class="entity" data-qualified-name="A" data-source-line="5" id="ent0001"><rect fill="#FFF2CC" height="48" rx="2.5" ry="2.5" style="stroke:#D6B656;stroke-width:0.5;" width="84.0433" x="19" y="223"/><ellipse cx="34" cy="239" fill="#ADD1B2" rx="11" ry="11" style="stroke:#181818;stroke-width:1;"/><path d="M36.9688,244.6406 Q36.3906,244.9375 35.75,245.0781 Q35.1094,245.2344 34.4063,245.2344 Q31.9063,245.2344 30.5781,243.5938 Q29.2656,241.9375 29.2656,238.8125 Q29.2656,235.6875 30.5781,234.0313 Q31.9063,232.375 34.4063,232.375 Q35.1094,232.375 35.75,232.5313 Q36.4063,232.6875 36.9688,232.9844 L36.9688,235.7031 Q36.3438,235.125 35.75,234.8594 Q35.1563,234.5781 34.5313,234.5781 Q33.1875,234.5781 32.5,235.6563 Q31.8125,236.7188 31.8125,238.8125 Q31.8125,240.9063 32.5,241.9844 Q33.1875,243.0469 34.5313,243.0469 Q35.1563,243.0469 35.75,242.7813 Q36.3438,242.5 36.9688,241.9219 L36.9688,244.6406 Z " fill="#000000"/><text fill="#000000" font-family="'Microsoft YaHei'" font-size="12" lengthAdjust="spacing" textLength="52.0433" x="48" y="243.1543">&#25509;&#21475;/&#25277;&#35937;</text><line style="stroke:#D6B656;stroke-width:0.5;" x1="20" x2="102.0433" y1="255" y2="255"/><line style="stroke:#D6B656;stroke-width:0.5;" x1="20" x2="102.0433" y1="263" y2="263"/></g><!--class B--><g class="entity" data-qualified-name="B" data-source-line="6" id="ent0002"><rect fill="#D5E8D4" height="48" rx="2.5" ry="2.5" style="stroke:#82B366;stroke-width:0.5;" width="80.0004" x="21.02" y="331"/><ellipse cx="36.02" cy="347" fill="#ADD1B2" rx="11" ry="11" style="stroke:#181818;stroke-width:1;"/><path d="M38.9887,352.6406 Q38.4106,352.9375 37.77,353.0781 Q37.1294,353.2344 36.4262,353.2344 Q33.9262,353.2344 32.5981,351.5938 Q31.2856,349.9375 31.2856,346.8125 Q31.2856,343.6875 32.5981,342.0313 Q33.9262,340.375 36.4262,340.375 Q37.1294,340.375 37.77,340.5313 Q38.4262,340.6875 38.9887,340.9844 L38.9887,343.7031 Q38.3637,343.125 37.77,342.8594 Q37.1762,342.5781 36.5512,342.5781 Q35.2075,342.5781 34.52,343.6563 Q33.8325,344.7188 33.8325,346.8125 Q33.8325,348.9063 34.52,349.9844 Q35.2075,351.0469 36.5512,351.0469 Q37.1762,351.0469 37.77,350.7813 Q38.3637,350.5 38.9887,349.9219 L38.9887,352.6406 Z " fill="#000000"/><text fill="#000000" font-family="'Microsoft YaHei'" font-size="12" lengthAdjust="spacing" textLength="48.0004" x="50.02" y="351.1543">&#26680;&#24515;&#23454;&#29616;</text><line style="stroke:#82B366;stroke-width:0.5;" x1="22.02" x2="100.0204" y1="363" y2="363"/><line style="stroke:#82B366;stroke-width:0.5;" x1="22.02" x2="100.0204" y1="371" y2="371"/></g><!--class C--><g class="entity" data-qualified-name="C" data-source-line="7" id="ent0003"><rect fill="#DAE8FC" height="48" rx="2.5" ry="2.5" style="stroke:#6C8EBF;stroke-width:0.5;" width="108.0435" x="7" y="115"/><ellipse cx="22" cy="131" fill="#ADD1B2" rx="11" ry="11" style="stroke:#181818;stroke-width:1;"/><path d="M24.9688,136.6406 Q24.3906,136.9375 23.75,137.0781 Q23.1094,137.2344 22.4063,137.2344 Q19.9063,137.2344 18.5781,135.5938 Q17.2656,133.9375 17.2656,130.8125 Q17.2656,127.6875 18.5781,126.0313 Q19.9063,124.375 22.4063,124.375 Q23.1094,124.375 23.75,124.5313 Q24.4063,124.6875 24.9688,124.9844 L24.9688,127.7031 Q24.3438,127.125 23.75,126.8594 Q23.1563,126.5781 22.5313,126.5781 Q21.1875,126.5781 20.5,127.6563 Q19.8125,128.7188 19.8125,130.8125 Q19.8125,132.9063 20.5,133.9844 Q21.1875,135.0469 22.5313,135.0469 Q23.1563,135.0469 23.75,134.7813 Q24.3438,134.5 24.9688,133.9219 L24.9688,136.6406 Z " fill="#000000"/><text fill="#000000" font-family="'Microsoft YaHei'" font-size="12" lengthAdjust="spacing" textLength="76.0435" x="36" y="135.1543">&#19978;&#19979;&#25991;/&#21327;&#35843;&#32773;</text><line style="stroke:#6C8EBF;stroke-width:0.5;" x1="8" x2="114.0435" y1="147" y2="147"/><line style="stroke:#6C8EBF;stroke-width:0.5;" x1="8" x2="114.0435" y1="155" y2="155"/></g><!--class D--><g class="entity" data-qualified-name="D" data-source-line="8" id="ent0004"><rect fill="#F8CECC" height="48" rx="2.5" ry="2.5" style="stroke:#B85450;stroke-width:0.5;" width="80.0004" x="21.02" y="7"/><ellipse cx="36.02" cy="23" fill="#ADD1B2" rx="11" ry="11" style="stroke:#181818;stroke-width:1;"/><path d="M38.9887,28.6406 Q38.4106,28.9375 37.77,29.0781 Q37.1294,29.2344 36.4262,29.2344 Q33.9262,29.2344 32.5981,27.5938 Q31.2856,25.9375 31.2856,22.8125 Q31.2856,19.6875 32.5981,18.0313 Q33.9262,16.375 36.4262,16.375 Q37.1294,16.375 37.77,16.5313 Q38.4262,16.6875 38.9887,16.9844 L38.9887,19.7031 Q38.3637,19.125 37.77,18.8594 Q37.1762,18.5781 36.5512,18.5781 Q35.2075,18.5781 34.52,19.6563 Q33.8325,20.7188 33.8325,22.8125 Q33.8325,24.9063 34.52,25.9844 Q35.2075,27.0469 36.5512,27.0469 Q37.1762,27.0469 37.77,26.7813 Q38.3637,26.5 38.9887,25.9219 L38.9887,28.6406 Z " fill="#000000"/><text fill="#000000" font-family="'Microsoft YaHei'" font-size="12" lengthAdjust="spacing" textLength="48.0004" x="50.02" y="27.1543">&#36741;&#21161;&#23545;&#35937;</text><line style="stroke:#B85450;stroke-width:0.5;" x1="22.02" x2="100.0204" y1="39" y2="39"/><line style="stroke:#B85450;stroke-width:0.5;" x1="22.02" x2="100.0204" y1="47" y2="47"/></g><!--reverse link A to B--><g class="link" data-entity-1="ent0001" data-entity-2="ent0002" data-link-type="extension" data-source-line="10" id="lnk5"><path codeLine="10" d="M61.02,289.26 C61.02,306.94 61.02,313.13 61.02,330.79" fill="none" id="A-backto-B" style="stroke:#181818;stroke-width:1;stroke-dasharray:7,7;"/><polygon fill="none" points="61.02,271.26,55.02,289.26,67.02,289.26,61.02,271.26" style="stroke:#181818;stroke-width:1;stroke-linejoin:miter;stroke-miterlimit:10;"/></g><!--link C to A--><g class="link" data-entity-1="ent0003" data-entity-2="ent0001" data-link-type="dependency" data-source-line="11" id="lnk6"><path codeLine="11" d="M61.02,163.26 C61.02,180.94 61.02,200.13 61.02,217.79" fill="none" id="C-to-A" style="stroke:#181818;stroke-width:1;"/><polygon fill="#181818" points="61.02,222.79,65.02,213.79,61.02,217.79,57.02,213.79,61.02,222.79" style="stroke:#181818;stroke-width:1;stroke-linejoin:miter;stroke-miterlimit:10;"/></g><!--link D to C--><g class="link" data-entity-1="ent0004" data-entity-2="ent0003" data-link-type="dependency" data-source-line="12" id="lnk7"><path codeLine="12" d="M61.02,55.26 C61.02,72.94 61.02,92.13 61.02,109.79" fill="none" id="D-to-C" style="stroke:#181818;stroke-width:1;stroke-dasharray:7,7;"/><polygon fill="#181818" points="61.02,114.79,65.02,105.79,61.02,109.79,57.02,105.79,61.02,114.79" style="stroke:#181818;stroke-width:1;stroke-linejoin:miter;stroke-miterlimit:10;"/></g><?plantuml-src AyxEp2j8B4hCLKZEIImkLgZcKb1moyyhyKlCJLLGyirCBielpayhKOXCz4ZDL89A1cTMfIeO6d7LSa4qAJthM_gqVx7-iwwzBpOkL598B5PmL51EIqipIawspidCIxLACKioCpM3Ar-mu-d-vgVhvZtlsm1MxQIWd6AQQf5Y0b5jOPHaR0PN_MH7rvCTtS-cjUi_xUr_iQ7vHKChM9CpK5DYgaKQr0gpP8lKf3IOfXVxMfzshNowVYVCGIv01raafy8Sb6HXQc9gmCNbg61JewUduCJbhA2hQwVWoEMYeATdf-0C0000?></g></svg>