<svg xmlns="http://www.w3.org/2000/svg" xmlns:xlink="http://www.w3.org/1999/xlink" contentStyleType="text/css" data-diagram-type="CLASS" height="244px" preserveAspectRatio="none" style="width:357px;height:244px;background:#FFFFFF;" version="1.1" viewBox="0 0 357 244" width="357px" zoomAndPan="magnify"><?plantuml 1.2026.6?><defs/><g><!--class Prototype--><g class="entity" data-qualified-name="Prototype" data-source-line="12" id="ent0001"><rect fill="#FFF2CC" height="64.2969" rx="2.5" ry="2.5" style="stroke:#D6B656;stroke-width:0.5;" width="147.6182" x="42.35" y="7"/><ellipse cx="83.1138" cy="23" fill="#B4A7E5" rx="11" ry="11" style="stroke:#181818;stroke-width:1;"/><path d="M79.0357,18.7656 L79.0357,16.6094 L86.4263,16.6094 L86.4263,18.7656 L83.9576,18.7656 L83.9576,26.8438 L86.4263,26.8438 L86.4263,29 L79.0357,29 L79.0357,26.8438 L81.5044,26.8438 L81.5044,18.7656 L79.0357,18.7656 Z " fill="#000000"/><text fill="#000000" font-family="'Microsoft YaHei'" font-size="12" font-style="italic" lengthAdjust="spacing" textLength="58.3652" x="102.8391" y="27.1543">Prototype</text><line style="stroke:#D6B656;stroke-width:0.5;" x1="43.35" x2="188.9682" y1="39" y2="39"/><line style="stroke:#D6B656;stroke-width:0.5;" x1="43.35" x2="188.9682" y1="47" y2="47"/><g data-visibility-modifier="PUBLIC_METHOD"><ellipse cx="53.35" cy="60.6484" fill="#84BE84" rx="3" ry="3" style="stroke:#038048;stroke-width:1;"/></g><text fill="#000000" font-family="sans-serif" font-size="14" lengthAdjust="spacing" textLength="121.6182" x="62.35" y="63.9951">copy(): Prototype</text></g><!--class DocumentTemplate--><g class="entity" data-qualified-name="DocumentTemplate" data-source-line="15" id="ent0002"><rect fill="#D5E8D4" height="96.8906" rx="2.5" ry="2.5" style="stroke:#82B366;stroke-width:0.5;" width="218.3154" x="7" y="132.3"/><ellipse cx="52.4263" cy="148.3" fill="#ADD1B2" rx="11" ry="11" style="stroke:#181818;stroke-width:1;"/><path d="M55.395,153.9406 Q54.8169,154.2375 54.1763,154.3781 Q53.5356,154.5344 52.8325,154.5344 Q50.3325,154.5344 49.0044,152.8938 Q47.6919,151.2375 47.6919,148.1125 Q47.6919,144.9875 49.0044,143.3313 Q50.3325,141.675 52.8325,141.675 Q53.5356,141.675 54.1763,141.8313 Q54.8325,141.9875 55.395,142.2844 L55.395,145.0031 Q54.77,144.425 54.1763,144.1594 Q53.5825,143.8781 52.9575,143.8781 Q51.6138,143.8781 50.9263,144.9563 Q50.2388,146.0188 50.2388,148.1125 Q50.2388,150.2063 50.9263,151.2844 Q51.6138,152.3469 52.9575,152.3469 Q53.5825,152.3469 54.1763,152.0813 Q54.77,151.8 55.395,151.2219 L55.395,153.9406 Z " fill="#000000"/><text fill="#000000" font-family="'Microsoft YaHei'" font-size="12" lengthAdjust="spacing" textLength="118.9629" x="72.9263" y="152.4543">DocumentTemplate</text><line style="stroke:#82B366;stroke-width:0.5;" x1="8" x2="224.3154" y1="164.3" y2="164.3"/><g data-visibility-modifier="PRIVATE_FIELD"><rect fill="none" height="6" style="stroke:#C82930;stroke-width:1;" width="6" x="15" y="174.9484"/></g><text fill="#000000" font-family="sans-serif" font-size="14" lengthAdjust="spacing" textLength="78.3193" x="27" y="181.2951">title: String</text><g data-visibility-modifier="PRIVATE_FIELD"><rect fill="none" height="6" style="stroke:#C82930;stroke-width:1;" width="6" x="15" y="191.2453"/></g><text fill="#000000" font-family="sans-serif" font-size="14" lengthAdjust="spacing" textLength="106.5654" x="27" y="197.592">metadata: Map</text><line style="stroke:#82B366;stroke-width:0.5;" x1="8" x2="224.3154" y1="204.8938" y2="204.8938"/><g data-visibility-modifier="PUBLIC_METHOD"><ellipse cx="18" cy="218.5422" fill="#84BE84" rx="3" ry="3" style="stroke:#038048;stroke-width:1;"/></g><text fill="#000000" font-family="sans-serif" font-size="14" lengthAdjust="spacing" textLength="192.3154" x="27" y="221.8889">copy(): DocumentTemplate</text></g><!--reverse link Prototype to DocumentTemplate--><g class="link" data-entity-1="ent0001" data-entity-2="ent0002" data-link-type="extension" data-source-line="20" id="lnk3"><path codeLine="20" d="M116.16,89.48 C116.16,107.32 116.16,112.05 116.16,132.07" fill="none" id="Prototype-backto-DocumentTemplate" style="stroke:#181818;stroke-width:1;stroke-dasharray:7,7;"/><polygon fill="none" points="116.16,71.48,110.16,89.48,122.16,89.48,116.16,71.48" style="stroke:#181818;stroke-width:1;stroke-linejoin:miter;stroke-miterlimit:10;"/></g><!--link DocumentTemplate to DocumentTemplate--><g class="link" data-entity-1="ent0002" data-entity-2="ent0002" data-link-type="dependency" data-source-line="21" id="lnk4"><path codeLine="21" d="M225.53,166.7 C245.94,168.43 260.32,173.11 260.32,180.74 C260.32,188.38 250.9221,192.6377 230.5121,194.3677" fill="none" id="DocumentTemplate-to-DocumentTemplate" style="stroke:#181818;stroke-width:1;"/><polygon fill="#181818" points="225.53,194.79,234.8357,198.0156,230.5121,194.3677,234.16,190.0442,225.53,194.79" style="stroke:#181818;stroke-width:1;stroke-linejoin:miter;stroke-miterlimit:10;"/><text fill="#000000" font-family="sans-serif" font-size="13" lengthAdjust="spacing" textLength="70.3765" x="266.32" y="185.3069">clone/copy</text></g><?plantuml-src RP5DJyCm38Rl_HNMTW6X3b5OL9Lf1q28on3Ik71q4sUAbiPLwXt6ntydfOCXolMrypolbMxhGeiH6z0UkmxUCe0RrDjDv5qmj-mvmjGWbLRt4uw6uY5LkgJQflIUWpnYGp1PEHsvOolmWW_a9eVXshqIN1JPHzRzw08B_M-prXPwP3EgLdEL49aBGj6Y9dYAB2pxbhuVNNiNg1fMl-1dcjlzoMbrN4s4uT8xrhk6WZnJqtfCPQPcJgMv6XXbKL-gWP6B4qyLh2MwiEc3XWGD2bQmmlQtvIypoOuT5--psNXZL2FFb-DkLVeU3dJUYpu1?></g></svg>