<svg xmlns="http://www.w3.org/2000/svg" xmlns:xlink="http://www.w3.org/1999/xlink" contentStyleType="text/css" data-diagram-type="CLASS" height="351px" preserveAspectRatio="none" style="width:318px;height:351px;background:#FFFFFF;" version="1.1" viewBox="0 0 318 351" width="318px" zoomAndPan="magnify"><?plantuml 1.2026.6?><defs/><g><!--class Observer--><g class="entity" data-qualified-name="Observer" data-source-line="12" id="ent0001"><rect fill="#FFF2CC" height="64.2969" rx="2.5" ry="2.5" style="stroke:#D6B656;stroke-width:0.5;" width="165.1523" x="37.05" y="163.89"/><ellipse cx="87.8518" cy="179.89" fill="#B4A7E5" rx="11" ry="11" style="stroke:#181818;stroke-width:1;"/><path d="M83.7736,175.6556 L83.7736,173.4994 L91.1643,173.4994 L91.1643,175.6556 L88.6955,175.6556 L88.6955,183.7338 L91.1643,183.7338 L91.1643,185.89 L83.7736,185.89 L83.7736,183.7338 L86.2424,183.7338 L86.2424,175.6556 L83.7736,175.6556 Z " fill="#000000"/><text fill="#000000" font-family="'Microsoft YaHei'" font-size="12" font-style="italic" lengthAdjust="spacing" textLength="55.0488" x="108.3518" y="184.0443">Observer</text><line style="stroke:#D6B656;stroke-width:0.5;" x1="38.05" x2="201.2023" y1="195.89" y2="195.89"/><line style="stroke:#D6B656;stroke-width:0.5;" x1="38.05" x2="201.2023" y1="203.89" y2="203.89"/><g data-visibility-modifier="PUBLIC_METHOD"><ellipse cx="48.05" cy="217.5384" fill="#84BE84" rx="3" ry="3" style="stroke:#038048;stroke-width:1;"/></g><text fill="#000000" font-family="sans-serif" font-size="14" lengthAdjust="spacing" textLength="139.1523" x="57.05" y="220.8851">update(Event): void</text></g><!--class Subject--><g class="entity" data-qualified-name="Subject" data-source-line="15" id="ent0002"><rect fill="#DAE8FC" height="96.8906" rx="2.5" ry="2.5" style="stroke:#6C8EBF;stroke-width:0.5;" width="216.3877" x="86.44" y="7"/><ellipse cx="167.9542" cy="23" fill="#ADD1B2" rx="11" ry="11" style="stroke:#181818;stroke-width:1;"/><path d="M170.9229,28.6406 Q170.3448,28.9375 169.7042,29.0781 Q169.0635,29.2344 168.3604,29.2344 Q165.8604,29.2344 164.5323,27.5938 Q163.2198,25.9375 163.2198,22.8125 Q163.2198,19.6875 164.5323,18.0313 Q165.8604,16.375 168.3604,16.375 Q169.0635,16.375 169.7042,16.5313 Q170.3604,16.6875 170.9229,16.9844 L170.9229,19.7031 Q170.2979,19.125 169.7042,18.8594 Q169.1104,18.5781 168.4854,18.5781 Q167.1417,18.5781 166.4542,19.6563 Q165.7667,20.7188 165.7667,22.8125 Q165.7667,24.9063 166.4542,25.9844 Q167.1417,27.0469 168.4854,27.0469 Q169.1104,27.0469 169.7042,26.7813 Q170.2979,26.5 170.9229,25.9219 L170.9229,28.6406 Z " fill="#000000"/><text fill="#000000" font-family="'Microsoft YaHei'" font-size="12" lengthAdjust="spacing" textLength="44.8594" x="188.4542" y="27.1543">Subject</text><line style="stroke:#6C8EBF;stroke-width:0.5;" x1="87.44" x2="301.8277" y1="39" y2="39"/><g data-visibility-modifier="PRIVATE_FIELD"><rect fill="none" height="6" style="stroke:#C82930;stroke-width:1;" width="6" x="94.44" y="49.6484"/></g><text fill="#000000" font-family="sans-serif" font-size="14" lengthAdjust="spacing" textLength="190.3877" x="106.44" y="55.9951">observers: List&lt;Observer&gt;</text><line style="stroke:#6C8EBF;stroke-width:0.5;" x1="87.44" x2="301.8277" y1="63.2969" y2="63.2969"/><g data-visibility-modifier="PUBLIC_METHOD"><ellipse cx="97.44" cy="76.9453" fill="#84BE84" rx="3" ry="3" style="stroke:#038048;stroke-width:1;"/></g><text fill="#000000" font-family="sans-serif" font-size="14" lengthAdjust="spacing" textLength="158.6484" x="106.44" y="80.292">attach(Observer): void</text><g data-visibility-modifier="PUBLIC_METHOD"><ellipse cx="97.44" cy="93.2422" fill="#84BE84" rx="3" ry="3" style="stroke:#038048;stroke-width:1;"/></g><text fill="#000000" font-family="sans-serif" font-size="14" lengthAdjust="spacing" textLength="129.8555" x="106.44" y="96.5889">notify(Event): void</text></g><!--class ObserverA--><g class="entity" data-qualified-name="ObserverA" data-source-line="20" id="ent0003"><rect fill="#DAE8FC" height="48" rx="2.5" ry="2.5" style="stroke:#6C8EBF;stroke-width:0.5;" width="95.2578" x="7" y="288.19"/><ellipse cx="22" cy="304.19" fill="#ADD1B2" rx="11" ry="11" style="stroke:#181818;stroke-width:1;"/><path d="M24.9688,309.8306 Q24.3906,310.1275 23.75,310.2681 Q23.1094,310.4244 22.4063,310.4244 Q19.9063,310.4244 18.5781,308.7838 Q17.2656,307.1275 17.2656,304.0025 Q17.2656,300.8775 18.5781,299.2213 Q19.9063,297.565 22.4063,297.565 Q23.1094,297.565 23.75,297.7213 Q24.4063,297.8775 24.9688,298.1744 L24.9688,300.8931 Q24.3438,300.315 23.75,300.0494 Q23.1563,299.7681 22.5313,299.7681 Q21.1875,299.7681 20.5,300.8463 Q19.8125,301.9088 19.8125,304.0025 Q19.8125,306.0963 20.5,307.1744 Q21.1875,308.2369 22.5313,308.2369 Q23.1563,308.2369 23.75,307.9713 Q24.3438,307.69 24.9688,307.1119 L24.9688,309.8306 Z " fill="#000000"/><text fill="#000000" font-family="'Microsoft YaHei'" font-size="12" lengthAdjust="spacing" textLength="63.2578" x="36" y="308.3443">ObserverA</text><line style="stroke:#6C8EBF;stroke-width:0.5;" x1="8" x2="101.2578" y1="320.19" y2="320.19"/><line style="stroke:#6C8EBF;stroke-width:0.5;" x1="8" x2="101.2578" y1="328.19" y2="328.19"/></g><!--class ObserverB--><g class="entity" data-qualified-name="ObserverB" data-source-line="21" id="ent0004"><rect fill="#DAE8FC" height="48" rx="2.5" ry="2.5" style="stroke:#6C8EBF;stroke-width:0.5;" width="95.2813" x="136.99" y="288.19"/><ellipse cx="151.99" cy="304.19" fill="#ADD1B2" rx="11" ry="11" style="stroke:#181818;stroke-width:1;"/><path d="M154.9588,309.8306 Q154.3806,310.1275 153.74,310.2681 Q153.0994,310.4244 152.3963,310.4244 Q149.8963,310.4244 148.5681,308.7838 Q147.2556,307.1275 147.2556,304.0025 Q147.2556,300.8775 148.5681,299.2213 Q149.8963,297.565 152.3963,297.565 Q153.0994,297.565 153.74,297.7213 Q154.3963,297.8775 154.9588,298.1744 L154.9588,300.8931 Q154.3338,300.315 153.74,300.0494 Q153.1463,299.7681 152.5213,299.7681 Q151.1775,299.7681 150.49,300.8463 Q149.8025,301.9088 149.8025,304.0025 Q149.8025,306.0963 150.49,307.1744 Q151.1775,308.2369 152.5213,308.2369 Q153.1463,308.2369 153.74,307.9713 Q154.3338,307.69 154.9588,307.1119 L154.9588,309.8306 Z " fill="#000000"/><text fill="#000000" font-family="'Microsoft YaHei'" font-size="12" lengthAdjust="spacing" textLength="63.2813" x="165.99" y="308.3443">ObserverB</text><line style="stroke:#6C8EBF;stroke-width:0.5;" x1="137.99" x2="231.2713" y1="320.19" y2="320.19"/><line style="stroke:#6C8EBF;stroke-width:0.5;" x1="137.99" x2="231.2713" y1="328.19" y2="328.19"/></g><!--class Event--><g class="entity" data-qualified-name="Event" data-source-line="22" id="ent0005"><rect fill="#FFF2CC" height="48" rx="2.5" ry="2.5" style="stroke:#D6B656;stroke-width:0.5;" width="66.377" x="237.44" y="172.04"/><ellipse cx="252.44" cy="188.04" fill="#ADD1B2" rx="11" ry="11" style="stroke:#181818;stroke-width:1;"/><path d="M255.4088,193.6806 Q254.8306,193.9775 254.19,194.1181 Q253.5494,194.2744 252.8463,194.2744 Q250.3463,194.2744 249.0181,192.6338 Q247.7056,190.9775 247.7056,187.8525 Q247.7056,184.7275 249.0181,183.0713 Q250.3463,181.415 252.8463,181.415 Q253.5494,181.415 254.19,181.5713 Q254.8463,181.7275 255.4088,182.0244 L255.4088,184.7431 Q254.7838,184.165 254.19,183.8994 Q253.5963,183.6181 252.9713,183.6181 Q251.6275,183.6181 250.94,184.6963 Q250.2525,185.7588 250.2525,187.8525 Q250.2525,189.9463 250.94,191.0244 Q251.6275,192.0869 252.9713,192.0869 Q253.5963,192.0869 254.19,191.8213 Q254.7838,191.54 255.4088,190.9619 L255.4088,193.6806 Z " fill="#000000"/><text fill="#000000" font-family="'Microsoft YaHei'" font-size="12" lengthAdjust="spacing" textLength="34.377" x="266.44" y="192.1943">Event</text><line style="stroke:#D6B656;stroke-width:0.5;" x1="238.44" x2="302.817" y1="204.04" y2="204.04"/><line style="stroke:#D6B656;stroke-width:0.5;" x1="238.44" x2="302.817" y1="212.04" y2="212.04"/></g><!--reverse link Observer to ObserverA--><g class="link" data-entity-1="ent0001" data-entity-2="ent0003" data-link-type="extension" data-source-line="23" id="lnk6"><path codeLine="23" d="M92.7875,244.1786 C82.1075,262.9186 77.71,270.66 67.97,287.77" fill="none" id="Observer-backto-ObserverA" style="stroke:#181818;stroke-width:1;stroke-dasharray:7,7;"/><polygon fill="none" points="101.7,228.54,87.5746,241.2078,98.0004,247.1495,101.7,228.54" style="stroke:#181818;stroke-width:1;stroke-linejoin:miter;stroke-miterlimit:10;"/></g><!--reverse link Observer to ObserverB--><g class="link" data-entity-1="ent0001" data-entity-2="ent0004" data-link-type="extension" data-source-line="24" id="lnk7"><path codeLine="24" d="M146.4662,244.1822 C157.1362,262.9222 161.55,270.66 171.29,287.77" fill="none" id="Observer-backto-ObserverB" style="stroke:#181818;stroke-width:1;stroke-dasharray:7,7;"/><polygon fill="none" points="137.56,228.54,141.2521,247.151,151.6803,241.2135,137.56,228.54" style="stroke:#181818;stroke-width:1;stroke-linejoin:miter;stroke-miterlimit:10;"/></g><!--link Subject to Observer--><g class="link" data-entity-1="ent0002" data-entity-2="ent0001" data-link-type="aggregation" data-source-line="25" id="lnk8"><path codeLine="25" d="M163.1098,114.6943 C152.4298,134.4343 148.4399,141.8027 138.9199,159.3927" fill="none" id="Subject-Observer" style="stroke:#181818;stroke-width:1;"/><polygon fill="none" points="168.82,104.14,162.4468,107.5137,163.1098,114.6943,169.483,111.3206,168.82,104.14" style="stroke:#181818;stroke-width:1;stroke-linejoin:miter;stroke-miterlimit:10;"/><polygon fill="#181818" points="136.54,163.79,144.3416,157.7788,138.9199,159.3927,137.306,153.971,136.54,163.79" style="stroke:#181818;stroke-width:1;stroke-linejoin:miter;stroke-miterlimit:10;"/></g><!--link Subject to Event--><g class="link" data-entity-1="ent0002" data-entity-2="ent0005" data-link-type="dependency" data-source-line="26" id="lnk9"><path codeLine="26" d="M220.78,104.14 C233.32,127.01 245.3661,148.9758 255.4661,167.3958" fill="none" id="Subject-to-Event" style="stroke:#181818;stroke-width:1;stroke-dasharray:7,7;"/><polygon fill="#181818" points="257.87,171.78,257.0503,161.9653,255.4661,167.3958,250.0356,165.8116,257.87,171.78" style="stroke:#181818;stroke-width:1;stroke-linejoin:miter;stroke-miterlimit:10;"/></g><?plantuml-src ROzBJyCm48Jl_XMhSYb2YKGbeYfKaGW2SU1nw8dZnbw3QUgjR2SIh_zEciGHWXntPcT6dzyPUq27Uv0rUW-V0g14kNjnt5XrpJKxE558QosF3Zj5RbGpkQPAT-ejs_28UuB5Wv6EFUi0ptX7PZ6QM_D1SBuIty9FSvO3pQzfhLVotvhAgkmYwog4iO6SHadmL7boBKsPozfOoeVFllkiEIWCjBnfoORJ75esggiOKBTDzKOoHBmXF43ruOJ7Uf_3lV5X4-UAOpE6WF9r6RLOtZaTcT7lyvln_UhFNOvt7vh34HFhvYjDV_NCwwM8T9manIHFQfeMmzOF?></g></svg>