<svg xmlns="http://www.w3.org/2000/svg" xmlns:xlink="http://www.w3.org/1999/xlink" contentStyleType="text/css" data-diagram-type="CLASS" height="334px" preserveAspectRatio="none" style="width:367px;height:334px;background:#FFFFFF;" version="1.1" viewBox="0 0 367 334" width="367px" zoomAndPan="magnify"><?plantuml 1.2026.6?><defs/><g><!--class Strategy--><g class="entity" data-qualified-name="Strategy" data-source-line="12" id="ent0001"><rect fill="#FFF2CC" height="64.2969" rx="2.5" ry="2.5" style="stroke:#D6B656;stroke-width:0.5;" width="189.2969" x="85.16" y="147.59"/><ellipse cx="149.8504" cy="163.59" fill="#B4A7E5" rx="11" ry="11" style="stroke:#181818;stroke-width:1;"/><path d="M145.7723,159.3556 L145.7723,157.1994 L153.1629,157.1994 L153.1629,159.3556 L150.6942,159.3556 L150.6942,167.4337 L153.1629,167.4337 L153.1629,169.59 L145.7723,169.59 L145.7723,167.4337 L148.2411,167.4337 L148.2411,159.3556 L145.7723,159.3556 Z " fill="#000000"/><text fill="#000000" font-family="'Microsoft YaHei'" font-size="12" font-style="italic" lengthAdjust="spacing" textLength="51.416" x="170.3504" y="167.7443">Strategy</text><line style="stroke:#D6B656;stroke-width:0.5;" x1="86.16" x2="273.4569" y1="179.59" y2="179.59"/><line style="stroke:#D6B656;stroke-width:0.5;" x1="86.16" x2="273.4569" y1="187.59" y2="187.59"/><g data-visibility-modifier="PUBLIC_METHOD"><ellipse cx="96.16" cy="201.2384" fill="#84BE84" rx="3" ry="3" style="stroke:#038048;stroke-width:1;"/></g><text fill="#000000" font-family="sans-serif" font-size="14" lengthAdjust="spacing" textLength="163.2969" x="105.16" y="204.5851">calculate(input): Result</text></g><!--class StrategyA--><g class="entity" data-qualified-name="StrategyA" data-source-line="15" id="ent0002"><rect fill="#DAE8FC" height="48" rx="2.5" ry="2.5" style="stroke:#6C8EBF;stroke-width:0.5;" width="91.625" x="7" y="271.89"/><ellipse cx="22" cy="287.89" fill="#ADD1B2" rx="11" ry="11" style="stroke:#181818;stroke-width:1;"/><path d="M24.9688,293.5306 Q24.3906,293.8275 23.75,293.9681 Q23.1094,294.1244 22.4063,294.1244 Q19.9063,294.1244 18.5781,292.4838 Q17.2656,290.8275 17.2656,287.7025 Q17.2656,284.5775 18.5781,282.9213 Q19.9063,281.265 22.4063,281.265 Q23.1094,281.265 23.75,281.4213 Q24.4063,281.5775 24.9688,281.8744 L24.9688,284.5931 Q24.3438,284.015 23.75,283.7494 Q23.1563,283.4681 22.5313,283.4681 Q21.1875,283.4681 20.5,284.5463 Q19.8125,285.6088 19.8125,287.7025 Q19.8125,289.7963 20.5,290.8744 Q21.1875,291.9369 22.5313,291.9369 Q23.1563,291.9369 23.75,291.6713 Q24.3438,291.39 24.9688,290.8119 L24.9688,293.5306 Z " fill="#000000"/><text fill="#000000" font-family="'Microsoft YaHei'" font-size="12" lengthAdjust="spacing" textLength="59.625" x="36" y="292.0443">StrategyA</text><line style="stroke:#6C8EBF;stroke-width:0.5;" x1="8" x2="97.625" y1="303.89" y2="303.89"/><line style="stroke:#6C8EBF;stroke-width:0.5;" x1="8" x2="97.625" y1="311.89" y2="311.89"/></g><!--class StrategyB--><g class="entity" data-qualified-name="StrategyB" data-source-line="16" id="ent0003"><rect fill="#DAE8FC" height="48" rx="2.5" ry="2.5" style="stroke:#6C8EBF;stroke-width:0.5;" width="91.6484" x="133.99" y="271.89"/><ellipse cx="148.99" cy="287.89" fill="#ADD1B2" rx="11" ry="11" style="stroke:#181818;stroke-width:1;"/><path d="M151.9588,293.5306 Q151.3806,293.8275 150.74,293.9681 Q150.0994,294.1244 149.3963,294.1244 Q146.8963,294.1244 145.5681,292.4838 Q144.2556,290.8275 144.2556,287.7025 Q144.2556,284.5775 145.5681,282.9213 Q146.8963,281.265 149.3963,281.265 Q150.0994,281.265 150.74,281.4213 Q151.3963,281.5775 151.9588,281.8744 L151.9588,284.5931 Q151.3338,284.015 150.74,283.7494 Q150.1463,283.4681 149.5213,283.4681 Q148.1775,283.4681 147.49,284.5463 Q146.8025,285.6088 146.8025,287.7025 Q146.8025,289.7963 147.49,290.8744 Q148.1775,291.9369 149.5213,291.9369 Q150.1463,291.9369 150.74,291.6713 Q151.3338,291.39 151.9588,290.8119 L151.9588,293.5306 Z " fill="#000000"/><text fill="#000000" font-family="'Microsoft YaHei'" font-size="12" lengthAdjust="spacing" textLength="59.6484" x="162.99" y="292.0443">StrategyB</text><line style="stroke:#6C8EBF;stroke-width:0.5;" x1="134.99" x2="224.6384" y1="303.89" y2="303.89"/><line style="stroke:#6C8EBF;stroke-width:0.5;" x1="134.99" x2="224.6384" y1="311.89" y2="311.89"/></g><!--class StrategyC--><g class="entity" data-qualified-name="StrategyC" data-source-line="17" id="ent0004"><rect fill="#DAE8FC" height="48" rx="2.5" ry="2.5" style="stroke:#6C8EBF;stroke-width:0.5;" width="91.7949" x="260.92" y="271.89"/><ellipse cx="275.92" cy="287.89" fill="#ADD1B2" rx="11" ry="11" style="stroke:#181818;stroke-width:1;"/><path d="M278.8887,293.5306 Q278.3106,293.8275 277.67,293.9681 Q277.0294,294.1244 276.3262,294.1244 Q273.8262,294.1244 272.4981,292.4838 Q271.1856,290.8275 271.1856,287.7025 Q271.1856,284.5775 272.4981,282.9213 Q273.8262,281.265 276.3262,281.265 Q277.0294,281.265 277.67,281.4213 Q278.3262,281.5775 278.8887,281.8744 L278.8887,284.5931 Q278.2637,284.015 277.67,283.7494 Q277.0762,283.4681 276.4512,283.4681 Q275.1075,283.4681 274.42,284.5463 Q273.7325,285.6088 273.7325,287.7025 Q273.7325,289.7963 274.42,290.8744 Q275.1075,291.9369 276.4512,291.9369 Q277.0762,291.9369 277.67,291.6713 Q278.2637,291.39 278.8887,290.8119 L278.8887,293.5306 Z " fill="#000000"/><text fill="#000000" font-family="'Microsoft YaHei'" font-size="12" lengthAdjust="spacing" textLength="59.7949" x="289.92" y="292.0443">StrategyC</text><line style="stroke:#6C8EBF;stroke-width:0.5;" x1="261.92" x2="351.7149" y1="303.89" y2="303.89"/><line style="stroke:#6C8EBF;stroke-width:0.5;" x1="261.92" x2="351.7149" y1="311.89" y2="311.89"/></g><!--class Context--><g class="entity" data-qualified-name="Context" data-source-line="18" id="ent0005"><rect fill="#DAE8FC" height="80.5938" rx="2.5" ry="2.5" style="stroke:#6C8EBF;stroke-width:0.5;" width="182.1738" x="88.73" y="7"/><ellipse cx="151.9566" cy="23" fill="#ADD1B2" rx="11" ry="11" style="stroke:#181818;stroke-width:1;"/><path d="M154.9253,28.6406 Q154.3472,28.9375 153.7066,29.0781 Q153.0659,29.2344 152.3628,29.2344 Q149.8628,29.2344 148.5347,27.5938 Q147.2222,25.9375 147.2222,22.8125 Q147.2222,19.6875 148.5347,18.0313 Q149.8628,16.375 152.3628,16.375 Q153.0659,16.375 153.7066,16.5313 Q154.3628,16.6875 154.9253,16.9844 L154.9253,19.7031 Q154.3003,19.125 153.7066,18.8594 Q153.1128,18.5781 152.4878,18.5781 Q151.1441,18.5781 150.4566,19.6563 Q149.7691,20.7188 149.7691,22.8125 Q149.7691,24.9063 150.4566,25.9844 Q151.1441,27.0469 152.4878,27.0469 Q153.1128,27.0469 153.7066,26.7813 Q154.3003,26.5 154.9253,25.9219 L154.9253,28.6406 Z " fill="#000000"/><text fill="#000000" font-family="'Microsoft YaHei'" font-size="12" lengthAdjust="spacing" textLength="47.2207" x="172.4566" y="27.1543">Context</text><line style="stroke:#6C8EBF;stroke-width:0.5;" x1="89.73" x2="269.9038" y1="39" y2="39"/><g data-visibility-modifier="PRIVATE_FIELD"><rect fill="none" height="6" style="stroke:#C82930;stroke-width:1;" width="6" x="96.73" y="49.6484"/></g><text fill="#000000" font-family="sans-serif" font-size="14" lengthAdjust="spacing" textLength="127.5449" x="108.73" y="55.9951">strategy: Strategy</text><line style="stroke:#6C8EBF;stroke-width:0.5;" x1="89.73" x2="269.9038" y1="63.2969" y2="63.2969"/><g data-visibility-modifier="PUBLIC_METHOD"><ellipse cx="99.73" cy="76.9453" fill="#84BE84" rx="3" ry="3" style="stroke:#038048;stroke-width:1;"/></g><text fill="#000000" font-family="sans-serif" font-size="14" lengthAdjust="spacing" textLength="156.1738" x="108.73" y="80.292">execute(input): Result</text></g><!--reverse link Strategy to StrategyA--><g class="link" data-entity-1="ent0001" data-entity-2="ent0002" data-link-type="extension" data-source-line="22" id="lnk6"><path codeLine="22" d="M131.3827,224.2725 C110.5327,243.0125 97.91,254.36 78.87,271.47" fill="none" id="Strategy-backto-StrategyA" style="stroke:#181818;stroke-width:1;stroke-dasharray:7,7;"/><polygon fill="none" points="144.77,212.24,127.3719,219.8101,135.3936,228.7349,144.77,212.24" style="stroke:#181818;stroke-width:1;stroke-linejoin:miter;stroke-miterlimit:10;"/></g><!--reverse link Strategy to StrategyB--><g class="link" data-entity-1="ent0001" data-entity-2="ent0003" data-link-type="extension" data-source-line="23" id="lnk7"><path codeLine="23" d="M179.81,230.24 C179.81,248.98 179.81,254.36 179.81,271.47" fill="none" id="Strategy-backto-StrategyB" style="stroke:#181818;stroke-width:1;stroke-dasharray:7,7;"/><polygon fill="none" points="179.81,212.24,173.81,230.24,185.81,230.24,179.81,212.24" style="stroke:#181818;stroke-width:1;stroke-linejoin:miter;stroke-miterlimit:10;"/></g><!--reverse link Strategy to StrategyC--><g class="link" data-entity-1="ent0001" data-entity-2="ent0004" data-link-type="extension" data-source-line="24" id="lnk8"><path codeLine="24" d="M228.2373,224.2725 C249.0873,243.0125 261.72,254.36 280.75,271.47" fill="none" id="Strategy-backto-StrategyC" style="stroke:#181818;stroke-width:1;stroke-dasharray:7,7;"/><polygon fill="none" points="214.85,212.24,224.2264,228.7349,232.2481,219.8101,214.85,212.24" style="stroke:#181818;stroke-width:1;stroke-linejoin:miter;stroke-miterlimit:10;"/></g><!--link Context to Strategy--><g class="link" data-entity-1="ent0005" data-entity-2="ent0001" data-link-type="dependency" data-source-line="25" id="lnk9"><path codeLine="25" d="M179.81,87.79 C179.81,106.83 179.81,124.37 179.81,142.24" fill="none" id="Context-to-Strategy" style="stroke:#181818;stroke-width:1;"/><polygon fill="#181818" points="179.81,147.24,183.81,138.24,179.81,142.24,175.81,138.24,179.81,147.24" style="stroke:#181818;stroke-width:1;stroke-linejoin:miter;stroke-miterlimit:10;"/></g><?plantuml-src TL1BImCn4BxdLmpreiWMBBYKLGHtGRpemPuyJcSd9JHD99b0VVrtq-u3gUjnlfdlDN5ht1i6t05PZ14-5K2DjDq4drpRUEi3dBN8Iqs7ZGyjXnujQSbhdT47x-GPTmop9qF1Hwy5Nl6HpQnVhim7mzL2VQiusZalFEscjLxG7xUsN9VNPPPGnWa7ZSImae32c_U1SsEDuwgxF6fV4bfADX-TPzya5nMyS4nMiaxNTv2uFvdhaxdfvoRNuRqCF-aSkqyS7OlO4wgHUiZ1UwOqbMAiSFird_zACutN_-2D6d8LnTs8_W00?></g></svg>