<svg xmlns="http://www.w3.org/2000/svg" xmlns:xlink="http://www.w3.org/1999/xlink" contentStyleType="text/css" data-diagram-type="DESCRIPTION" height="254px" preserveAspectRatio="none" style="width:1526px;height:254px;background:#FFFFFF;" version="1.1" viewBox="0 0 1526 254" width="1526px" zoomAndPan="magnify"><?plantuml 1.2026.6?><defs/><g><!--cluster ???--><g class="cluster" data-qualified-name="..." data-source-line="11" id="ent0001"><path d="M1087.5,6 L1130.4998,6 A3.75,3.75 0 0 1 1132.9998,8.5 L1139.9998,28.2969 L1476.5,28.2969 A2.5,2.5 0 0 1 1479,30.7969 L1479,236.69 A2.5,2.5 0 0 1 1476.5,239.19 L1087.5,239.19 A2.5,2.5 0 0 1 1085,236.69 L1085,8.5 A2.5,2.5 0 0 1 1087.5,6" fill="#F8CECC" style="stroke:#B85450;stroke-width:1.5;"/><line style="stroke:#B85450;stroke-width:1.5;" x1="1085" x2="1139.9998" y1="28.2969" y2="28.2969"/><text fill="#000000" font-family="sans-serif" font-size="14" font-weight="700" lengthAdjust="spacing" textLength="41.9998" x="1089" y="20.9951">&#21019;&#24314;&#22411;</text></g><!--cluster ???--><g class="cluster" data-qualified-name="..." data-source-line="19" id="ent0007"><path d="M8.5,6 L51.4998,6 A3.75,3.75 0 0 1 53.9998,8.5 L60.9998,28.2969 L462.5,28.2969 A2.5,2.5 0 0 1 465,30.7969 L465,236.69 A2.5,2.5 0 0 1 462.5,239.19 L8.5,239.19 A2.5,2.5 0 0 1 6,236.69 L6,8.5 A2.5,2.5 0 0 1 8.5,6" fill="#F8CECC" style="stroke:#B85450;stroke-width:1.5;"/><line style="stroke:#B85450;stroke-width:1.5;" x1="6" x2="60.9998" y1="28.2969" y2="28.2969"/><text fill="#000000" font-family="sans-serif" font-size="14" font-weight="700" lengthAdjust="spacing" textLength="41.9998" x="10" y="20.9951">&#32467;&#26500;&#22411;</text></g><!--cluster ???--><g class="cluster" data-qualified-name="..." data-source-line="29" id="ent0015"><path d="M491.5,6 L534.4998,6 A3.75,3.75 0 0 1 536.9998,8.5 L543.9998,28.2969 L1058.5,28.2969 A2.5,2.5 0 0 1 1061,30.7969 L1061,236.69 A2.5,2.5 0 0 1 1058.5,239.19 L491.5,239.19 A2.5,2.5 0 0 1 489,236.69 L489,8.5 A2.5,2.5 0 0 1 491.5,6" fill="#F8CECC" style="stroke:#B85450;stroke-width:1.5;"/><line style="stroke:#B85450;stroke-width:1.5;" x1="489" x2="543.9998" y1="28.2969" y2="28.2969"/><text fill="#000000" font-family="sans-serif" font-size="14" font-weight="700" lengthAdjust="spacing" textLength="41.9998" x="493" y="20.9951">&#34892;&#20026;&#22411;</text></g><!--entity singleton--><g class="entity" data-qualified-name="....singleton" data-source-line="12" id="ent0002"><rect fill="#DAE8FC" height="52.5938" rx="2.5" ry="2.5" style="stroke:#6C8EBF;stroke-width:0.5;" width="85.9668" x="1101.02" y="41"/><text fill="#000000" font-family="'Microsoft YaHei'" font-size="14" lengthAdjust="spacing" textLength="65.9668" x="1111.02" y="63.9951">Singleton</text><text fill="#000000" font-family="'Microsoft YaHei'" font-size="14" lengthAdjust="spacing" textLength="55.9998" x="1111.02" y="80.292">&#21807;&#19968;&#23454;&#20363;</text></g><!--entity factory--><g class="entity" data-qualified-name="....factory" data-source-line="13" id="ent0003"><rect fill="#DAE8FC" height="52.5938" rx="2.5" ry="2.5" style="stroke:#6C8EBF;stroke-width:0.5;" width="129.3818" x="1222.31" y="41"/><text fill="#000000" font-family="'Microsoft YaHei'" font-size="14" lengthAdjust="spacing" textLength="109.3818" x="1232.31" y="63.9951">Factory Method</text><text fill="#000000" font-family="'Microsoft YaHei'" font-size="14" lengthAdjust="spacing" textLength="55.9998" x="1232.31" y="80.292">&#24310;&#36831;&#21019;&#24314;</text></g><!--entity abstractFactory--><g class="entity" data-qualified-name="....abstractFactory" data-source-line="14" id="ent0004"><rect fill="#DAE8FC" height="52.5938" rx="2.5" ry="2.5" style="stroke:#6C8EBF;stroke-width:0.5;" width="135.6436" x="1104.18" y="170.6"/><text fill="#000000" font-family="'Microsoft YaHei'" font-size="14" lengthAdjust="spacing" textLength="115.6436" x="1114.18" y="193.5951">Abstract Factory</text><text fill="#000000" font-family="'Microsoft YaHei'" font-size="14" lengthAdjust="spacing" textLength="41.9998" x="1114.18" y="209.892">&#23545;&#35937;&#26063;</text></g><!--entity builder--><g class="entity" data-qualified-name="....builder" data-source-line="15" id="ent0005"><rect fill="#DAE8FC" height="52.5938" rx="2.5" ry="2.5" style="stroke:#6C8EBF;stroke-width:0.5;" width="75.9998" x="1387" y="41"/><text fill="#000000" font-family="'Microsoft YaHei'" font-size="14" lengthAdjust="spacing" textLength="49.5127" x="1397" y="63.9951">Builder</text><text fill="#000000" font-family="'Microsoft YaHei'" font-size="14" lengthAdjust="spacing" textLength="55.9998" x="1397" y="80.292">&#20998;&#27493;&#26500;&#24314;</text></g><!--entity prototype--><g class="entity" data-qualified-name="....prototype" data-source-line="16" id="ent0006"><rect fill="#DAE8FC" height="52.5938" rx="2.5" ry="2.5" style="stroke:#6C8EBF;stroke-width:0.5;" width="88.0928" x="1286.95" y="170.6"/><text fill="#000000" font-family="'Microsoft YaHei'" font-size="14" lengthAdjust="spacing" textLength="68.0928" x="1296.95" y="193.5951">Prototype</text><text fill="#000000" font-family="'Microsoft YaHei'" font-size="14" lengthAdjust="spacing" textLength="55.9998" x="1296.95" y="209.892">&#22797;&#21046;&#27169;&#26495;</text></g><!--entity adapter--><g class="entity" data-qualified-name="....adapter" data-source-line="20" id="ent0008"><rect fill="#DAE8FC" height="52.5938" rx="2.5" ry="2.5" style="stroke:#6C8EBF;stroke-width:0.5;" width="75.9998" x="262" y="41"/><text fill="#000000" font-family="'Microsoft YaHei'" font-size="14" lengthAdjust="spacing" textLength="55.7881" x="272" y="63.9951">Adapter</text><text fill="#000000" font-family="'Microsoft YaHei'" font-size="14" lengthAdjust="spacing" textLength="55.9998" x="272" y="80.292">&#25509;&#21475;&#36716;&#25442;</text></g><!--entity bridge--><g class="entity" data-qualified-name="....bridge" data-source-line="21" id="ent0009"><rect fill="#DAE8FC" height="52.5938" rx="2.5" ry="2.5" style="stroke:#6C8EBF;stroke-width:0.5;" width="75.9998" x="22" y="41"/><text fill="#000000" font-family="'Microsoft YaHei'" font-size="14" lengthAdjust="spacing" textLength="45.6367" x="32" y="63.9951">Bridge</text><text fill="#000000" font-family="'Microsoft YaHei'" font-size="14" lengthAdjust="spacing" textLength="55.9998" x="32" y="80.292">&#20998;&#31163;&#32500;&#24230;</text></g><!--entity composite--><g class="entity" data-qualified-name="....composite" data-source-line="22" id="ent0010"><rect fill="#DAE8FC" height="52.5938" rx="2.5" ry="2.5" style="stroke:#6C8EBF;stroke-width:0.5;" width="94.7168" x="132.64" y="41"/><text fill="#000000" font-family="'Microsoft YaHei'" font-size="14" lengthAdjust="spacing" textLength="74.7168" x="142.64" y="63.9951">Composite</text><text fill="#000000" font-family="'Microsoft YaHei'" font-size="14" lengthAdjust="spacing" textLength="41.9998" x="142.64" y="80.292">&#26641;&#32467;&#26500;</text></g><!--entity decorator--><g class="entity" data-qualified-name="....decorator" data-source-line="23" id="ent0011"><rect fill="#DAE8FC" height="52.5938" rx="2.5" ry="2.5" style="stroke:#6C8EBF;stroke-width:0.5;" width="89.8018" x="285.1" y="170.6"/><text fill="#000000" font-family="'Microsoft YaHei'" font-size="14" lengthAdjust="spacing" textLength="69.8018" x="295.1" y="193.5951">Decorator</text><text fill="#000000" font-family="'Microsoft YaHei'" font-size="14" lengthAdjust="spacing" textLength="55.9998" x="295.1" y="209.892">&#21160;&#24577;&#22686;&#24378;</text></g><!--entity facade--><g class="entity" data-qualified-name="....facade" data-source-line="24" id="ent0012"><rect fill="#DAE8FC" height="52.5938" rx="2.5" ry="2.5" style="stroke:#6C8EBF;stroke-width:0.5;" width="75.9998" x="159" y="170.6"/><text fill="#000000" font-family="'Microsoft YaHei'" font-size="14" lengthAdjust="spacing" textLength="50.4082" x="169" y="193.5951">Facade</text><text fill="#000000" font-family="'Microsoft YaHei'" font-size="14" lengthAdjust="spacing" textLength="55.9998" x="169" y="209.892">&#32479;&#19968;&#20837;&#21475;</text></g><!--entity flyweight--><g class="entity" data-qualified-name="....flyweight" data-source-line="25" id="ent0013"><rect fill="#DAE8FC" height="52.5938" rx="2.5" ry="2.5" style="stroke:#6C8EBF;stroke-width:0.5;" width="87.4297" x="22.29" y="170.6"/><text fill="#000000" font-family="'Microsoft YaHei'" font-size="14" lengthAdjust="spacing" textLength="67.4297" x="32.29" y="193.5951">Flyweight</text><text fill="#000000" font-family="'Microsoft YaHei'" font-size="14" lengthAdjust="spacing" textLength="55.9998" x="32.29" y="209.892">&#20849;&#20139;&#23545;&#35937;</text></g><!--entity proxy--><g class="entity" data-qualified-name="....proxy" data-source-line="26" id="ent0014"><rect fill="#DAE8FC" height="52.5938" rx="2.5" ry="2.5" style="stroke:#6C8EBF;stroke-width:0.5;" width="75.9998" x="373" y="41"/><text fill="#000000" font-family="'Microsoft YaHei'" font-size="14" lengthAdjust="spacing" textLength="39.334" x="383" y="63.9951">Proxy</text><text fill="#000000" font-family="'Microsoft YaHei'" font-size="14" lengthAdjust="spacing" textLength="55.9998" x="383" y="80.292">&#35775;&#38382;&#25511;&#21046;</text></g><!--entity chain--><g class="entity" data-qualified-name="....chain" data-source-line="30" id="ent0016"><rect fill="#DAE8FC" height="52.5938" rx="2.5" ry="2.5" style="stroke:#6C8EBF;stroke-width:0.5;" width="75.9998" x="505" y="41"/><text fill="#000000" font-family="'Microsoft YaHei'" font-size="14" lengthAdjust="spacing" textLength="39.9902" x="515" y="63.9951">Chain</text><text fill="#000000" font-family="'Microsoft YaHei'" font-size="14" lengthAdjust="spacing" textLength="55.9998" x="515" y="80.292">&#38142;&#24335;&#22788;&#29702;</text></g><!--entity command--><g class="entity" data-qualified-name="....command" data-source-line="31" id="ent0017"><rect fill="#DAE8FC" height="52.5938" rx="2.5" ry="2.5" style="stroke:#6C8EBF;stroke-width:0.5;" width="91.9551" x="723.02" y="41"/><text fill="#000000" font-family="'Microsoft YaHei'" font-size="14" lengthAdjust="spacing" textLength="71.9551" x="733.02" y="63.9951">Command</text><text fill="#000000" font-family="'Microsoft YaHei'" font-size="14" lengthAdjust="spacing" textLength="69.9997" x="733.02" y="80.292">&#35831;&#27714;&#23545;&#35937;&#21270;</text></g><!--entity iterator--><g class="entity" data-qualified-name="....iterator" data-source-line="32" id="ent0018"><rect fill="#DAE8FC" height="52.5938" rx="2.5" ry="2.5" style="stroke:#6C8EBF;stroke-width:0.5;" width="72.377" x="615.81" y="41"/><text fill="#000000" font-family="'Microsoft YaHei'" font-size="14" lengthAdjust="spacing" textLength="52.377" x="625.81" y="63.9951">Iterator</text><text fill="#000000" font-family="'Microsoft YaHei'" font-size="14" lengthAdjust="spacing" textLength="27.9999" x="625.81" y="80.292">&#36941;&#21382;</text></g><!--entity mediator--><g class="entity" data-qualified-name="....mediator" data-source-line="33" id="ent0019"><rect fill="#DAE8FC" height="52.5938" rx="2.5" ry="2.5" style="stroke:#6C8EBF;stroke-width:0.5;" width="81.8584" x="805.07" y="170.6"/><text fill="#000000" font-family="'Microsoft YaHei'" font-size="14" lengthAdjust="spacing" textLength="61.8584" x="815.07" y="193.5951">Mediator</text><text fill="#000000" font-family="'Microsoft YaHei'" font-size="14" lengthAdjust="spacing" textLength="55.9998" x="815.07" y="209.892">&#38598;&#20013;&#21327;&#35843;</text></g><!--entity memento--><g class="entity" data-qualified-name="....memento" data-source-line="34" id="ent0020"><rect fill="#DAE8FC" height="52.5938" rx="2.5" ry="2.5" style="stroke:#6C8EBF;stroke-width:0.5;" width="85.8711" x="684.06" y="170.6"/><text fill="#000000" font-family="'Microsoft YaHei'" font-size="14" lengthAdjust="spacing" textLength="65.8711" x="694.06" y="193.5951">Memento</text><text fill="#000000" font-family="'Microsoft YaHei'" font-size="14" lengthAdjust="spacing" textLength="55.9998" x="694.06" y="209.892">&#29366;&#24577;&#24555;&#29031;</text></g><!--entity observer--><g class="entity" data-qualified-name="....observer" data-source-line="35" id="ent0021"><rect fill="#DAE8FC" height="52.5938" rx="2.5" ry="2.5" style="stroke:#6C8EBF;stroke-width:0.5;" width="84.2236" x="849.89" y="41"/><text fill="#000000" font-family="'Microsoft YaHei'" font-size="14" lengthAdjust="spacing" textLength="64.2236" x="859.89" y="63.9951">Observer</text><text fill="#000000" font-family="'Microsoft YaHei'" font-size="14" lengthAdjust="spacing" textLength="55.9998" x="859.89" y="80.292">&#20107;&#20214;&#36890;&#30693;</text></g><!--entity state--><g class="entity" data-qualified-name="....state" data-source-line="36" id="ent0022"><rect fill="#DAE8FC" height="52.5938" rx="2.5" ry="2.5" style="stroke:#6C8EBF;stroke-width:0.5;" width="75.9998" x="969" y="41"/><text fill="#000000" font-family="'Microsoft YaHei'" font-size="14" lengthAdjust="spacing" textLength="37.0576" x="979" y="63.9951">State</text><text fill="#000000" font-family="'Microsoft YaHei'" font-size="14" lengthAdjust="spacing" textLength="55.9998" x="979" y="80.292">&#29366;&#24577;&#34892;&#20026;</text></g><!--entity strategy--><g class="entity" data-qualified-name="....strategy" data-source-line="37" id="ent0023"><rect fill="#DAE8FC" height="52.5938" rx="2.5" ry="2.5" style="stroke:#6C8EBF;stroke-width:0.5;" width="79.9854" x="922.01" y="170.6"/><text fill="#000000" font-family="'Microsoft YaHei'" font-size="14" lengthAdjust="spacing" textLength="59.9854" x="932.01" y="193.5951">Strategy</text><text fill="#000000" font-family="'Microsoft YaHei'" font-size="14" lengthAdjust="spacing" textLength="55.9998" x="932.01" y="209.892">&#31639;&#27861;&#26367;&#25442;</text></g><!--entity template--><g class="entity" data-qualified-name="....template" data-source-line="38" id="ent0024"><rect fill="#DAE8FC" height="52.5938" rx="2.5" ry="2.5" style="stroke:#6C8EBF;stroke-width:0.5;" width="143.2178" x="505.39" y="170.6"/><text fill="#000000" font-family="'Microsoft YaHei'" font-size="14" lengthAdjust="spacing" textLength="123.2178" x="515.39" y="193.5951">Template Method</text><text fill="#000000" font-family="'Microsoft YaHei'" font-size="14" lengthAdjust="spacing" textLength="55.9998" x="515.39" y="209.892">&#27969;&#31243;&#39592;&#26550;</text></g><!--link factory to abstractFactory--><g class="link" data-entity-1="ent0003" data-entity-2="ent0004" data-link-type="dependency" data-source-line="41" id="lnk25"><path d="M1264,93.81 C1243.95,116.07 1218.347,144.4655 1198.307,166.7055" fill="none" id="factory-to-abstractFactory" style="stroke:#181818;stroke-width:1;"/><polygon fill="#181818" points="1194.96,170.42,1203.9562,166.4116,1198.307,166.7055,1198.0131,161.0563,1194.96,170.42" style="stroke:#181818;stroke-width:1;stroke-linejoin:miter;stroke-miterlimit:10;"/><text fill="#000000" font-family="sans-serif" font-size="13" lengthAdjust="spacing" textLength="117.0001" x="1237.39" y="136.6669">&#22810;&#20010;&#20135;&#21697;&#24418;&#25104;&#23545;&#35937;&#26063;</text></g><!--link builder to prototype--><g class="link" data-entity-1="ent0005" data-entity-2="ent0006" data-link-type="dependency" data-source-line="42" id="lnk26"><path d="M1402.65,93.99 C1394.93,103.16 1386.38,113.68 1379,123.6 C1367.75,138.7 1358.7555,152.0852 1349.7155,166.1352" fill="none" id="builder-to-prototype" style="stroke:#181818;stroke-width:1;"/><polygon fill="#181818" points="1347.01,170.34,1355.2437,164.9357,1349.7155,166.1352,1348.516,160.607,1347.01,170.34" style="stroke:#181818;stroke-width:1;stroke-linejoin:miter;stroke-miterlimit:10;"/><text fill="#000000" font-family="sans-serif" font-size="13" lengthAdjust="spacing" textLength="130.0002" x="1380" y="136.6669">&#37117;&#21487;&#38477;&#20302;&#22797;&#26434;&#21019;&#24314;&#25104;&#26412;</text></g><!--link adapter to facade--><g class="link" data-entity-1="ent0008" data-entity-2="ent0012" data-link-type="dependency" data-source-line="43" id="lnk27"><path d="M279.4,93.81 C261.44,116.07 238.6503,144.2892 220.7003,166.5292" fill="none" id="adapter-to-facade" style="stroke:#181818;stroke-width:1;"/><polygon fill="#181818" points="217.56,170.42,226.3252,165.9288,220.7003,166.5292,220.0999,160.9043,217.56,170.42" style="stroke:#181818;stroke-width:1;stroke-linejoin:miter;stroke-miterlimit:10;"/><text fill="#000000" font-family="sans-serif" font-size="13" lengthAdjust="spacing" textLength="91.0001" x="255.67" y="136.6669">&#37117;&#21487;&#21253;&#19968;&#23618;&#25509;&#21475;</text></g><!--link proxy to decorator--><g class="link" data-entity-1="ent0014" data-entity-2="ent0011" data-link-type="dependency" data-source-line="44" id="lnk28"><path d="M390.88,93.96 C383.98,103.12 376.4,113.65 370,123.6 C360.3,138.68 352.8723,151.8526 345.4223,165.9026" fill="none" id="proxy-to-decorator" style="stroke:#181818;stroke-width:1;"/><polygon fill="#181818" points="343.08,170.32,350.8301,164.2425,345.4223,165.9026,343.7623,160.4948,343.08,170.32" style="stroke:#181818;stroke-width:1;stroke-linejoin:miter;stroke-miterlimit:10;"/><text fill="#000000" font-family="sans-serif" font-size="13" lengthAdjust="spacing" textLength="117.0001" x="371" y="136.6669">&#32467;&#26500;&#30456;&#20284;&#65292;&#24847;&#22270;&#19981;&#21516;</text></g><!--link state to strategy--><g class="link" data-entity-1="ent0022" data-entity-2="ent0023" data-link-type="dependency" data-source-line="45" id="lnk29"><path d="M992.44,93.89 C987.67,103.05 982.65,113.59 979,123.6 C973.48,138.74 970.278,151.4286 967.448,165.4686" fill="none" id="state-to-strategy" style="stroke:#181818;stroke-width:1;"/><polygon fill="#181818" points="966.46,170.37,972.1595,162.3378,967.448,165.4686,964.3172,160.7571,966.46,170.37" style="stroke:#181818;stroke-width:1;stroke-linejoin:miter;stroke-miterlimit:10;"/><text fill="#000000" font-family="sans-serif" font-size="13" lengthAdjust="spacing" textLength="104.0001" x="980" y="136.6669">&#37117;&#23553;&#35013;&#21487;&#26367;&#25442;&#34892;&#20026;</text></g><!--link command to memento--><g class="link" data-entity-1="ent0017" data-entity-2="ent0020" data-link-type="dependency" data-source-line="46" id="lnk30"><path d="M722.66,87.41 C688.08,101.89 646.4,119.9 644,123.6 C629.14,146.42 652.034,164.0631 679.254,177.1531" fill="none" id="command-to-memento" style="stroke:#181818;stroke-width:1;"/><polygon fill="#181818" points="683.76,179.32,677.3827,171.8147,679.254,177.1531,673.9156,179.0243,683.76,179.32" style="stroke:#181818;stroke-width:1;stroke-linejoin:miter;stroke-miterlimit:10;"/><text fill="#000000" font-family="sans-serif" font-size="13" lengthAdjust="spacing" textLength="91.0001" x="645" y="136.6669">&#25764;&#38144;&#24120;&#37197;&#21512;&#24555;&#29031;</text></g><!--link observer to mediator--><g class="link" data-entity-1="ent0021" data-entity-2="ent0019" data-link-type="dependency" data-source-line="47" id="lnk31"><path d="M865.28,93.85 C857.94,102.52 850.93,112.78 847,123.6 C841.6,138.46 840.8975,151.2239 841.9575,165.4139" fill="none" id="observer-to-mediator" style="stroke:#181818;stroke-width:1;"/><polygon fill="#181818" points="842.33,170.4,845.6484,161.127,841.9575,165.4139,837.6707,161.723,842.33,170.4" style="stroke:#181818;stroke-width:1;stroke-linejoin:miter;stroke-miterlimit:10;"/><text fill="#000000" font-family="sans-serif" font-size="13" lengthAdjust="spacing" textLength="117.0001" x="848" y="136.6669">&#37117;&#29992;&#20110;&#23545;&#35937;&#21327;&#20316;&#35299;&#32806;</text></g><?plantuml-src TLJBRjD05DtxAwomhiI2eee5KbjKmQA011iaDXDxabfDF97jGYE4bBHD5T4y2YrKD6rAtr5VQGI4a4VpCvwnlU8N6C-CWvoKLQGvvznxVUuzCUSrFGKCa9GDg5X0ZoUW_4wIvIcWpCSDjA2hqoY13FcE2k14JF4HPAZG4A_tbGaOZT7N6QHRJq4Iof5PJJ6GYMAM_0eyXbf4UY-PWoOfMXR4_zCYDg50PQH5T6BytlXTMaKAn16Sh-1E6rVN8gpGlyaZBpJ_rqBwQnrlrkrM1bzLxHlA0wPi1bXOCWCK2nbfUHPQSqYbkaxJxU_n5amNuuImQZ9gMWO5P26dklfljx5FjifC10G-SvjuQa5Bq0-aclmgkJmcrPMWLvGZOVfp0rd8IgSW5HmLSRv9Qljajyy4gG0B6UHqDloYjnWqgOAKvRScfMDSFdHx5wHum2VcoD2aXgR68HlKEUaudH-uVS87PK2OF8sIAMHg5kMJRn_v38oi142O_mWgo03K7bh_GurailYWYhlS23N0HfO5L5hVwUpvoytvtn0iYG93v4JwBTJYSnQjdslOxNE-8iuFi16h5-aktQk-jtL5IgVKxC3cnNJ8OdU_OBTklS7fEQ3H-_CsRd2tZ8zMdFLLxeB_Fk9O4kZqwDpwBz9OulFXmfV0DHyCAvxG5N7Bl6mHbtXbJJo6gRDGrGIricgtBd6nx5ulCq5IGCE29DGjHDtzqFItqJztSgU2pv0m_LdKXCOR_vRizfhTQNgPRMVlcF6HW8R2QG7_DdXrxXyFfly-JAKV1EDq5SxL5ld-cLJwmPsQ0WeBNi9aAa7V1p4cFxDERSqxgv4gNw4b6FuMHQJbiR67mqcL7yZuQDjkdTdjKxoHnRq3abyVP5iI0MNAGVQenblkuNBT-rgqUoKQKhAxnFz1g9ZiN4WYN4p6JtMWmOMSVygD9Pv8YPqQ8muoGBayJKwbPNUxVxe5ibB6bHkxLSJh1OdvnnI1DwBuTTOzpD4Mt3tkk2JEYl75NYcTV3hoDZEurV9oj6QUxruAzYZ8_6XuSMUpPhTBucABPRktuvuUkfcJlm00?></g></svg>